<svg xmlns="http://www.w3.org/2000/svg" width="640" height="280" viewBox="0 0 640 280" shape-rendering="crispEdges">
  <defs>
    <linearGradient id="menuSky" x1="0" y1="0" x2="0" y2="1">
      <stop offset="0%" stop-color="#301529"/>
      <stop offset="55%" stop-color="#120812"/>
      <stop offset="100%" stop-color="#050405"/>
    </linearGradient>
    <linearGradient id="gameSky" x1="0" y1="0" x2="0" y2="1">
      <stop offset="0%" stop-color="#1c0d18"/>
      <stop offset="20%" stop-color="#150b13"/>
      <stop offset="100%" stop-color="#09070a"/>
    </linearGradient>
  </defs>

  <rect x="0" y="0" width="320" height="280" fill="url(#menuSky)"/>
  <circle cx="248" cy="54" r="26" fill="#ebd4b8" fill-opacity="0.95"/>
  <circle cx="258" cy="48" r="30" fill="#5f2646" fill-opacity="0.35"/>
  <g fill="#080608">
    <rect x="0" y="190" width="320" height="90"/>
    <rect x="18" y="136" width="28" height="84"/>
    <rect x="52" y="112" width="24" height="108"/>
    <rect x="78" y="126" width="22" height="94"/>
    <rect x="108" y="84" width="38" height="136"/>
    <rect x="154" y="102" width="26" height="118"/>
    <rect x="188" y="118" width="24" height="102"/>
    <rect x="220" y="96" width="30" height="124"/>
    <rect x="258" y="128" width="24" height="92"/>
    <polygon points="110,84 127,56 144,84"/>
    <polygon points="221,96 236,70 251,96"/>
    <polygon points="52,112 64,88 76,112"/>
  </g>
  <g fill="#7f2837">
    <rect x="118" y="114" width="6" height="10"/>
    <rect x="132" y="114" width="6" height="10"/>
    <rect x="228" y="126" width="6" height="10"/>
    <rect x="238" y="126" width="6" height="10"/>
    <rect x="58" y="136" width="5" height="8"/>
    <rect x="66" y="136" width="5" height="8"/>
  </g>
  <g fill="#b98296" fill-opacity="0.12">
    <rect x="0" y="202" width="320" height="10"/>
    <rect x="0" y="224" width="320" height="14"/>
    <rect x="0" y="250" width="320" height="24"/>
  </g>
  <g fill="#ffffff" fill-opacity="0.07">
    <rect x="18" y="34" width="48" height="2"/>
    <rect x="74" y="24" width="26" height="2"/>
    <rect x="200" y="88" width="34" height="2"/>
  </g>

  <rect x="320" y="0" width="320" height="280" fill="url(#gameSky)"/>
  <rect x="320" y="236" width="320" height="28" fill="#8f305d" fill-opacity="0.14"/>
  <rect x="320" y="40" width="320" height="2" fill="#ffffff" fill-opacity="0.04"/>
  <rect x="320" y="278" width="320" height="2" fill="#ffffff" fill-opacity="0.04"/>
</svg>
