<svg xmlns="http://www.w3.org/2000/svg" width="640" height="280" viewBox="0 0 640 280" shape-rendering="crispEdges">
  <defs>
    <linearGradient id="menuSky" x1="0" y1="0" x2="0" y2="1">
      <stop offset="0%" stop-color="#48534a"/>
      <stop offset="35%" stop-color="#283029"/>
      <stop offset="100%" stop-color="#111513"/>
    </linearGradient>
    <linearGradient id="gameSky" x1="0" y1="0" x2="0" y2="1">
      <stop offset="0%" stop-color="#313834"/>
      <stop offset="42%" stop-color="#1f2523"/>
      <stop offset="100%" stop-color="#121513"/>
    </linearGradient>
    <radialGradient id="sirens" cx="0.5" cy="0.5" r="0.6">
      <stop offset="0%" stop-color="#e55b31" stop-opacity="0.9"/>
      <stop offset="100%" stop-color="#e55b31" stop-opacity="0"/>
    </radialGradient>
    <radialGradient id="blueSiren" cx="0.5" cy="0.5" r="0.6">
      <stop offset="0%" stop-color="#4ea4d8" stop-opacity="0.82"/>
      <stop offset="100%" stop-color="#4ea4d8" stop-opacity="0"/>
    </radialGradient>
  </defs>

  <g transform="translate(0 0)">
    <rect width="320" height="280" fill="url(#menuSky)"/>
    <rect y="184" width="320" height="96" fill="#0f1210"/>
    <rect y="198" width="320" height="82" fill="#151b18"/>
    <rect y="234" width="320" height="4" fill="#d6aa4b" fill-opacity="0.22"/>
    <rect y="238" width="320" height="2" fill="#c8912d" fill-opacity="0.24"/>
    <rect x="24" y="0" width="272" height="2" fill="#ffffff" fill-opacity="0.08"/>
    <rect x="28" y="34" width="66" height="2" fill="#ffffff" fill-opacity="0.06"/>
    <rect x="226" y="52" width="40" height="2" fill="#ffffff" fill-opacity="0.05"/>

    <circle cx="248" cy="54" r="32" fill="#c8d0b8" fill-opacity="0.16"/>
    <circle cx="236" cy="60" r="21" fill="#a9b59c" fill-opacity="0.1"/>

    <g fill="#0c0f0d">
      <rect x="0" y="142" width="28" height="62"/>
      <rect x="32" y="128" width="18" height="76"/>
      <rect x="54" y="118" width="24" height="86"/>
      <rect x="82" y="132" width="19" height="72"/>
      <rect x="106" y="100" width="36" height="104"/>
      <rect x="146" y="124" width="20" height="80"/>
      <rect x="170" y="112" width="24" height="92"/>
      <rect x="200" y="96" width="42" height="108"/>
      <rect x="246" y="138" width="24" height="66"/>
      <rect x="274" y="120" width="30" height="84"/>
      <polygon points="112,100 124,80 136,100"/>
      <polygon points="206,96 221,74 236,96"/>
      <polygon points="278,120 289,100 300,120"/>
    </g>

    <g fill="#4b5650" fill-opacity="0.22">
      <rect x="59" y="126" width="6" height="8"/>
      <rect x="69" y="126" width="6" height="8"/>
      <rect x="115" y="128" width="8" height="11"/>
      <rect x="127" y="128" width="8" height="11"/>
      <rect x="211" y="122" width="8" height="12"/>
      <rect x="223" y="122" width="8" height="12"/>
    </g>

    <g fill="#161a17">
      <rect x="0" y="212" width="320" height="68"/>
      <rect x="22" y="214" width="10" height="46"/>
      <rect x="28" y="214" width="72" height="3"/>
      <rect x="32" y="229" width="78" height="3"/>
      <rect x="34" y="244" width="92" height="3"/>
      <rect x="208" y="214" width="10" height="46"/>
      <rect x="218" y="214" width="74" height="3"/>
      <rect x="212" y="229" width="70" height="3"/>
      <rect x="198" y="244" width="84" height="3"/>
    </g>

    <g fill="#b64c37" fill-opacity="0.22">
      <rect x="28" y="210" width="30" height="5"/>
      <rect x="214" y="210" width="32" height="5"/>
    </g>

    <g fill="#1d221f">
      <rect x="118" y="154" width="4" height="32"/>
      <rect x="164" y="156" width="4" height="30"/>
      <rect x="120" y="154" width="48" height="3"/>
      <rect x="124" y="163" width="40" height="2"/>
      <rect x="124" y="171" width="40" height="2"/>
    </g>

    <g fill="#d9b95a">
      <rect x="124" y="159" width="40" height="2"/>
      <rect x="126" y="175" width="36" height="2"/>
      <rect x="130" y="167" width="4" height="2"/>
      <rect x="138" y="167" width="4" height="2"/>
      <rect x="146" y="167" width="4" height="2"/>
      <rect x="154" y="167" width="4" height="2"/>
    </g>

    <rect x="24" y="212" width="42" height="42" fill="url(#sirens)"/>
    <rect x="232" y="214" width="42" height="42" fill="url(#blueSiren)"/>

    <g fill="#090b0a">
      <rect x="78" y="204" width="6" height="8"/>
      <rect x="82" y="198" width="6" height="14"/>
      <rect x="86" y="204" width="6" height="8"/>
      <rect x="94" y="204" width="6" height="8"/>
      <rect x="98" y="198" width="6" height="14"/>
      <rect x="102" y="204" width="6" height="8"/>
      <rect x="110" y="204" width="6" height="8"/>
      <rect x="114" y="198" width="6" height="14"/>
      <rect x="118" y="204" width="6" height="8"/>
      <rect x="196" y="204" width="6" height="8"/>
      <rect x="200" y="198" width="6" height="14"/>
      <rect x="204" y="204" width="6" height="8"/>
      <rect x="212" y="204" width="6" height="8"/>
      <rect x="216" y="198" width="6" height="14"/>
      <rect x="220" y="204" width="6" height="8"/>
    </g>
  </g>

  <g transform="translate(320 0)">
    <rect width="320" height="280" fill="url(#gameSky)"/>
    <rect y="184" width="320" height="96" fill="#111513"/>
    <rect y="194" width="320" height="86" fill="#161b18"/>
    <rect x="0" y="178" width="320" height="2" fill="#637067" fill-opacity="0.22"/>
    <rect x="0" y="206" width="320" height="2" fill="#0b0f0d" fill-opacity="0.3"/>
    <rect x="0" y="246" width="320" height="2" fill="#d3a746" fill-opacity="0.12"/>

    <g fill="#0c100e">
      <rect x="22" y="108" width="32" height="74"/>
      <rect x="62" y="120" width="28" height="62"/>
      <rect x="98" y="92" width="42" height="90"/>
      <rect x="150" y="126" width="22" height="56"/>
      <rect x="178" y="102" width="30" height="80"/>
      <rect x="216" y="118" width="24" height="64"/>
      <rect x="246" y="96" width="40" height="86"/>
      <polygon points="100,92 119,64 138,92"/>
      <polygon points="249,96 266,72 283,96"/>
    </g>

    <g fill="#768477" fill-opacity="0.14">
      <rect x="108" y="122" width="10" height="12"/>
      <rect x="122" y="122" width="10" height="12"/>
      <rect x="253" y="126" width="8" height="10"/>
      <rect x="265" y="126" width="8" height="10"/>
    </g>

    <rect x="20" y="38" width="86" height="2" fill="#ffffff" fill-opacity="0.05"/>
    <rect x="250" y="50" width="48" height="2" fill="#ffffff" fill-opacity="0.05"/>
    <rect x="102" y="28" width="56" height="18" fill="#c74b31" fill-opacity="0.1"/>
    <rect x="210" y="28" width="44" height="16" fill="#4ea4d8" fill-opacity="0.08"/>

    <g fill="#1a1f1c">
      <rect x="30" y="208" width="18" height="34"/>
      <rect x="48" y="214" width="48" height="6"/>
      <rect x="50" y="228" width="44" height="6"/>
      <rect x="52" y="242" width="42" height="6"/>
      <rect x="228" y="210" width="18" height="32"/>
      <rect x="184" y="216" width="44" height="6"/>
      <rect x="186" y="230" width="40" height="6"/>
      <rect x="188" y="244" width="36" height="6"/>
    </g>

    <rect x="20" y="206" width="40" height="36" fill="url(#sirens)"/>
    <rect x="226" y="206" width="40" height="36" fill="url(#blueSiren)"/>
  </g>
</svg>
