<svg xmlns="http://www.w3.org/2000/svg" width="96" height="16" viewBox="0 0 96 16" shape-rendering="crispEdges">
  <defs>
    <g id="b0">
      <rect x="4" y="5" width="8" height="7" fill="#0e0d10"/>
      <rect x="3" y="6" width="10" height="6" fill="#38363e"/>
      <rect x="5" y="4" width="2" height="1" fill="#6c6972"/>
      <rect x="4" y="5" width="1" height="1" fill="#6c6972"/>
      <rect x="8" y="6" width="2" height="4" fill="#8e2233"/>
      <rect x="10" y="4" width="1" height="3" fill="#8e2233"/>
      <rect x="10" y="3" width="1" height="1" fill="#ffcc5f"/>
      <rect x="9" y="4" width="1" height="1" fill="#ffcc5f"/>
    </g>
    <g id="b1">
      <use href="#b0"/>
      <rect x="10" y="3" width="1" height="1" fill="#00000000"/>
      <rect x="9" y="4" width="1" height="1" fill="#00000000"/>
      <rect x="11" y="2" width="1" height="1" fill="#ffd777"/>
      <rect x="10" y="3" width="1" height="1" fill="#ffd777"/>
    </g>
    <g id="b2">
      <use href="#b0"/>
      <rect x="10" y="4" width="1" height="3" fill="#00000000"/>
      <rect x="10" y="2" width="1" height="3" fill="#8e2233"/>
      <rect x="12" y="1" width="1" height="1" fill="#fff0a3"/>
      <rect x="11" y="2" width="1" height="1" fill="#fff0a3"/>
    </g>
    <g id="b3">
      <use href="#b0"/>
      <rect x="10" y="3" width="1" height="1" fill="#00000000"/>
      <rect x="9" y="4" width="1" height="1" fill="#00000000"/>
      <rect x="11" y="2" width="1" height="1" fill="#ffe07e"/>
      <rect x="10" y="3" width="1" height="1" fill="#ffe07e"/>
    </g>
    <g id="b4">
      <rect x="4" y="5" width="8" height="7" fill="#0e0d10"/>
      <rect x="3" y="6" width="10" height="6" fill="#4b4952"/>
      <rect x="5" y="4" width="2" height="1" fill="#6c6972"/>
      <rect x="4" y="5" width="1" height="1" fill="#6c6972"/>
      <rect x="8" y="5" width="2" height="5" fill="#8e2233"/>
      <rect x="10" y="3" width="1" height="3" fill="#8e2233"/>
      <rect x="12" y="1" width="1" height="1" fill="#fff0a3"/>
      <rect x="11" y="2" width="1" height="1" fill="#fff0a3"/>
    </g>
    <g id="b5">
      <rect x="4" y="4" width="8" height="8" fill="#0e0d10"/>
      <rect x="3" y="5" width="10" height="7" fill="#4b4952"/>
      <rect x="5" y="4" width="3" height="1" fill="#6c6972"/>
      <rect x="8" y="4" width="2" height="5" fill="#8e2233"/>
      <rect x="10" y="2" width="1" height="3" fill="#8e2233"/>
      <rect x="13" y="0" width="1" height="1" fill="#ffffff"/>
      <rect x="12" y="1" width="1" height="1" fill="#ffffff"/>
    </g>
  </defs>
  <use href="#b0" x="0" y="0"/>
  <use href="#b1" x="16" y="0"/>
  <use href="#b2" x="32" y="0"/>
  <use href="#b3" x="48" y="0"/>
  <use href="#b4" x="64" y="0"/>
  <use href="#b5" x="80" y="0"/>
</svg>
