<svg xmlns="http://www.w3.org/2000/svg" width="96" height="16" viewBox="0 0 96 16" shape-rendering="crispEdges">
  <g fill="#ffcc5f">
    <rect x="7" y="0" width="1" height="1"/>
  </g>
  <g fill="#6c6972">
    <rect x="7" y="1" width="1" height="1"/>
    <rect x="7" y="2" width="1" height="1"/>
    <rect x="6" y="3" width="1" height="1"/>
    <rect x="23" y="1" width="1" height="1"/>
    <rect x="23" y="2" width="1" height="1"/>
    <rect x="22" y="3" width="1" height="1"/>
    <rect x="39" y="2" width="1" height="1"/>
    <rect x="38" y="3" width="1" height="1"/>
    <rect x="55" y="2" width="1" height="1"/>
    <rect x="54" y="3" width="1" height="1"/>
    <rect x="71" y="2" width="1" height="1"/>
    <rect x="70" y="3" width="1" height="1"/>
    <rect x="87" y="2" width="1" height="1"/>
    <rect x="86" y="3" width="1" height="1"/>
  </g>
  <g fill="#38363e">
    <rect x="5" y="4" width="1" height="1"/>
    <rect x="6" y="4" width="1" height="1"/>
    <rect x="7" y="4" width="1" height="1"/>
    <rect x="8" y="4" width="1" height="1"/>
    <rect x="9" y="4" width="1" height="1"/>
    <rect x="3" y="5" width="1" height="1"/>
    <rect x="4" y="5" width="1" height="1"/>
    <rect x="5" y="5" width="1" height="1"/>
    <rect x="6" y="5" width="1" height="1"/>
    <rect x="7" y="5" width="1" height="1"/>
    <rect x="8" y="5" width="1" height="1"/>
    <rect x="9" y="5" width="1" height="1"/>
    <rect x="10" y="5" width="1" height="1"/>
    <rect x="11" y="5" width="1" height="1"/>
    <rect x="3" y="6" width="1" height="1"/>
    <rect x="4" y="6" width="1" height="1"/>
    <rect x="6" y="6" width="1" height="1"/>
    <rect x="7" y="6" width="1" height="1"/>
    <rect x="8" y="6" width="1" height="1"/>
    <rect x="9" y="6" width="1" height="1"/>
    <rect x="10" y="6" width="1" height="1"/>
    <rect x="11" y="6" width="1" height="1"/>
    <rect x="3" y="7" width="1" height="1"/>
    <rect x="4" y="7" width="1" height="1"/>
    <rect x="5" y="7" width="1" height="1"/>
    <rect x="6" y="7" width="1" height="1"/>
    <rect x="7" y="7" width="1" height="1"/>
    <rect x="8" y="7" width="1" height="1"/>
    <rect x="9" y="7" width="1" height="1"/>
    <rect x="10" y="7" width="1" height="1"/>
    <rect x="11" y="7" width="1" height="1"/>
    <rect x="3" y="8" width="1" height="1"/>
    <rect x="4" y="8" width="1" height="1"/>
    <rect x="5" y="8" width="1" height="1"/>
    <rect x="6" y="8" width="1" height="1"/>
    <rect x="7" y="8" width="1" height="1"/>
    <rect x="8" y="8" width="1" height="1"/>
    <rect x="9" y="8" width="1" height="1"/>
    <rect x="10" y="8" width="1" height="1"/>
    <rect x="11" y="8" width="1" height="1"/>
    <rect x="3" y="9" width="1" height="1"/>
    <rect x="4" y="9" width="1" height="1"/>
    <rect x="5" y="9" width="1" height="1"/>
    <rect x="6" y="9" width="1" height="1"/>
    <rect x="7" y="9" width="1" height="1"/>
    <rect x="8" y="9" width="1" height="1"/>
    <rect x="9" y="9" width="1" height="1"/>
    <rect x="10" y="9" width="1" height="1"/>
    <rect x="11" y="9" width="1" height="1"/>
    <rect x="4" y="10" width="1" height="1"/>
    <rect x="5" y="10" width="1" height="1"/>
    <rect x="6" y="10" width="1" height="1"/>
    <rect x="7" y="10" width="1" height="1"/>
    <rect x="8" y="10" width="1" height="1"/>
    <rect x="9" y="10" width="1" height="1"/>
    <rect x="10" y="10" width="1" height="1"/>
    <rect x="5" y="11" width="1" height="1"/>
    <rect x="6" y="11" width="1" height="1"/>
    <rect x="7" y="11" width="1" height="1"/>
    <rect x="8" y="11" width="1" height="1"/>
    <rect x="9" y="11" width="1" height="1"/>
    <rect x="21" y="4" width="1" height="1"/>
    <rect x="22" y="4" width="1" height="1"/>
    <rect x="23" y="4" width="1" height="1"/>
    <rect x="24" y="4" width="1" height="1"/>
    <rect x="25" y="4" width="1" height="1"/>
    <rect x="26" y="4" width="1" height="1"/>
    <rect x="19" y="5" width="1" height="1"/>
    <rect x="20" y="5" width="1" height="1"/>
    <rect x="21" y="5" width="1" height="1"/>
    <rect x="22" y="5" width="1" height="1"/>
    <rect x="23" y="5" width="1" height="1"/>
    <rect x="24" y="5" width="1" height="1"/>
    <rect x="25" y="5" width="1" height="1"/>
    <rect x="26" y="5" width="1" height="1"/>
    <rect x="27" y="5" width="1" height="1"/>
    <rect x="28" y="5" width="1" height="1"/>
    <rect x="19" y="6" width="1" height="1"/>
    <rect x="20" y="6" width="1" height="1"/>
    <rect x="22" y="6" width="1" height="1"/>
    <rect x="23" y="6" width="1" height="1"/>
    <rect x="24" y="6" width="1" height="1"/>
    <rect x="25" y="6" width="1" height="1"/>
    <rect x="26" y="6" width="1" height="1"/>
    <rect x="27" y="6" width="1" height="1"/>
    <rect x="28" y="6" width="1" height="1"/>
    <rect x="19" y="7" width="1" height="1"/>
    <rect x="20" y="7" width="1" height="1"/>
    <rect x="21" y="7" width="1" height="1"/>
    <rect x="22" y="7" width="1" height="1"/>
    <rect x="23" y="7" width="1" height="1"/>
    <rect x="24" y="7" width="1" height="1"/>
    <rect x="25" y="7" width="1" height="1"/>
    <rect x="26" y="7" width="1" height="1"/>
    <rect x="27" y="7" width="1" height="1"/>
    <rect x="28" y="7" width="1" height="1"/>
    <rect x="19" y="8" width="1" height="1"/>
    <rect x="20" y="8" width="1" height="1"/>
    <rect x="21" y="8" width="1" height="1"/>
    <rect x="22" y="8" width="1" height="1"/>
    <rect x="23" y="8" width="1" height="1"/>
    <rect x="24" y="8" width="1" height="1"/>
    <rect x="25" y="8" width="1" height="1"/>
    <rect x="26" y="8" width="1" height="1"/>
    <rect x="27" y="8" width="1" height="1"/>
    <rect x="28" y="8" width="1" height="1"/>
    <rect x="19" y="9" width="1" height="1"/>
    <rect x="20" y="9" width="1" height="1"/>
    <rect x="21" y="9" width="1" height="1"/>
    <rect x="22" y="9" width="1" height="1"/>
    <rect x="23" y="9" width="1" height="1"/>
    <rect x="24" y="9" width="1" height="1"/>
    <rect x="25" y="9" width="1" height="1"/>
    <rect x="26" y="9" width="1" height="1"/>
    <rect x="27" y="9" width="1" height="1"/>
    <rect x="28" y="9" width="1" height="1"/>
    <rect x="19" y="10" width="1" height="1"/>
    <rect x="20" y="10" width="1" height="1"/>
    <rect x="21" y="10" width="1" height="1"/>
    <rect x="22" y="10" width="1" height="1"/>
    <rect x="23" y="10" width="1" height="1"/>
    <rect x="24" y="10" width="1" height="1"/>
    <rect x="25" y="10" width="1" height="1"/>
    <rect x="26" y="10" width="1" height="1"/>
    <rect x="27" y="10" width="1" height="1"/>
    <rect x="28" y="10" width="1" height="1"/>
    <rect x="20" y="11" width="1" height="1"/>
    <rect x="21" y="11" width="1" height="1"/>
    <rect x="22" y="11" width="1" height="1"/>
    <rect x="23" y="11" width="1" height="1"/>
    <rect x="24" y="11" width="1" height="1"/>
    <rect x="25" y="11" width="1" height="1"/>
    <rect x="26" y="11" width="1" height="1"/>
    <rect x="27" y="11" width="1" height="1"/>
    <rect x="21" y="12" width="1" height="1"/>
    <rect x="22" y="12" width="1" height="1"/>
    <rect x="23" y="12" width="1" height="1"/>
    <rect x="24" y="12" width="1" height="1"/>
    <rect x="25" y="12" width="1" height="1"/>
    <rect x="26" y="12" width="1" height="1"/>
    <rect x="37" y="4" width="1" height="1"/>
    <rect x="38" y="4" width="1" height="1"/>
    <rect x="39" y="4" width="1" height="1"/>
    <rect x="40" y="4" width="1" height="1"/>
    <rect x="41" y="4" width="1" height="1"/>
    <rect x="35" y="5" width="1" height="1"/>
    <rect x="36" y="5" width="1" height="1"/>
    <rect x="37" y="5" width="1" height="1"/>
    <rect x="38" y="5" width="1" height="1"/>
    <rect x="39" y="5" width="1" height="1"/>
    <rect x="40" y="5" width="1" height="1"/>
    <rect x="41" y="5" width="1" height="1"/>
    <rect x="42" y="5" width="1" height="1"/>
    <rect x="43" y="5" width="1" height="1"/>
    <rect x="35" y="6" width="1" height="1"/>
    <rect x="36" y="6" width="1" height="1"/>
    <rect x="38" y="6" width="1" height="1"/>
    <rect x="39" y="6" width="1" height="1"/>
    <rect x="40" y="6" width="1" height="1"/>
    <rect x="41" y="6" width="1" height="1"/>
    <rect x="42" y="6" width="1" height="1"/>
    <rect x="43" y="6" width="1" height="1"/>
    <rect x="35" y="7" width="1" height="1"/>
    <rect x="36" y="7" width="1" height="1"/>
    <rect x="37" y="7" width="1" height="1"/>
    <rect x="38" y="7" width="1" height="1"/>
    <rect x="39" y="7" width="1" height="1"/>
    <rect x="40" y="7" width="1" height="1"/>
    <rect x="41" y="7" width="1" height="1"/>
    <rect x="42" y="7" width="1" height="1"/>
    <rect x="43" y="7" width="1" height="1"/>
    <rect x="35" y="8" width="1" height="1"/>
    <rect x="36" y="8" width="1" height="1"/>
    <rect x="37" y="8" width="1" height="1"/>
    <rect x="38" y="8" width="1" height="1"/>
    <rect x="39" y="8" width="1" height="1"/>
    <rect x="40" y="8" width="1" height="1"/>
    <rect x="41" y="8" width="1" height="1"/>
    <rect x="42" y="8" width="1" height="1"/>
    <rect x="43" y="8" width="1" height="1"/>
    <rect x="35" y="9" width="1" height="1"/>
    <rect x="36" y="9" width="1" height="1"/>
    <rect x="37" y="9" width="1" height="1"/>
    <rect x="38" y="9" width="1" height="1"/>
    <rect x="39" y="9" width="1" height="1"/>
    <rect x="40" y="9" width="1" height="1"/>
    <rect x="41" y="9" width="1" height="1"/>
    <rect x="42" y="9" width="1" height="1"/>
    <rect x="43" y="9" width="1" height="1"/>
    <rect x="36" y="10" width="1" height="1"/>
    <rect x="37" y="10" width="1" height="1"/>
    <rect x="38" y="10" width="1" height="1"/>
    <rect x="39" y="10" width="1" height="1"/>
    <rect x="40" y="10" width="1" height="1"/>
    <rect x="41" y="10" width="1" height="1"/>
    <rect x="42" y="10" width="1" height="1"/>
    <rect x="37" y="11" width="1" height="1"/>
    <rect x="38" y="11" width="1" height="1"/>
    <rect x="39" y="11" width="1" height="1"/>
    <rect x="40" y="11" width="1" height="1"/>
    <rect x="41" y="11" width="1" height="1"/>
    <rect x="53" y="4" width="1" height="1"/>
    <rect x="54" y="4" width="1" height="1"/>
    <rect x="55" y="4" width="1" height="1"/>
    <rect x="56" y="4" width="1" height="1"/>
    <rect x="57" y="4" width="1" height="1"/>
    <rect x="58" y="4" width="1" height="1"/>
    <rect x="51" y="5" width="1" height="1"/>
    <rect x="52" y="5" width="1" height="1"/>
    <rect x="53" y="5" width="1" height="1"/>
    <rect x="54" y="5" width="1" height="1"/>
    <rect x="55" y="5" width="1" height="1"/>
    <rect x="56" y="5" width="1" height="1"/>
    <rect x="57" y="5" width="1" height="1"/>
    <rect x="58" y="5" width="1" height="1"/>
    <rect x="59" y="5" width="1" height="1"/>
    <rect x="60" y="5" width="1" height="1"/>
    <rect x="51" y="6" width="1" height="1"/>
    <rect x="52" y="6" width="1" height="1"/>
    <rect x="54" y="6" width="1" height="1"/>
    <rect x="55" y="6" width="1" height="1"/>
    <rect x="56" y="6" width="1" height="1"/>
    <rect x="57" y="6" width="1" height="1"/>
    <rect x="58" y="6" width="1" height="1"/>
    <rect x="59" y="6" width="1" height="1"/>
    <rect x="60" y="6" width="1" height="1"/>
    <rect x="51" y="7" width="1" height="1"/>
    <rect x="52" y="7" width="1" height="1"/>
    <rect x="53" y="7" width="1" height="1"/>
    <rect x="54" y="7" width="1" height="1"/>
    <rect x="55" y="7" width="1" height="1"/>
    <rect x="56" y="7" width="1" height="1"/>
    <rect x="57" y="7" width="1" height="1"/>
    <rect x="58" y="7" width="1" height="1"/>
    <rect x="59" y="7" width="1" height="1"/>
    <rect x="60" y="7" width="1" height="1"/>
    <rect x="51" y="8" width="1" height="1"/>
    <rect x="52" y="8" width="1" height="1"/>
    <rect x="53" y="8" width="1" height="1"/>
    <rect x="54" y="8" width="1" height="1"/>
    <rect x="55" y="8" width="1" height="1"/>
    <rect x="56" y="8" width="1" height="1"/>
    <rect x="57" y="8" width="1" height="1"/>
    <rect x="58" y="8" width="1" height="1"/>
    <rect x="59" y="8" width="1" height="1"/>
    <rect x="60" y="8" width="1" height="1"/>
    <rect x="51" y="9" width="1" height="1"/>
    <rect x="52" y="9" width="1" height="1"/>
    <rect x="53" y="9" width="1" height="1"/>
    <rect x="54" y="9" width="1" height="1"/>
    <rect x="55" y="9" width="1" height="1"/>
    <rect x="56" y="9" width="1" height="1"/>
    <rect x="57" y="9" width="1" height="1"/>
    <rect x="58" y="9" width="1" height="1"/>
    <rect x="59" y="9" width="1" height="1"/>
    <rect x="60" y="9" width="1" height="1"/>
    <rect x="51" y="10" width="1" height="1"/>
    <rect x="52" y="10" width="1" height="1"/>
    <rect x="53" y="10" width="1" height="1"/>
    <rect x="54" y="10" width="1" height="1"/>
    <rect x="55" y="10" width="1" height="1"/>
    <rect x="56" y="10" width="1" height="1"/>
    <rect x="57" y="10" width="1" height="1"/>
    <rect x="58" y="10" width="1" height="1"/>
    <rect x="59" y="10" width="1" height="1"/>
    <rect x="60" y="10" width="1" height="1"/>
    <rect x="52" y="11" width="1" height="1"/>
    <rect x="53" y="11" width="1" height="1"/>
    <rect x="54" y="11" width="1" height="1"/>
    <rect x="55" y="11" width="1" height="1"/>
    <rect x="56" y="11" width="1" height="1"/>
    <rect x="57" y="11" width="1" height="1"/>
    <rect x="58" y="11" width="1" height="1"/>
    <rect x="59" y="11" width="1" height="1"/>
    <rect x="53" y="12" width="1" height="1"/>
    <rect x="54" y="12" width="1" height="1"/>
    <rect x="55" y="12" width="1" height="1"/>
    <rect x="56" y="12" width="1" height="1"/>
    <rect x="57" y="12" width="1" height="1"/>
    <rect x="58" y="12" width="1" height="1"/>
  </g>
  <g fill="#58565e">
    <rect x="5" y="6" width="1" height="1"/>
    <rect x="21" y="6" width="1" height="1"/>
    <rect x="37" y="6" width="1" height="1"/>
    <rect x="53" y="6" width="1" height="1"/>
  </g>
  <g fill="#fff0a3">
    <rect x="23" y="0" width="1" height="1"/>
    <rect x="38" y="0" width="1" height="1"/>
    <rect x="39" y="0" width="1" height="1"/>
    <rect x="38" y="1" width="1" height="1"/>
    <rect x="39" y="1" width="1" height="1"/>
  </g>
  <g fill="#ffe07e">
    <rect x="22" y="1" width="1" height="1"/>
  </g>
  <g fill="#ffd777">
    <rect x="54" y="0" width="1" height="1"/>
    <rect x="55" y="1" width="1" height="1"/>
  </g>
  <g fill="#fff080">
    <rect x="70" y="0" width="1" height="1"/>
    <rect x="71" y="0" width="1" height="1"/>
    <rect x="70" y="1" width="1" height="1"/>
    <rect x="71" y="1" width="1" height="1"/>
    <rect x="86" y="0" width="1" height="1"/>
    <rect x="87" y="0" width="1" height="1"/>
    <rect x="86" y="1" width="1" height="1"/>
    <rect x="87" y="1" width="1" height="1"/>
  </g>
  <g fill="#c83020">
    <rect x="69" y="4" width="1" height="1"/>
    <rect x="70" y="4" width="1" height="1"/>
    <rect x="71" y="4" width="1" height="1"/>
    <rect x="72" y="4" width="1" height="1"/>
    <rect x="73" y="4" width="1" height="1"/>
    <rect x="67" y="5" width="1" height="1"/>
    <rect x="68" y="5" width="1" height="1"/>
    <rect x="69" y="5" width="1" height="1"/>
    <rect x="70" y="5" width="1" height="1"/>
    <rect x="71" y="5" width="1" height="1"/>
    <rect x="72" y="5" width="1" height="1"/>
    <rect x="73" y="5" width="1" height="1"/>
    <rect x="74" y="5" width="1" height="1"/>
    <rect x="75" y="5" width="1" height="1"/>
    <rect x="67" y="6" width="1" height="1"/>
    <rect x="68" y="6" width="1" height="1"/>
    <rect x="70" y="6" width="1" height="1"/>
    <rect x="71" y="6" width="1" height="1"/>
    <rect x="72" y="6" width="1" height="1"/>
    <rect x="73" y="6" width="1" height="1"/>
    <rect x="74" y="6" width="1" height="1"/>
    <rect x="75" y="6" width="1" height="1"/>
    <rect x="67" y="7" width="1" height="1"/>
    <rect x="68" y="7" width="1" height="1"/>
    <rect x="69" y="7" width="1" height="1"/>
    <rect x="70" y="7" width="1" height="1"/>
    <rect x="71" y="7" width="1" height="1"/>
    <rect x="72" y="7" width="1" height="1"/>
    <rect x="73" y="7" width="1" height="1"/>
    <rect x="74" y="7" width="1" height="1"/>
    <rect x="75" y="7" width="1" height="1"/>
    <rect x="67" y="8" width="1" height="1"/>
    <rect x="68" y="8" width="1" height="1"/>
    <rect x="69" y="8" width="1" height="1"/>
    <rect x="70" y="8" width="1" height="1"/>
    <rect x="71" y="8" width="1" height="1"/>
    <rect x="72" y="8" width="1" height="1"/>
    <rect x="73" y="8" width="1" height="1"/>
    <rect x="74" y="8" width="1" height="1"/>
    <rect x="75" y="8" width="1" height="1"/>
    <rect x="67" y="9" width="1" height="1"/>
    <rect x="68" y="9" width="1" height="1"/>
    <rect x="69" y="9" width="1" height="1"/>
    <rect x="70" y="9" width="1" height="1"/>
    <rect x="71" y="9" width="1" height="1"/>
    <rect x="72" y="9" width="1" height="1"/>
    <rect x="73" y="9" width="1" height="1"/>
    <rect x="74" y="9" width="1" height="1"/>
    <rect x="75" y="9" width="1" height="1"/>
    <rect x="68" y="10" width="1" height="1"/>
    <rect x="69" y="10" width="1" height="1"/>
    <rect x="70" y="10" width="1" height="1"/>
    <rect x="71" y="10" width="1" height="1"/>
    <rect x="72" y="10" width="1" height="1"/>
    <rect x="73" y="10" width="1" height="1"/>
    <rect x="74" y="10" width="1" height="1"/>
    <rect x="69" y="11" width="1" height="1"/>
    <rect x="70" y="11" width="1" height="1"/>
    <rect x="71" y="11" width="1" height="1"/>
    <rect x="72" y="11" width="1" height="1"/>
    <rect x="73" y="11" width="1" height="1"/>
    <rect x="85" y="6" width="1" height="1"/>
  </g>
  <g fill="#e85030">
    <rect x="69" y="6" width="1" height="1"/>
    <rect x="85" y="4" width="1" height="1"/>
    <rect x="86" y="4" width="1" height="1"/>
    <rect x="87" y="4" width="1" height="1"/>
    <rect x="88" y="4" width="1" height="1"/>
    <rect x="89" y="4" width="1" height="1"/>
    <rect x="90" y="4" width="1" height="1"/>
    <rect x="83" y="5" width="1" height="1"/>
    <rect x="84" y="5" width="1" height="1"/>
    <rect x="85" y="5" width="1" height="1"/>
    <rect x="86" y="5" width="1" height="1"/>
    <rect x="87" y="5" width="1" height="1"/>
    <rect x="88" y="5" width="1" height="1"/>
    <rect x="89" y="5" width="1" height="1"/>
    <rect x="90" y="5" width="1" height="1"/>
    <rect x="91" y="5" width="1" height="1"/>
    <rect x="92" y="5" width="1" height="1"/>
    <rect x="83" y="6" width="1" height="1"/>
    <rect x="84" y="6" width="1" height="1"/>
    <rect x="86" y="6" width="1" height="1"/>
    <rect x="87" y="6" width="1" height="1"/>
    <rect x="88" y="6" width="1" height="1"/>
    <rect x="89" y="6" width="1" height="1"/>
    <rect x="90" y="6" width="1" height="1"/>
    <rect x="91" y="6" width="1" height="1"/>
    <rect x="92" y="6" width="1" height="1"/>
    <rect x="83" y="7" width="1" height="1"/>
    <rect x="84" y="7" width="1" height="1"/>
    <rect x="85" y="7" width="1" height="1"/>
    <rect x="86" y="7" width="1" height="1"/>
    <rect x="87" y="7" width="1" height="1"/>
    <rect x="88" y="7" width="1" height="1"/>
    <rect x="89" y="7" width="1" height="1"/>
    <rect x="90" y="7" width="1" height="1"/>
    <rect x="91" y="7" width="1" height="1"/>
    <rect x="92" y="7" width="1" height="1"/>
    <rect x="83" y="8" width="1" height="1"/>
    <rect x="84" y="8" width="1" height="1"/>
    <rect x="85" y="8" width="1" height="1"/>
    <rect x="86" y="8" width="1" height="1"/>
    <rect x="87" y="8" width="1" height="1"/>
    <rect x="88" y="8" width="1" height="1"/>
    <rect x="89" y="8" width="1" height="1"/>
    <rect x="90" y="8" width="1" height="1"/>
    <rect x="91" y="8" width="1" height="1"/>
    <rect x="92" y="8" width="1" height="1"/>
    <rect x="83" y="9" width="1" height="1"/>
    <rect x="84" y="9" width="1" height="1"/>
    <rect x="85" y="9" width="1" height="1"/>
    <rect x="86" y="9" width="1" height="1"/>
    <rect x="87" y="9" width="1" height="1"/>
    <rect x="88" y="9" width="1" height="1"/>
    <rect x="89" y="9" width="1" height="1"/>
    <rect x="90" y="9" width="1" height="1"/>
    <rect x="91" y="9" width="1" height="1"/>
    <rect x="92" y="9" width="1" height="1"/>
    <rect x="83" y="10" width="1" height="1"/>
    <rect x="84" y="10" width="1" height="1"/>
    <rect x="85" y="10" width="1" height="1"/>
    <rect x="86" y="10" width="1" height="1"/>
    <rect x="87" y="10" width="1" height="1"/>
    <rect x="88" y="10" width="1" height="1"/>
    <rect x="89" y="10" width="1" height="1"/>
    <rect x="90" y="10" width="1" height="1"/>
    <rect x="91" y="10" width="1" height="1"/>
    <rect x="92" y="10" width="1" height="1"/>
    <rect x="84" y="11" width="1" height="1"/>
    <rect x="85" y="11" width="1" height="1"/>
    <rect x="86" y="11" width="1" height="1"/>
    <rect x="87" y="11" width="1" height="1"/>
    <rect x="88" y="11" width="1" height="1"/>
    <rect x="89" y="11" width="1" height="1"/>
    <rect x="90" y="11" width="1" height="1"/>
    <rect x="91" y="11" width="1" height="1"/>
    <rect x="85" y="12" width="1" height="1"/>
    <rect x="86" y="12" width="1" height="1"/>
    <rect x="87" y="12" width="1" height="1"/>
    <rect x="88" y="12" width="1" height="1"/>
    <rect x="89" y="12" width="1" height="1"/>
    <rect x="90" y="12" width="1" height="1"/>
  </g>
</svg>