<?xml version="1.0" encoding="UTF-8"?>
<svg xmlns="http://www.w3.org/2000/svg" width="96" height="16" viewBox="0 0 96 16">
<g transform="translate(0,0)"><rect x="5" y="4" width="6" height="10" fill="#000000"/><rect x="3" y="6" width="10" height="6" fill="#000000"/><rect x="4" y="5" width="8" height="8" fill="#000000"/><rect x="4" y="6" width="8" height="7" fill="#121214"/><rect x="5" y="5" width="6" height="9" fill="#121214"/><rect x="5" y="6" width="6" height="7" fill="#1c1c1f"/><rect x="6" y="6" width="4" height="6" fill="#2a2a2e"/><rect x="5" y="6" width="2" height="2" fill="#4a4a50"/><rect x="6" y="7" width="1" height="1" fill="#8e8e93"/><rect x="7" y="3" width="2" height="1" fill="#000000"/><rect x="7" y="4" width="2" height="1" fill="#1c1c1f"/><rect x="8" y="1" width="1" height="2" fill="#3e2723"/><rect x="9" y="1" width="1" height="1" fill="#5d4037"/><rect x="10" y="0" width="1" height="1" fill="#ffea00"/><rect x="9" y="0" width="1" height="1" fill="#ff6d00"/><rect x="10" y="1" width="1" height="1" fill="#ff6d00"/></g>
<g transform="translate(16,0)"><rect x="5" y="4" width="6" height="10" fill="#000000"/><rect x="3" y="6" width="10" height="6" fill="#000000"/><rect x="4" y="5" width="8" height="8" fill="#000000"/><rect x="4" y="6" width="8" height="7" fill="#121214"/><rect x="5" y="5" width="6" height="9" fill="#121214"/><rect x="5" y="6" width="6" height="7" fill="#1c1c1f"/><rect x="6" y="6" width="4" height="6" fill="#2a2a2e"/><rect x="5" y="7" width="2" height="2" fill="#4a4a50"/><rect x="6" y="8" width="1" height="1" fill="#8e8e93"/><rect x="7" y="3" width="2" height="1" fill="#000000"/><rect x="7" y="4" width="2" height="1" fill="#1c1c1f"/><rect x="8" y="2" width="1" height="1" fill="#3e2723"/><rect x="9" y="1" width="1" height="2" fill="#3e2723"/><rect x="10" y="0" width="1" height="1" fill="#ff6d00"/><rect x="11" y="0" width="1" height="1" fill="#ffea00"/><rect x="11" y="1" width="1" height="1" fill="#ffffff"/><rect x="10" y="1" width="1" height="1" fill="#ffea00"/></g>
<g transform="translate(32,0)"><rect x="5" y="4" width="6" height="10" fill="#000000"/><rect x="3" y="6" width="10" height="6" fill="#000000"/><rect x="4" y="5" width="8" height="8" fill="#000000"/><rect x="4" y="6" width="8" height="7" fill="#121214"/><rect x="5" y="5" width="6" height="9" fill="#121214"/><rect x="5" y="6" width="6" height="7" fill="#1c1c1f"/><rect x="6" y="6" width="4" height="6" fill="#2a2a2e"/><rect x="4" y="6" width="2" height="2" fill="#4a4a50"/><rect x="5" y="7" width="1" height="1" fill="#8e8e93"/><rect x="7" y="3" width="2" height="1" fill="#000000"/><rect x="7" y="4" width="2" height="1" fill="#1c1c1f"/><rect x="9" y="2" width="1" height="1" fill="#3e2723"/><rect x="10" y="1" width="1" height="2" fill="#3e2723"/><rect x="11" y="1" width="1" height="1" fill="#ff6d00"/><rect x="11" y="2" width="1" height="1" fill="#ffea00"/><rect x="10" y="2" width="1" height="1" fill="#ff6d00"/></g>
<g transform="translate(48,0)"><rect x="5" y="4" width="6" height="10" fill="#000000"/><rect x="3" y="6" width="10" height="6" fill="#000000"/><rect x="4" y="5" width="8" height="8" fill="#000000"/><rect x="4" y="6" width="8" height="7" fill="#121214"/><rect x="5" y="5" width="6" height="9" fill="#121214"/><rect x="5" y="6" width="6" height="7" fill="#1c1c1f"/><rect x="6" y="6" width="4" height="6" fill="#2a2a2e"/><rect x="5" y="6" width="2" height="2" fill="#4a4a50"/><rect x="6" y="7" width="1" height="1" fill="#8e8e93"/><rect x="7" y="3" width="2" height="1" fill="#000000"/><rect x="7" y="4" width="2" height="1" fill="#1c1c1f"/><rect x="8" y="1" width="1" height="2" fill="#3e2723"/><rect x="8" y="0" width="1" height="1" fill="#ffea00"/><rect x="7" y="1" width="1" height="1" fill="#ff6d00"/><rect x="9" y="1" width="1" height="1" fill="#ff6d00"/><rect x="8" y="2" width="1" height="1" fill="#ffffff"/></g>
<g transform="translate(64,0)"><rect x="4" y="5" width="8" height="9" fill="#000000"/><rect x="2" y="7" width="12" height="5" fill="#000000"/><rect x="3" y="6" width="10" height="7" fill="#000000"/><rect x="3" y="7" width="10" height="6" fill="#4a0000"/><rect x="4" y="6" width="8" height="8" fill="#7f0000"/><rect x="5" y="7" width="6" height="6" fill="#d50000"/><rect x="7" y="9" width="2" height="2" fill="#ff3d00"/><rect x="7" y="10" width="1" height="1" fill="#ffea00"/><rect x="7" y="4" width="2" height="1" fill="#000000"/><rect x="7" y="5" width="2" height="1" fill="#4a0000"/><rect x="10" y="3" width="2" height="2" fill="#7f3600"/></g>
<g transform="translate(80,0)"><rect x="5" y="3" width="6" height="11" fill="#000000"/><rect x="3" y="5" width="10" height="7" fill="#000000"/><rect x="4" y="4" width="8" height="9" fill="#000000"/><rect x="4" y="5" width="8" height="8" fill="#7f0000"/><rect x="5" y="4" width="6" height="10" fill="#d50000"/><rect x="6" y="6" width="4" height="6" fill="#ff3d00"/><rect x="7" y="8" width="2" height="2" fill="#ffea00"/><rect x="7" y="9" width="1" height="1" fill="#ffffff"/><rect x="7" y="2" width="2" height="1" fill="#000000"/><rect x="7" y="3" width="2" height="1" fill="#d50000"/><rect x="2" y="7" width="1" height="3" fill="#4c2000"/><rect x="13" y="7" width="1" height="3" fill="#4c2000"/></g>
</svg>
