<svg xmlns="http://www.w3.org/2000/svg" width="56" height="16" viewBox="0 0 56 16" shape-rendering="crispEdges">
  <g transform="translate(0 0)">
    <circle cx="8" cy="9" r="5" fill="#111214"/>
    <circle cx="8" cy="9" r="4" fill="#3b4147"/>
    <rect x="6" y="5" width="2" height="1" fill="#818891"/>
    <rect x="5" y="6" width="1" height="1" fill="#818891"/>
    <rect x="8" y="2" width="2" height="3" fill="#8e2c26"/>
    <rect x="10" y="1" width="1" height="2" fill="#8e2c26"/>
    <rect x="10" y="0" width="1" height="1" fill="#ffd76a"/>
  </g>

  <g transform="translate(16 0)">
    <rect x="6" y="1" width="4" height="14" fill="#ffcf75"/>
    <rect x="1" y="6" width="14" height="4" fill="#ff8b2f"/>
    <rect x="7" y="2" width="2" height="12" fill="#fff0bf"/>
    <rect x="2" y="7" width="12" height="2" fill="#ffd76a"/>
    <rect x="4" y="4" width="8" height="8" fill="#d94627"/>
    <rect x="6" y="6" width="4" height="4" fill="#fff9ef"/>
  </g>

  <g transform="translate(32 0)">
    <circle cx="5" cy="7" r="4" fill="#111214"/>
    <circle cx="5" cy="7" r="3" fill="#3b4147"/>
    <rect x="4" y="3" width="2" height="1" fill="#818891"/>
    <rect x="6" y="1" width="2" height="3" fill="#8e2c26"/>
    <rect x="8" y="0" width="1" height="2" fill="#8e2c26"/>
    <rect x="8" y="0" width="1" height="1" fill="#ffd76a"/>
    <rect x="8" y="6" width="3" height="1" fill="#cf9a3c"/>
    <rect x="9" y="5" width="1" height="3" fill="#cf9a3c"/>
  </g>

  <g transform="translate(44 0)">
    <polygon points="6,0 11,5 6,10 1,5" fill="#111214"/>
    <polygon points="6,1 10,5 6,9 2,5" fill="#9b3f26"/>
    <polygon points="6,2 9,5 6,8 3,5" fill="#ff8b2f"/>
    <rect x="5" y="2" width="2" height="2" fill="#ffd76a"/>
    <rect x="4" y="4" width="4" height="2" fill="#fff9ef"/>
    <rect x="5" y="3" width="2" height="4" fill="#fff9ef"/>
    <rect x="8" y="1" width="1" height="2" fill="#ffd76a"/>
    <rect x="9" y="2" width="1" height="1" fill="#ffd76a"/>
    <rect x="2" y="4" width="2" height="1" fill="#cf9a3c"/>
    <rect x="8" y="7" width="2" height="1" fill="#cf9a3c"/>
  </g>
</svg>
