<svg xmlns="http://www.w3.org/2000/svg" width="56" height="16" viewBox="0 0 56 16" shape-rendering="crispEdges">
  <g transform="translate(0 0)">
    <circle cx="8" cy="9" r="5" fill="#0e0d10"/>
    <circle cx="8" cy="9" r="4" fill="#38363e"/>
    <rect x="6" y="5" width="2" height="1" fill="#6c6972"/>
    <rect x="5" y="6" width="1" height="1" fill="#6c6972"/>
    <rect x="8" y="2" width="2" height="3" fill="#8e2233"/>
    <rect x="10" y="1" width="1" height="2" fill="#8e2233"/>
    <rect x="10" y="0" width="1" height="1" fill="#ffcc5f"/>
  </g>

  <g transform="translate(16 0)">
    <rect x="6" y="1" width="4" height="14" fill="#82cfff"/>
    <rect x="1" y="6" width="14" height="4" fill="#82cfff"/>
    <rect x="7" y="2" width="2" height="12" fill="#d7f5ff"/>
    <rect x="2" y="7" width="12" height="2" fill="#d7f5ff"/>
    <rect x="4" y="4" width="8" height="8" fill="#4aa8ff"/>
    <rect x="6" y="6" width="4" height="4" fill="#ffffff"/>
  </g>

  <g transform="translate(32 0)">
    <circle cx="5" cy="7" r="4" fill="#131216"/>
    <circle cx="5" cy="7" r="3" fill="#4f4d57"/>
    <rect x="8" y="1" width="3" height="1" fill="#d6b064"/>
    <rect x="9" y="0" width="1" height="3" fill="#d6b064"/>
    <rect x="5" y="1" width="2" height="2" fill="#d6b064"/>
    <rect x="6" y="0" width="1" height="1" fill="#8e2233"/>
  </g>

  <g transform="translate(44 0)">
    <rect x="8" y="1" width="3" height="1" fill="#ffd173"/>
    <rect x="9" y="0" width="1" height="3" fill="#ffd173"/>
    <polygon points="5,1 8,5 7,10 4,11 2,8 2,5" fill="#ff9c32"/>
    <polygon points="5,3 6,6 5,9 4,7 3,6" fill="#ffe59f"/>
  </g>
</svg>
