<svg xmlns="http://www.w3.org/2000/svg" width="48" height="16" viewBox="0 0 48 16" shape-rendering="crispEdges">
  <g transform="translate(0 0)">
    <rect width="16" height="16" fill="#201820"/>
    <rect x="1" y="1" width="14" height="14" fill="#2e2330"/>
    <rect x="2" y="2" width="12" height="2" fill="#3c3140"/>
    <rect x="2" y="10" width="12" height="1" fill="#3c3140"/>
    <rect x="3" y="13" width="10" height="1" fill="#5f2d47"/>
    <rect x="4" y="5" width="1" height="5" fill="#181018"/>
    <rect x="9" y="7" width="4" height="1" fill="#181018"/>
  </g>

  <g transform="translate(16 0)">
    <rect width="16" height="16" fill="#17131a"/>
    <rect x="1" y="1" width="14" height="14" fill="#53495c"/>
    <rect x="2" y="2" width="12" height="2" fill="#72667d"/>
    <rect x="2" y="12" width="12" height="2" fill="#72667d"/>
    <rect x="3" y="4" width="3" height="8" fill="#403848"/>
    <rect x="10" y="4" width="3" height="8" fill="#403848"/>
    <rect x="7" y="5" width="2" height="6" fill="#8a2f56"/>
    <rect x="2" y="4" width="1" height="8" fill="#a98fae"/>
    <rect x="13" y="4" width="1" height="8" fill="#a98fae"/>
  </g>

  <g transform="translate(32 0)">
    <rect width="16" height="16" fill="#120d0f"/>
    <polygon points="8,1 14,5 12,14 4,14 2,5" fill="#4b3021"/>
    <polygon points="8,3 12,6 11,12 5,12 4,6" fill="#6a432f"/>
    <rect x="7" y="5" width="2" height="6" fill="#d7c6a0"/>
    <rect x="5" y="7" width="6" height="2" fill="#d7c6a0"/>
  </g>
</svg>
