<svg xmlns="http://www.w3.org/2000/svg" width="48" height="16" viewBox="0 0 48 16" shape-rendering="crispEdges">
  <g transform="translate(0 0)">
    <rect width="16" height="16" fill="#232726"/>
    <rect x="1" y="1" width="14" height="14" fill="#2d3331"/>
    <rect x="2" y="2" width="12" height="12" fill="#353c39"/>
    <rect x="4" y="2" width="1" height="4" fill="#1a1e1d"/>
    <rect x="10" y="5" width="1" height="5" fill="#1a1e1d"/>
    <rect x="7" y="10" width="4" height="1" fill="#1a1e1d"/>
    <rect x="2" y="7" width="2" height="1" fill="#b38c3e" fill-opacity="0.45"/>
    <rect x="12" y="12" width="2" height="1" fill="#b38c3e" fill-opacity="0.35"/>
    <rect x="5" y="13" width="5" height="1" fill="#4a524f"/>
  </g>

  <g transform="translate(16 0)">
    <rect width="16" height="16" fill="#151917"/>
    <rect x="1" y="1" width="14" height="14" fill="#6f736f"/>
    <rect x="1" y="12" width="14" height="3" fill="#4f5652"/>
    <rect x="2" y="3" width="12" height="2" fill="#8e9792"/>
    <rect x="2" y="6" width="12" height="1" fill="#545c58"/>
    <rect x="2" y="8" width="12" height="1" fill="#d2a446"/>
    <rect x="2" y="9" width="12" height="1" fill="#262a27"/>
    <rect x="2" y="10" width="12" height="1" fill="#d2a446"/>
    <rect x="3" y="11" width="10" height="1" fill="#262a27"/>
    <rect x="4" y="4" width="1" height="8" fill="#b9c3bd"/>
    <rect x="11" y="4" width="1" height="8" fill="#b9c3bd"/>
  </g>

  <g transform="translate(32 0)">
    <rect width="16" height="16" fill="#18120d"/>
    <rect x="2" y="2" width="12" height="12" fill="#704a2f"/>
    <rect x="3" y="3" width="10" height="10" fill="#8a5a37"/>
    <rect x="3" y="7" width="10" height="2" fill="#6a452b"/>
    <rect x="7" y="3" width="2" height="10" fill="#6a452b"/>
    <rect x="4" y="4" width="2" height="2" fill="#ccb07a"/>
    <rect x="10" y="10" width="2" height="2" fill="#ccb07a"/>
    <rect x="10" y="3" width="3" height="3" fill="#c43a2d"/>
    <rect x="11" y="4" width="1" height="1" fill="#f0e6c8"/>
  </g>
</svg>
