<svg xmlns="http://www.w3.org/2000/svg" width="48" height="16" viewBox="0 0 48 16" shape-rendering="crispEdges">
  <g transform="translate(0 0)">
    <rect width="16" height="16" fill="#232726"/>
    <rect x="1" y="1" width="14" height="14" fill="#2d3331"/>
    <rect x="2" y="2" width="12" height="12" fill="#353c39"/>
    <rect x="4" y="2" width="1" height="4" fill="#1a1e1d"/>
    <rect x="10" y="5" width="1" height="5" fill="#1a1e1d"/>
    <rect x="7" y="10" width="4" height="1" fill="#1a1e1d"/>
    <rect x="2" y="7" width="2" height="1" fill="#b38c3e" fill-opacity="0.45"/>
    <rect x="12" y="12" width="2" height="1" fill="#b38c3e" fill-opacity="0.35"/>
    <rect x="5" y="13" width="5" height="1" fill="#4a524f"/>
  </g>

  <g transform="translate(16 0)">
    <rect width="16" height="16" fill="#111513"/>
    <rect x="1" y="1" width="14" height="14" fill="#4b514d"/>
    <rect x="1" y="1" width="14" height="2" fill="#7c847d"/>
    <rect x="1" y="3" width="14" height="1" fill="#2b302d"/>
    <rect x="1" y="5" width="14" height="1" fill="#2f3531"/>
    <rect x="1" y="9" width="14" height="1" fill="#2f3531"/>
    <rect x="1" y="13" width="14" height="1" fill="#2f3531"/>
    <rect x="1" y="14" width="14" height="1" fill="#222725"/>
    <rect x="1" y="4" width="4" height="1" fill="#676e69"/>
    <rect x="6" y="4" width="4" height="1" fill="#676e69"/>
    <rect x="11" y="4" width="4" height="1" fill="#676e69"/>
    <rect x="1" y="6" width="2" height="3" fill="#5f6661"/>
    <rect x="4" y="6" width="4" height="3" fill="#5b615d"/>
    <rect x="9" y="6" width="4" height="3" fill="#616863"/>
    <rect x="14" y="6" width="1" height="3" fill="#555c58"/>
    <rect x="1" y="10" width="4" height="3" fill="#5d645f"/>
    <rect x="6" y="10" width="4" height="3" fill="#676e69"/>
    <rect x="11" y="10" width="4" height="3" fill="#5a605c"/>
    <rect x="3" y="6" width="1" height="3" fill="#353b37"/>
    <rect x="8" y="6" width="1" height="3" fill="#353b37"/>
    <rect x="13" y="6" width="1" height="3" fill="#353b37"/>
    <rect x="5" y="10" width="1" height="3" fill="#353b37"/>
    <rect x="10" y="10" width="1" height="3" fill="#353b37"/>
    <rect x="4" y="7" width="1" height="1" fill="#88918a"/>
    <rect x="12" y="11" width="2" height="1" fill="#88918a"/>
    <rect x="7" y="11" width="1" height="1" fill="#1d2120"/>
    <rect x="2" y="12" width="1" height="1" fill="#1d2120"/>
  </g>

  <g transform="translate(32 0)">
    <rect x="2" y="12" width="12" height="2" fill="#181b1a" fill-opacity="0.72"/>
    <rect x="4" y="6" width="3" height="6" fill="#4f5652"/>
    <rect x="7" y="5" width="3" height="6" fill="#6c7570"/>
    <rect x="10" y="7" width="3" height="5" fill="#5a625d"/>
    <rect x="2" y="9" width="3" height="3" fill="#616963"/>
    <rect x="5" y="10" width="4" height="3" fill="#747d77"/>
    <rect x="9" y="10" width="5" height="3" fill="#666e69"/>
    <rect x="6" y="4" width="2" height="2" fill="#7d8781"/>
    <rect x="9" y="5" width="2" height="2" fill="#77807a"/>
    <rect x="4" y="8" width="1" height="4" fill="#2d312f"/>
    <rect x="11" y="8" width="1" height="4" fill="#2d312f"/>
    <polygon points="5,11 9,7 10,8 6,12" fill="#78533b"/>
    <polygon points="8,8 12,9 11,12 7,11" fill="#c85232"/>
    <rect x="8" y="9" width="3" height="1" fill="#f0be5a"/>
    <rect x="7" y="10" width="1" height="1" fill="#88918a"/>
    <rect x="12" y="10" width="1" height="1" fill="#88918a"/>
    <rect x="6" y="12" width="3" height="1" fill="#2c302e"/>
  </g>
</svg>
