<svg xmlns="http://www.w3.org/2000/svg" width="66" height="12" viewBox="0 0 66 12" shape-rendering="crispEdges">
  <g transform="translate(0 0)">
    <rect x="1" y="1" width="8" height="7" fill="#8b1f1f"/>
    <rect x="2" y="2" width="6" height="5" fill="#d93d39"/>
    <rect x="3" y="0" width="4" height="2" fill="#7f8f88"/>
    <rect x="4" y="3" width="2" height="3" fill="#f6f0d2"/>
    <rect x="3" y="4" width="4" height="1" fill="#f6f0d2"/>
  </g>

  <g transform="translate(10 0)">
    <rect x="1" y="1" width="8" height="7" fill="#303633"/>
    <rect x="2" y="2" width="6" height="5" fill="#59635e"/>
    <rect x="3" y="0" width="4" height="2" fill="#7f8f88"/>
    <rect x="4" y="3" width="2" height="3" fill="#c8d0cb" fill-opacity="0.5"/>
    <rect x="3" y="4" width="4" height="1" fill="#c8d0cb" fill-opacity="0.5"/>
  </g>

  <g transform="translate(20 0)" fill="#f0be5a">
    <rect x="0" y="3" width="6" height="2"/>
    <rect x="2" y="1" width="4" height="2"/>
    <rect x="10" y="3" width="6" height="2"/>
    <rect x="10" y="5" width="4" height="2"/>
    <rect x="4" y="3" width="3" height="2"/>
    <rect x="9" y="3" width="3" height="2"/>
  </g>

  <g transform="translate(38 0)">
    <rect x="1" y="3" width="3" height="4" fill="#8a9a90"/>
    <rect x="4" y="2" width="2" height="6" fill="#a0b0a6"/>
    <rect x="6" y="1" width="3" height="8" fill="#c8d4cc"/>
    <rect x="9" y="2" width="2" height="6" fill="#b0c0b6"/>
    <rect x="11" y="3" width="1" height="1" fill="#e8dcc4"/>
    <rect x="11" y="5" width="1" height="1" fill="#e8dcc4"/>
    <rect x="11" y="7" width="1" height="1" fill="#e8dcc4" fill-opacity="0.5"/>
  </g>

  <g transform="translate(52 0)">
    <rect x="1" y="3" width="3" height="4" fill="#5a6a60"/>
    <rect x="4" y="2" width="2" height="6" fill="#606e66"/>
    <rect x="6" y="1" width="3" height="8" fill="#768a80"/>
    <rect x="9" y="2" width="2" height="6" fill="#6a7a72"/>
    <rect x="11" y="3" width="1" height="4" fill="#c44d2d"/>
    <rect x="12" y="2" width="1" height="1" fill="#c44d2d"/>
    <rect x="10" y="1" width="1" height="1" fill="#c44d2d"/>
  </g>
</svg>
