<svg xmlns="http://www.w3.org/2000/svg" width="304" height="790" viewBox="0 0 304 790" shape-rendering="crispEdges">
  <g transform="translate(0 0)">
    <rect width="304" height="40" fill="#171c1a"/>
    <rect y="1" width="304" height="2" fill="#3a4740"/>
    <rect y="36" width="304" height="4" fill="#0c0f0d"/>
    <rect y="34" width="304" height="2" fill="#cf9a3c"/>
    <rect x="6" y="6" width="58" height="24" fill="#1f2623"/>
    <rect x="72" y="6" width="146" height="24" fill="#1d2421"/>
    <rect x="226" y="6" width="72" height="24" fill="#1f2623"/>
    <rect x="6" y="6" width="58" height="2" fill="#5c6962"/>
    <rect x="72" y="6" width="146" height="2" fill="#5c6962"/>
    <rect x="226" y="6" width="72" height="2" fill="#5c6962"/>
    <rect x="6" y="28" width="58" height="2" fill="#101412"/>
    <rect x="72" y="28" width="146" height="2" fill="#101412"/>
    <rect x="226" y="28" width="72" height="2" fill="#101412"/>
    <rect x="72" y="12" width="146" height="1" fill="#cf9a3c" fill-opacity="0.65"/>
    <rect x="72" y="23" width="146" height="1" fill="#cf9a3c" fill-opacity="0.32"/>
    <rect x="18" y="10" width="34" height="2" fill="#cf9a3c" fill-opacity="0.7"/>
    <rect x="232" y="10" width="6" height="16" fill="#cf9a3c" fill-opacity="0.7"/>
  </g>

  <g transform="translate(0 40)">
    <rect width="220" height="70" fill="none"/>
    <rect x="32" y="14" width="156" height="42" fill="#101412"/>
    <rect x="34" y="16" width="152" height="38" fill="none" stroke="#5d6962" stroke-width="2"/>
    <rect x="40" y="20" width="140" height="30" fill="#1b211e"/>
    <rect x="40" y="20" width="140" height="5" fill="#cf9a3c"/>
    <rect x="48" y="28" width="124" height="14" fill="#313a35"/>
    <rect x="48" y="44" width="124" height="3" fill="#151917"/>
    <rect x="54" y="30" width="112" height="2" fill="#707b75"/>
    <rect x="54" y="39" width="112" height="2" fill="#707b75"/>
    <rect x="24" y="25" width="8" height="18" fill="#202622"/>
    <rect x="188" y="25" width="8" height="18" fill="#202622"/>
    <rect x="22" y="27" width="2" height="14" fill="#cf9a3c"/>
    <rect x="196" y="27" width="2" height="14" fill="#cf9a3c"/>
    <rect x="58" y="23" width="18" height="2" fill="#f0be5a" fill-opacity="0.8"/>
    <rect x="144" y="23" width="18" height="2" fill="#f0be5a" fill-opacity="0.8"/>
  </g>

  <g transform="translate(0 110)">
    <rect width="154" height="28" fill="#141816"/>
    <rect x="1" y="1" width="152" height="26" fill="none" stroke="#49534e" stroke-width="2"/>
    <rect x="4" y="4" width="146" height="20" fill="#252c28"/>
    <rect x="10" y="4" width="14" height="20" fill="#121614"/>
    <rect x="130" y="4" width="14" height="20" fill="#121614"/>
    <rect x="4" y="4" width="146" height="2" fill="#6c7770"/>
    <rect x="4" y="22" width="146" height="2" fill="#0f1210"/>
  </g>

  <g transform="translate(0 138)">
    <rect width="154" height="28" fill="#171b19"/>
    <rect x="1" y="1" width="152" height="26" fill="none" stroke="#cb6a43" stroke-width="2"/>
    <rect x="4" y="4" width="146" height="20" fill="#2b342f"/>
    <rect x="4" y="4" width="16" height="20" fill="#c44d2d"/>
    <rect x="20" y="4" width="4" height="20" fill="#151917"/>
    <rect x="24" y="4" width="126" height="2" fill="#95a39c"/>
    <rect x="24" y="22" width="126" height="2" fill="#101412"/>
    <rect x="132" y="8" width="10" height="3" fill="#cf9a3c"/>
    <rect x="132" y="16" width="10" height="3" fill="#cf9a3c"/>
    <rect x="126" y="8" width="4" height="3" fill="#4e5954"/>
    <rect x="126" y="16" width="4" height="3" fill="#4e5954"/>
  </g>

  <g transform="translate(0 350)">
    <rect width="120" height="24" fill="#141816"/>
    <rect x="1" y="1" width="118" height="22" fill="none" stroke="#49534e" stroke-width="2"/>
    <rect x="4" y="4" width="112" height="16" fill="#252c28"/>
    <rect x="8" y="4" width="12" height="16" fill="#121614"/>
    <rect x="100" y="4" width="12" height="16" fill="#121614"/>
    <rect x="4" y="4" width="112" height="2" fill="#6c7770"/>
    <rect x="4" y="18" width="112" height="2" fill="#0f1210"/>
  </g>

  <g transform="translate(0 374)">
    <rect width="120" height="24" fill="#171b19"/>
    <rect x="1" y="1" width="118" height="22" fill="none" stroke="#cb6a43" stroke-width="2"/>
    <rect x="4" y="4" width="112" height="16" fill="#2b342f"/>
    <rect x="4" y="4" width="12" height="16" fill="#c44d2d"/>
    <rect x="16" y="4" width="3" height="16" fill="#151917"/>
    <rect x="19" y="4" width="97" height="2" fill="#95a39c"/>
    <rect x="19" y="18" width="97" height="2" fill="#101412"/>
    <rect x="101" y="7" width="8" height="2" fill="#cf9a3c"/>
    <rect x="101" y="14" width="8" height="2" fill="#cf9a3c"/>
    <rect x="96" y="7" width="3" height="2" fill="#4e5954"/>
    <rect x="96" y="14" width="3" height="2" fill="#4e5954"/>
  </g>

  <g transform="translate(0 398)">
    <rect width="280" height="184" fill="#101412"/>
    <rect x="1" y="1" width="278" height="182" fill="none" stroke="#5a6660" stroke-width="2"/>
    <rect x="6" y="6" width="268" height="172" fill="#1b201d"/>
    <rect x="6" y="6" width="268" height="8" fill="#cf9a3c"/>
    <rect x="14" y="28" width="252" height="2" fill="#58635d"/>
    <rect x="14" y="36" width="252" height="122" fill="#252c28"/>
    <rect x="14" y="162" width="252" height="2" fill="#58635d"/>
  </g>

  <g transform="translate(0 582)">
    <rect width="240" height="208" fill="#0f1311"/>
    <rect x="1" y="1" width="238" height="206" fill="none" stroke="#5f6d66" stroke-width="2"/>
    <rect x="6" y="6" width="228" height="196" fill="#1b211d"/>
    <rect x="6" y="6" width="228" height="8" fill="#cf9a3c"/>
    <rect x="16" y="26" width="208" height="152" fill="#262d29"/>
    <rect x="16" y="182" width="208" height="2" fill="#4a5650"/>
    <rect x="16" y="186" width="208" height="2" fill="#111513"/>
  </g>
</svg>
