<svg xmlns="http://www.w3.org/2000/svg" width="144" height="192" viewBox="0 0 144 192" shape-rendering="crispEdges">
  <defs>
    <style>
      .bg { fill: none; }
    </style>
  </defs>
  <rect class="bg" x="0" y="0" width="144" height="192" />
  <g id="frame_0_0" transform="translate(0 0)">
    <path fill="#140c17" d="M10 3h1v1h-1z M13 3h1v1h-1z M8 4h1v1h-1z M15 4h1v1h-1z M7 5h1v1h-1z M16 5h1v1h-1z M6 6h1v1h-1z M7 6h1v1h-1z M8 6h1v1h-1z M15 6h1v1h-1z M16 6h1v1h-1z M17 6h1v1h-1z M5 7h1v1h-1z M6 7h1v1h-1z M7 7h1v1h-1z M8 7h1v1h-1z M9 7h1v1h-1z M10 7h1v1h-1z M11 7h1v1h-1z M12 7h1v1h-1z M13 7h1v1h-1z M14 7h1v1h-1z M15 7h1v1h-1z M16 7h1v1h-1z M17 7h1v1h-1z M18 7h1v1h-1z" />
    <path fill="#281a2b" d="M11 3h1v1h-1z M12 3h1v1h-1z M9 4h1v1h-1z M10 4h1v1h-1z M11 4h1v1h-1z M12 4h1v1h-1z M13 4h1v1h-1z M14 4h1v1h-1z M8 5h1v1h-1z M9 5h1v1h-1z M11 5h1v1h-1z M12 5h1v1h-1z M14 5h1v1h-1z M15 5h1v1h-1z M9 6h1v1h-1z M10 6h1v1h-1z M11 6h1v1h-1z M12 6h1v1h-1z M13 6h1v1h-1z M14 6h1v1h-1z" />
    <path fill="#412d45" d="M10 5h1v1h-1z M13 5h1v1h-1z" />
    <path fill="#ccab97" d="M7 8h1v1h-1z M16 8h1v1h-1z M10 9h1v1h-1z M13 9h1v1h-1z M11 10h1v1h-1z M12 10h1v1h-1z M4 16h1v1h-1z M5 16h1v1h-1z M18 16h1v1h-1z M19 16h1v1h-1z M4 17h1v1h-1z M5 17h1v1h-1z M18 17h1v1h-1z M19 17h1v1h-1z" />
    <path fill="#f0d9c7" d="M8 8h1v1h-1z M9 8h1v1h-1z M10 8h1v1h-1z M11 8h1v1h-1z M12 8h1v1h-1z M13 8h1v1h-1z M14 8h1v1h-1z M15 8h1v1h-1z M11 9h1v1h-1z M12 9h1v1h-1z M8 10h1v1h-1z M9 10h1v1h-1z M10 10h1v1h-1z M13 10h1v1h-1z M14 10h1v1h-1z M15 10h1v1h-1z" />
    <path fill="#9c7764" d="M7 9h1v1h-1z M16 9h1v1h-1z M7 10h1v1h-1z M16 10h1v1h-1z M8 11h1v1h-1z M15 11h1v1h-1z" />
    <path fill="#ffffff" d="M8 9h1v1h-1z M15 9h1v1h-1z" />
    <path fill="#3b9ca3" d="M9 9h1v1h-1z M14 9h1v1h-1z" />
    <path fill="#a8203c" d="M9 11h1v1h-1z M10 11h1v1h-1z M11 11h1v1h-1z M12 11h1v1h-1z M13 11h1v1h-1z M14 11h1v1h-1z M7 12h1v1h-1z M8 12h1v1h-1z M13 12h1v1h-1z M14 12h1v1h-1z M15 12h1v1h-1z M16 12h1v1h-1z M7 13h1v1h-1z M8 13h1v1h-1z M9 13h1v1h-1z M10 13h1v1h-1z M11 13h1v1h-1z M12 13h1v1h-1z M13 13h1v1h-1z M14 13h1v1h-1z M15 13h1v1h-1z M16 13h1v1h-1z" />
    <path fill="#e83858" d="M9 12h1v1h-1z M10 12h1v1h-1z M11 12h1v1h-1z M12 12h1v1h-1z" />
    <path fill="#631122" d="M6 13h1v1h-1z M17 13h1v1h-1z" />
    <path fill="#1a141b" d="M6 14h1v1h-1z M17 14h1v1h-1z M7 15h1v1h-1z M15 15h1v1h-1z M17 15h1v1h-1z M8 16h1v1h-1z M15 16h1v1h-1z M8 17h1v1h-1z M9 17h1v1h-1z M14 17h1v1h-1z M15 17h1v1h-1z M8 18h1v1h-1z M13 18h1v1h-1z M15 18h1v1h-1z" />
    <path fill="#2b232e" d="M7 14h1v1h-1z M8 14h1v1h-1z M9 14h1v1h-1z M10 14h1v1h-1z M11 14h1v1h-1z M13 14h1v1h-1z M14 14h1v1h-1z M15 14h1v1h-1z M16 14h1v1h-1z M5 15h1v1h-1z M6 15h1v1h-1z M9 15h1v1h-1z M10 15h1v1h-1z M11 15h1v1h-1z M12 15h1v1h-1z M13 15h1v1h-1z M14 15h1v1h-1z M16 15h1v1h-1z M18 15h1v1h-1z M19 15h1v1h-1z M9 16h1v1h-1z M10 16h1v1h-1z M13 16h1v1h-1z M14 16h1v1h-1z M10 17h1v1h-1z M13 17h1v1h-1z M9 18h1v1h-1z M10 18h1v1h-1z M11 18h1v1h-1z M12 18h1v1h-1z M14 18h1v1h-1z" />
    <path fill="#44384a" d="M12 14h1v1h-1z M8 15h1v1h-1z" />
    <path fill="#f0c756" d="M11 16h1v1h-1z M12 17h1v1h-1z" />
    <path fill="#a88122" d="M12 16h1v1h-1z M11 17h1v1h-1z" />
    <path fill="#110d12" d="M8 19h1v1h-1z M9 19h1v1h-1z M13 19h1v1h-1z M14 19h1v1h-1z M7 20h1v1h-1z M8 20h1v1h-1z M9 20h1v1h-1z M13 20h1v1h-1z M14 20h1v1h-1z M15 20h1v1h-1z" />
  </g>
  <g id="frame_0_1" transform="translate(24 0)">
    <path fill="#140c17" d="M10 3h1v1h-1z M13 3h1v1h-1z M8 4h1v1h-1z M15 4h1v1h-1z M7 5h1v1h-1z M16 5h1v1h-1z M6 6h1v1h-1z M7 6h1v1h-1z M8 6h1v1h-1z M15 6h1v1h-1z M16 6h1v1h-1z M17 6h1v1h-1z M5 7h1v1h-1z M6 7h1v1h-1z M7 7h1v1h-1z M8 7h1v1h-1z M9 7h1v1h-1z M10 7h1v1h-1z M11 7h1v1h-1z M12 7h1v1h-1z M13 7h1v1h-1z M14 7h1v1h-1z M15 7h1v1h-1z M16 7h1v1h-1z M17 7h1v1h-1z M18 7h1v1h-1z" />
    <path fill="#281a2b" d="M11 3h1v1h-1z M12 3h1v1h-1z M9 4h1v1h-1z M10 4h1v1h-1z M11 4h1v1h-1z M12 4h1v1h-1z M13 4h1v1h-1z M14 4h1v1h-1z M8 5h1v1h-1z M9 5h1v1h-1z M11 5h1v1h-1z M12 5h1v1h-1z M14 5h1v1h-1z M15 5h1v1h-1z M9 6h1v1h-1z M10 6h1v1h-1z M11 6h1v1h-1z M12 6h1v1h-1z M13 6h1v1h-1z M14 6h1v1h-1z" />
    <path fill="#412d45" d="M10 5h1v1h-1z M13 5h1v1h-1z" />
    <path fill="#ccab97" d="M7 8h1v1h-1z M16 8h1v1h-1z M10 9h1v1h-1z M13 9h1v1h-1z M11 10h1v1h-1z M12 10h1v1h-1z M4 16h1v1h-1z M5 16h1v1h-1z M18 16h1v1h-1z M19 16h1v1h-1z M4 17h1v1h-1z M5 17h1v1h-1z M18 17h1v1h-1z M19 17h1v1h-1z" />
    <path fill="#f0d9c7" d="M8 8h1v1h-1z M9 8h1v1h-1z M10 8h1v1h-1z M11 8h1v1h-1z M12 8h1v1h-1z M13 8h1v1h-1z M14 8h1v1h-1z M15 8h1v1h-1z M11 9h1v1h-1z M12 9h1v1h-1z M8 10h1v1h-1z M9 10h1v1h-1z M10 10h1v1h-1z M13 10h1v1h-1z M14 10h1v1h-1z M15 10h1v1h-1z" />
    <path fill="#9c7764" d="M7 9h1v1h-1z M16 9h1v1h-1z M7 10h1v1h-1z M16 10h1v1h-1z M8 11h1v1h-1z M15 11h1v1h-1z" />
    <path fill="#ffffff" d="M8 9h1v1h-1z M15 9h1v1h-1z" />
    <path fill="#3b9ca3" d="M9 9h1v1h-1z M14 9h1v1h-1z" />
    <path fill="#a8203c" d="M9 11h1v1h-1z M10 11h1v1h-1z M11 11h1v1h-1z M12 11h1v1h-1z M13 11h1v1h-1z M14 11h1v1h-1z M8 12h1v1h-1z M13 12h1v1h-1z M14 12h1v1h-1z M15 12h1v1h-1z M8 13h1v1h-1z M9 13h1v1h-1z M10 13h1v1h-1z M11 13h1v1h-1z M12 13h1v1h-1z M13 13h1v1h-1z M14 13h1v1h-1z M15 13h1v1h-1z" />
    <path fill="#e83858" d="M9 12h1v1h-1z M10 12h1v1h-1z M11 12h1v1h-1z M12 12h1v1h-1z" />
    <path fill="#631122" d="M7 13h1v1h-1z M16 13h1v1h-1z" />
    <path fill="#1a141b" d="M6 14h1v1h-1z M17 14h1v1h-1z M7 15h1v1h-1z M15 15h1v1h-1z M17 15h1v1h-1z M8 16h1v1h-1z M15 16h1v1h-1z M8 17h1v1h-1z M9 17h1v1h-1z M14 17h1v1h-1z M15 17h1v1h-1z M8 18h1v1h-1z M9 18h1v1h-1z M12 18h1v1h-1z M13 18h1v1h-1z M15 18h1v1h-1z" />
    <path fill="#2b232e" d="M7 14h1v1h-1z M8 14h1v1h-1z M9 14h1v1h-1z M10 14h1v1h-1z M11 14h1v1h-1z M13 14h1v1h-1z M14 14h1v1h-1z M15 14h1v1h-1z M16 14h1v1h-1z M5 15h1v1h-1z M6 15h1v1h-1z M9 15h1v1h-1z M10 15h1v1h-1z M11 15h1v1h-1z M12 15h1v1h-1z M13 15h1v1h-1z M14 15h1v1h-1z M16 15h1v1h-1z M18 15h1v1h-1z M19 15h1v1h-1z M9 16h1v1h-1z M10 16h1v1h-1z M13 16h1v1h-1z M14 16h1v1h-1z M10 17h1v1h-1z M13 17h1v1h-1z M10 18h1v1h-1z M11 18h1v1h-1z M14 18h1v1h-1z" />
    <path fill="#44384a" d="M12 14h1v1h-1z M8 15h1v1h-1z" />
    <path fill="#f0c756" d="M11 16h1v1h-1z M12 17h1v1h-1z" />
    <path fill="#a88122" d="M12 16h1v1h-1z M11 17h1v1h-1z" />
    <path fill="#110d12" d="M8 19h1v1h-1z M9 19h1v1h-1z M13 19h1v1h-1z M14 19h1v1h-1z M7 20h1v1h-1z M8 20h1v1h-1z M9 20h1v1h-1z M13 20h1v1h-1z M14 20h1v1h-1z M15 20h1v1h-1z" />
  </g>
  <g id="frame_1_0" transform="translate(0 24)">
    <path fill="#140c17" d="M10 2h1v1h-1z M13 2h1v1h-1z M8 3h1v1h-1z M15 3h1v1h-1z M7 4h1v1h-1z M16 4h1v1h-1z M6 5h1v1h-1z M7 5h1v1h-1z M8 5h1v1h-1z M15 5h1v1h-1z M16 5h1v1h-1z M17 5h1v1h-1z M5 6h1v1h-1z M6 6h1v1h-1z M7 6h1v1h-1z M8 6h1v1h-1z M9 6h1v1h-1z M10 6h1v1h-1z M11 6h1v1h-1z M12 6h1v1h-1z M13 6h1v1h-1z M14 6h1v1h-1z M15 6h1v1h-1z M16 6h1v1h-1z M17 6h1v1h-1z M18 6h1v1h-1z" />
    <path fill="#281a2b" d="M11 2h1v1h-1z M12 2h1v1h-1z M9 3h1v1h-1z M10 3h1v1h-1z M12 3h1v1h-1z M13 3h1v1h-1z M14 3h1v1h-1z M8 4h1v1h-1z M9 4h1v1h-1z M10 4h1v1h-1z M11 4h1v1h-1z M12 4h1v1h-1z M13 4h1v1h-1z M15 4h1v1h-1z M9 5h1v1h-1z M10 5h1v1h-1z M11 5h1v1h-1z M12 5h1v1h-1z M13 5h1v1h-1z M14 5h1v1h-1z" />
    <path fill="#412d45" d="M11 3h1v1h-1z M14 4h1v1h-1z" />
    <path fill="#ccab97" d="M7 7h1v1h-1z M16 7h1v1h-1z M10 8h1v1h-1z M13 8h1v1h-1z M11 9h1v1h-1z M12 9h1v1h-1z M4 14h1v1h-1z M5 14h1v1h-1z M4 15h1v1h-1z M5 15h1v1h-1z M18 15h1v1h-1z M19 15h1v1h-1z" />
    <path fill="#f0d9c7" d="M8 7h1v1h-1z M9 7h1v1h-1z M10 7h1v1h-1z M11 7h1v1h-1z M12 7h1v1h-1z M13 7h1v1h-1z M14 7h1v1h-1z M15 7h1v1h-1z M11 8h1v1h-1z M12 8h1v1h-1z M8 9h1v1h-1z M9 9h1v1h-1z M10 9h1v1h-1z M13 9h1v1h-1z M14 9h1v1h-1z M15 9h1v1h-1z" />
    <path fill="#9c7764" d="M7 8h1v1h-1z M16 8h1v1h-1z M7 9h1v1h-1z M16 9h1v1h-1z" />
    <path fill="#ffffff" d="M8 8h1v1h-1z M15 8h1v1h-1z" />
    <path fill="#3b9ca3" d="M9 8h1v1h-1z M14 8h1v1h-1z" />
    <path fill="#631122" d="M8 10h1v1h-1z M14 10h1v1h-1z M6 12h1v1h-1z M17 12h1v1h-1z" />
    <path fill="#a8203c" d="M9 10h1v1h-1z M10 10h1v1h-1z M11 10h1v1h-1z M12 10h1v1h-1z M13 10h1v1h-1z M7 11h1v1h-1z M8 11h1v1h-1z M13 11h1v1h-1z M14 11h1v1h-1z M15 11h1v1h-1z M16 11h1v1h-1z M7 12h1v1h-1z M8 12h1v1h-1z M9 12h1v1h-1z M10 12h1v1h-1z M11 12h1v1h-1z M12 12h1v1h-1z M13 12h1v1h-1z M14 12h1v1h-1z M15 12h1v1h-1z M16 12h1v1h-1z" />
    <path fill="#e83858" d="M9 11h1v1h-1z M10 11h1v1h-1z M11 11h1v1h-1z M12 11h1v1h-1z" />
    <path fill="#2b232e" d="M5 13h1v1h-1z M6 13h1v1h-1z M8 13h1v1h-1z M9 13h1v1h-1z M10 13h1v1h-1z M12 13h1v1h-1z M13 13h1v1h-1z M14 13h1v1h-1z M15 13h1v1h-1z M16 13h1v1h-1z M9 14h1v1h-1z M10 14h1v1h-1z M11 14h1v1h-1z M12 14h1v1h-1z M13 14h1v1h-1z M14 14h1v1h-1z M16 14h1v1h-1z M18 14h1v1h-1z M9 15h1v1h-1z M10 15h1v1h-1z M13 15h1v1h-1z M14 15h1v1h-1z M10 16h1v1h-1z M13 16h1v1h-1z M9 17h1v1h-1z M10 17h1v1h-1z M11 17h1v1h-1z M12 17h1v1h-1z" />
    <path fill="#1a141b" d="M7 13h1v1h-1z M17 13h1v1h-1z M7 14h1v1h-1z M15 14h1v1h-1z M17 14h1v1h-1z M8 15h1v1h-1z M15 15h1v1h-1z M8 16h1v1h-1z M9 16h1v1h-1z M14 16h1v1h-1z M15 16h1v1h-1z M8 17h1v1h-1z M13 17h1v1h-1z M13 18h1v1h-1z M14 18h1v1h-1z" />
    <path fill="#44384a" d="M11 13h1v1h-1z M8 14h1v1h-1z" />
    <path fill="#f0c756" d="M11 15h1v1h-1z M12 16h1v1h-1z" />
    <path fill="#a88122" d="M12 15h1v1h-1z M11 16h1v1h-1z" />
    <path fill="#110d12" d="M8 18h1v1h-1z M9 18h1v1h-1z M7 19h1v1h-1z M8 19h1v1h-1z M9 19h1v1h-1z M13 19h1v1h-1z M14 19h1v1h-1z M13 20h1v1h-1z M14 20h1v1h-1z M15 20h1v1h-1z" />
  </g>
  <g id="frame_1_1" transform="translate(24 24)">
    <path fill="#140c17" d="M10 3h1v1h-1z M13 3h1v1h-1z M8 4h1v1h-1z M15 4h1v1h-1z M7 5h1v1h-1z M16 5h1v1h-1z M6 6h1v1h-1z M7 6h1v1h-1z M8 6h1v1h-1z M15 6h1v1h-1z M16 6h1v1h-1z M17 6h1v1h-1z M5 7h1v1h-1z M6 7h1v1h-1z M7 7h1v1h-1z M8 7h1v1h-1z M9 7h1v1h-1z M10 7h1v1h-1z M11 7h1v1h-1z M12 7h1v1h-1z M13 7h1v1h-1z M14 7h1v1h-1z M15 7h1v1h-1z M16 7h1v1h-1z M17 7h1v1h-1z M18 7h1v1h-1z" />
    <path fill="#281a2b" d="M11 3h1v1h-1z M12 3h1v1h-1z M9 4h1v1h-1z M10 4h1v1h-1z M11 4h1v1h-1z M12 4h1v1h-1z M13 4h1v1h-1z M14 4h1v1h-1z M8 5h1v1h-1z M9 5h1v1h-1z M11 5h1v1h-1z M12 5h1v1h-1z M14 5h1v1h-1z M15 5h1v1h-1z M9 6h1v1h-1z M10 6h1v1h-1z M11 6h1v1h-1z M12 6h1v1h-1z M13 6h1v1h-1z M14 6h1v1h-1z" />
    <path fill="#412d45" d="M10 5h1v1h-1z M13 5h1v1h-1z" />
    <path fill="#ccab97" d="M7 8h1v1h-1z M16 8h1v1h-1z M10 9h1v1h-1z M13 9h1v1h-1z M11 10h1v1h-1z M12 10h1v1h-1z M4 16h1v1h-1z M5 16h1v1h-1z M18 16h1v1h-1z M19 16h1v1h-1z M4 17h1v1h-1z M5 17h1v1h-1z M18 17h1v1h-1z M19 17h1v1h-1z" />
    <path fill="#f0d9c7" d="M8 8h1v1h-1z M9 8h1v1h-1z M10 8h1v1h-1z M11 8h1v1h-1z M12 8h1v1h-1z M13 8h1v1h-1z M14 8h1v1h-1z M15 8h1v1h-1z M11 9h1v1h-1z M12 9h1v1h-1z M8 10h1v1h-1z M9 10h1v1h-1z M10 10h1v1h-1z M13 10h1v1h-1z M14 10h1v1h-1z M15 10h1v1h-1z" />
    <path fill="#9c7764" d="M7 9h1v1h-1z M16 9h1v1h-1z M7 10h1v1h-1z M16 10h1v1h-1z M8 11h1v1h-1z M15 11h1v1h-1z" />
    <path fill="#ffffff" d="M8 9h1v1h-1z M15 9h1v1h-1z" />
    <path fill="#3b9ca3" d="M9 9h1v1h-1z M14 9h1v1h-1z" />
    <path fill="#a8203c" d="M9 11h1v1h-1z M10 11h1v1h-1z M11 11h1v1h-1z M12 11h1v1h-1z M13 11h1v1h-1z M14 11h1v1h-1z M8 12h1v1h-1z M13 12h1v1h-1z M14 12h1v1h-1z M15 12h1v1h-1z M8 13h1v1h-1z M9 13h1v1h-1z M10 13h1v1h-1z M11 13h1v1h-1z M12 13h1v1h-1z M13 13h1v1h-1z M14 13h1v1h-1z M15 13h1v1h-1z" />
    <path fill="#e83858" d="M9 12h1v1h-1z M10 12h1v1h-1z M11 12h1v1h-1z M12 12h1v1h-1z" />
    <path fill="#631122" d="M7 13h1v1h-1z M16 13h1v1h-1z" />
    <path fill="#1a141b" d="M6 14h1v1h-1z M17 14h1v1h-1z M7 15h1v1h-1z M15 15h1v1h-1z M17 15h1v1h-1z M8 16h1v1h-1z M15 16h1v1h-1z M8 17h1v1h-1z M9 17h1v1h-1z M14 17h1v1h-1z M15 17h1v1h-1z M8 18h1v1h-1z M9 18h1v1h-1z M12 18h1v1h-1z M13 18h1v1h-1z M15 18h1v1h-1z" />
    <path fill="#2b232e" d="M7 14h1v1h-1z M8 14h1v1h-1z M9 14h1v1h-1z M10 14h1v1h-1z M11 14h1v1h-1z M13 14h1v1h-1z M14 14h1v1h-1z M15 14h1v1h-1z M16 14h1v1h-1z M5 15h1v1h-1z M6 15h1v1h-1z M9 15h1v1h-1z M10 15h1v1h-1z M11 15h1v1h-1z M12 15h1v1h-1z M13 15h1v1h-1z M14 15h1v1h-1z M16 15h1v1h-1z M18 15h1v1h-1z M19 15h1v1h-1z M9 16h1v1h-1z M10 16h1v1h-1z M13 16h1v1h-1z M14 16h1v1h-1z M10 17h1v1h-1z M13 17h1v1h-1z M10 18h1v1h-1z M11 18h1v1h-1z M14 18h1v1h-1z" />
    <path fill="#44384a" d="M12 14h1v1h-1z M8 15h1v1h-1z" />
    <path fill="#f0c756" d="M11 16h1v1h-1z M12 17h1v1h-1z" />
    <path fill="#a88122" d="M12 16h1v1h-1z M11 17h1v1h-1z" />
    <path fill="#110d12" d="M8 19h1v1h-1z M9 19h1v1h-1z M13 19h1v1h-1z M14 19h1v1h-1z M7 20h1v1h-1z M8 20h1v1h-1z M9 20h1v1h-1z M13 20h1v1h-1z M14 20h1v1h-1z M15 20h1v1h-1z" />
  </g>
  <g id="frame_1_2" transform="translate(48 24)">
    <path fill="#140c17" d="M10 2h1v1h-1z M13 2h1v1h-1z M8 3h1v1h-1z M15 3h1v1h-1z M7 4h1v1h-1z M16 4h1v1h-1z M6 5h1v1h-1z M7 5h1v1h-1z M8 5h1v1h-1z M15 5h1v1h-1z M16 5h1v1h-1z M17 5h1v1h-1z M5 6h1v1h-1z M6 6h1v1h-1z M7 6h1v1h-1z M8 6h1v1h-1z M9 6h1v1h-1z M10 6h1v1h-1z M11 6h1v1h-1z M12 6h1v1h-1z M13 6h1v1h-1z M14 6h1v1h-1z M15 6h1v1h-1z M16 6h1v1h-1z M17 6h1v1h-1z M18 6h1v1h-1z" />
    <path fill="#281a2b" d="M11 2h1v1h-1z M12 2h1v1h-1z M9 3h1v1h-1z M10 3h1v1h-1z M11 3h1v1h-1z M13 3h1v1h-1z M14 3h1v1h-1z M8 4h1v1h-1z M10 4h1v1h-1z M11 4h1v1h-1z M12 4h1v1h-1z M13 4h1v1h-1z M14 4h1v1h-1z M15 4h1v1h-1z M9 5h1v1h-1z M10 5h1v1h-1z M11 5h1v1h-1z M12 5h1v1h-1z M13 5h1v1h-1z M14 5h1v1h-1z" />
    <path fill="#412d45" d="M12 3h1v1h-1z M9 4h1v1h-1z" />
    <path fill="#ccab97" d="M7 7h1v1h-1z M16 7h1v1h-1z M10 8h1v1h-1z M13 8h1v1h-1z M11 9h1v1h-1z M12 9h1v1h-1z M18 14h1v1h-1z M19 14h1v1h-1z M4 15h1v1h-1z M5 15h1v1h-1z M18 15h1v1h-1z M19 15h1v1h-1z" />
    <path fill="#f0d9c7" d="M8 7h1v1h-1z M9 7h1v1h-1z M10 7h1v1h-1z M11 7h1v1h-1z M12 7h1v1h-1z M13 7h1v1h-1z M14 7h1v1h-1z M15 7h1v1h-1z M11 8h1v1h-1z M12 8h1v1h-1z M8 9h1v1h-1z M9 9h1v1h-1z M10 9h1v1h-1z M13 9h1v1h-1z M14 9h1v1h-1z M15 9h1v1h-1z" />
    <path fill="#9c7764" d="M7 8h1v1h-1z M16 8h1v1h-1z M7 9h1v1h-1z M16 9h1v1h-1z" />
    <path fill="#ffffff" d="M8 8h1v1h-1z M15 8h1v1h-1z" />
    <path fill="#3b9ca3" d="M9 8h1v1h-1z M14 8h1v1h-1z" />
    <path fill="#631122" d="M8 10h1v1h-1z M14 10h1v1h-1z M6 12h1v1h-1z M17 12h1v1h-1z" />
    <path fill="#a8203c" d="M9 10h1v1h-1z M10 10h1v1h-1z M11 10h1v1h-1z M12 10h1v1h-1z M13 10h1v1h-1z M7 11h1v1h-1z M8 11h1v1h-1z M9 11h1v1h-1z M10 11h1v1h-1z M15 11h1v1h-1z M16 11h1v1h-1z M7 12h1v1h-1z M8 12h1v1h-1z M9 12h1v1h-1z M10 12h1v1h-1z M11 12h1v1h-1z M12 12h1v1h-1z M13 12h1v1h-1z M14 12h1v1h-1z M15 12h1v1h-1z M16 12h1v1h-1z" />
    <path fill="#e83858" d="M11 11h1v1h-1z M12 11h1v1h-1z M13 11h1v1h-1z M14 11h1v1h-1z" />
    <path fill="#1a141b" d="M6 13h1v1h-1z M6 14h1v1h-1z M8 14h1v1h-1z M16 14h1v1h-1z M8 15h1v1h-1z M15 15h1v1h-1z M8 16h1v1h-1z M9 16h1v1h-1z M14 16h1v1h-1z M15 16h1v1h-1z M10 17h1v1h-1z M15 17h1v1h-1z M8 18h1v1h-1z M9 18h1v1h-1z" />
    <path fill="#2b232e" d="M7 13h1v1h-1z M8 13h1v1h-1z M9 13h1v1h-1z M10 13h1v1h-1z M11 13h1v1h-1z M13 13h1v1h-1z M14 13h1v1h-1z M15 13h1v1h-1z M17 13h1v1h-1z M18 13h1v1h-1z M5 14h1v1h-1z M7 14h1v1h-1z M9 14h1v1h-1z M10 14h1v1h-1z M11 14h1v1h-1z M12 14h1v1h-1z M13 14h1v1h-1z M14 14h1v1h-1z M9 15h1v1h-1z M10 15h1v1h-1z M13 15h1v1h-1z M14 15h1v1h-1z M10 16h1v1h-1z M13 16h1v1h-1z M11 17h1v1h-1z M12 17h1v1h-1z M13 17h1v1h-1z M14 17h1v1h-1z" />
    <path fill="#44384a" d="M12 13h1v1h-1z M15 14h1v1h-1z" />
    <path fill="#bd152e" d="M16 13h1v1h-1z" />
    <path fill="#f0c756" d="M11 15h1v1h-1z M12 16h1v1h-1z" />
    <path fill="#a88122" d="M12 15h1v1h-1z M11 16h1v1h-1z" />
    <path fill="#110d12" d="M13 18h1v1h-1z M14 18h1v1h-1z M8 19h1v1h-1z M9 19h1v1h-1z M13 19h1v1h-1z M14 19h1v1h-1z M15 19h1v1h-1z M7 20h1v1h-1z M8 20h1v1h-1z M9 20h1v1h-1z" />
  </g>
  <g id="frame_1_3" transform="translate(72 24)">
    <path fill="#140c17" d="M10 3h1v1h-1z M13 3h1v1h-1z M8 4h1v1h-1z M15 4h1v1h-1z M7 5h1v1h-1z M16 5h1v1h-1z M6 6h1v1h-1z M7 6h1v1h-1z M8 6h1v1h-1z M15 6h1v1h-1z M16 6h1v1h-1z M17 6h1v1h-1z M5 7h1v1h-1z M6 7h1v1h-1z M7 7h1v1h-1z M8 7h1v1h-1z M9 7h1v1h-1z M10 7h1v1h-1z M11 7h1v1h-1z M12 7h1v1h-1z M13 7h1v1h-1z M14 7h1v1h-1z M15 7h1v1h-1z M16 7h1v1h-1z M17 7h1v1h-1z M18 7h1v1h-1z" />
    <path fill="#281a2b" d="M11 3h1v1h-1z M12 3h1v1h-1z M9 4h1v1h-1z M10 4h1v1h-1z M11 4h1v1h-1z M12 4h1v1h-1z M13 4h1v1h-1z M14 4h1v1h-1z M8 5h1v1h-1z M9 5h1v1h-1z M11 5h1v1h-1z M12 5h1v1h-1z M14 5h1v1h-1z M15 5h1v1h-1z M9 6h1v1h-1z M10 6h1v1h-1z M11 6h1v1h-1z M12 6h1v1h-1z M13 6h1v1h-1z M14 6h1v1h-1z" />
    <path fill="#412d45" d="M10 5h1v1h-1z M13 5h1v1h-1z" />
    <path fill="#ccab97" d="M7 8h1v1h-1z M16 8h1v1h-1z M10 9h1v1h-1z M13 9h1v1h-1z M11 10h1v1h-1z M12 10h1v1h-1z M4 16h1v1h-1z M5 16h1v1h-1z M18 16h1v1h-1z M19 16h1v1h-1z M4 17h1v1h-1z M5 17h1v1h-1z M18 17h1v1h-1z M19 17h1v1h-1z" />
    <path fill="#f0d9c7" d="M8 8h1v1h-1z M9 8h1v1h-1z M10 8h1v1h-1z M11 8h1v1h-1z M12 8h1v1h-1z M13 8h1v1h-1z M14 8h1v1h-1z M15 8h1v1h-1z M11 9h1v1h-1z M12 9h1v1h-1z M8 10h1v1h-1z M9 10h1v1h-1z M10 10h1v1h-1z M13 10h1v1h-1z M14 10h1v1h-1z M15 10h1v1h-1z" />
    <path fill="#9c7764" d="M7 9h1v1h-1z M16 9h1v1h-1z M7 10h1v1h-1z M16 10h1v1h-1z M8 11h1v1h-1z M15 11h1v1h-1z" />
    <path fill="#ffffff" d="M8 9h1v1h-1z M15 9h1v1h-1z" />
    <path fill="#3b9ca3" d="M9 9h1v1h-1z M14 9h1v1h-1z" />
    <path fill="#a8203c" d="M9 11h1v1h-1z M10 11h1v1h-1z M11 11h1v1h-1z M12 11h1v1h-1z M13 11h1v1h-1z M14 11h1v1h-1z M8 12h1v1h-1z M13 12h1v1h-1z M14 12h1v1h-1z M15 12h1v1h-1z M8 13h1v1h-1z M9 13h1v1h-1z M10 13h1v1h-1z M11 13h1v1h-1z M12 13h1v1h-1z M13 13h1v1h-1z M14 13h1v1h-1z M15 13h1v1h-1z" />
    <path fill="#e83858" d="M9 12h1v1h-1z M10 12h1v1h-1z M11 12h1v1h-1z M12 12h1v1h-1z" />
    <path fill="#631122" d="M7 13h1v1h-1z M16 13h1v1h-1z" />
    <path fill="#1a141b" d="M6 14h1v1h-1z M17 14h1v1h-1z M7 15h1v1h-1z M15 15h1v1h-1z M17 15h1v1h-1z M8 16h1v1h-1z M15 16h1v1h-1z M8 17h1v1h-1z M9 17h1v1h-1z M14 17h1v1h-1z M15 17h1v1h-1z M8 18h1v1h-1z M9 18h1v1h-1z M12 18h1v1h-1z M13 18h1v1h-1z M15 18h1v1h-1z" />
    <path fill="#2b232e" d="M7 14h1v1h-1z M8 14h1v1h-1z M9 14h1v1h-1z M10 14h1v1h-1z M11 14h1v1h-1z M13 14h1v1h-1z M14 14h1v1h-1z M15 14h1v1h-1z M16 14h1v1h-1z M5 15h1v1h-1z M6 15h1v1h-1z M9 15h1v1h-1z M10 15h1v1h-1z M11 15h1v1h-1z M12 15h1v1h-1z M13 15h1v1h-1z M14 15h1v1h-1z M16 15h1v1h-1z M18 15h1v1h-1z M19 15h1v1h-1z M9 16h1v1h-1z M10 16h1v1h-1z M13 16h1v1h-1z M14 16h1v1h-1z M10 17h1v1h-1z M13 17h1v1h-1z M10 18h1v1h-1z M11 18h1v1h-1z M14 18h1v1h-1z" />
    <path fill="#44384a" d="M12 14h1v1h-1z M8 15h1v1h-1z" />
    <path fill="#f0c756" d="M11 16h1v1h-1z M12 17h1v1h-1z" />
    <path fill="#a88122" d="M12 16h1v1h-1z M11 17h1v1h-1z" />
    <path fill="#110d12" d="M8 19h1v1h-1z M9 19h1v1h-1z M13 19h1v1h-1z M14 19h1v1h-1z M7 20h1v1h-1z M8 20h1v1h-1z M9 20h1v1h-1z M13 20h1v1h-1z M14 20h1v1h-1z M15 20h1v1h-1z" />
  </g>
  <g id="frame_2_0" transform="translate(0 48)">
    <path fill="#140c17" d="M11 3h1v1h-1z M14 3h1v1h-1z M9 4h1v1h-1z M15 4h1v1h-1z M8 5h1v1h-1z M16 5h1v1h-1z M7 6h1v1h-1z M8 6h1v1h-1z M15 6h1v1h-1z M16 6h1v1h-1z M7 7h1v1h-1z M8 7h1v1h-1z M9 7h1v1h-1z M10 7h1v1h-1z M11 7h1v1h-1z M12 7h1v1h-1z M13 7h1v1h-1z M14 7h1v1h-1z M15 7h1v1h-1z M16 7h1v1h-1z M17 7h1v1h-1z" />
    <path fill="#281a2b" d="M12 3h1v1h-1z M13 3h1v1h-1z M10 4h1v1h-1z M11 4h1v1h-1z M12 4h1v1h-1z M13 4h1v1h-1z M14 4h1v1h-1z M9 5h1v1h-1z M10 5h1v1h-1z M11 5h1v1h-1z M12 5h1v1h-1z M13 5h1v1h-1z M15 5h1v1h-1z M9 6h1v1h-1z M10 6h1v1h-1z M11 6h1v1h-1z M12 6h1v1h-1z M13 6h1v1h-1z M14 6h1v1h-1z" />
    <path fill="#412d45" d="M14 5h1v1h-1z" />
    <path fill="#ccab97" d="M9 8h1v1h-1z M14 9h1v1h-1z M8 10h1v1h-1z M11 10h1v1h-1z M12 10h1v1h-1z M13 10h1v1h-1z M14 10h1v1h-1z M5 15h1v1h-1z M6 15h1v1h-1z M7 15h1v1h-1z M5 16h1v1h-1z M6 16h1v1h-1z M7 16h1v1h-1z" />
    <path fill="#f0d9c7" d="M10 8h1v1h-1z M11 8h1v1h-1z M12 8h1v1h-1z M13 8h1v1h-1z M14 8h1v1h-1z M9 9h1v1h-1z M10 9h1v1h-1z M9 10h1v1h-1z M10 10h1v1h-1z" />
    <path fill="#9c7764" d="M11 9h1v1h-1z M9 11h1v1h-1z M14 11h1v1h-1z" />
    <path fill="#ffffff" d="M12 9h1v1h-1z" />
    <path fill="#3b9ca3" d="M13 9h1v1h-1z" />
    <path fill="#a8203c" d="M10 11h1v1h-1z M11 11h1v1h-1z M12 11h1v1h-1z M13 11h1v1h-1z M8 12h1v1h-1z M9 12h1v1h-1z M14 12h1v1h-1z M8 13h1v1h-1z M9 13h1v1h-1z M10 13h1v1h-1z M11 13h1v1h-1z M12 13h1v1h-1z M13 13h1v1h-1z M14 13h1v1h-1z" />
    <path fill="#631122" d="M7 12h1v1h-1z M7 13h1v1h-1z M15 13h1v1h-1z" />
    <path fill="#e83858" d="M10 12h1v1h-1z M11 12h1v1h-1z M12 12h1v1h-1z M13 12h1v1h-1z" />
    <path fill="#2b232e" d="M6 14h1v1h-1z M8 14h1v1h-1z M9 14h1v1h-1z M10 14h1v1h-1z M11 14h1v1h-1z M13 14h1v1h-1z M14 14h1v1h-1z M8 15h1v1h-1z M9 15h1v1h-1z M12 15h1v1h-1z M13 15h1v1h-1z M14 15h1v1h-1z M11 16h1v1h-1z M14 16h1v1h-1z M11 17h1v1h-1z M14 17h1v1h-1z M10 18h1v1h-1z M11 18h1v1h-1z M12 18h1v1h-1z" />
    <path fill="#1a141b" d="M7 14h1v1h-1z M15 14h1v1h-1z M10 15h1v1h-1z M10 16h1v1h-1z M15 16h1v1h-1z M10 17h1v1h-1z M15 17h1v1h-1z M9 18h1v1h-1z M13 18h1v1h-1z M14 18h1v1h-1z" />
    <path fill="#44384a" d="M12 14h1v1h-1z M11 15h1v1h-1z" />
    <path fill="#f0c756" d="M12 16h1v1h-1z M13 17h1v1h-1z" />
    <path fill="#a88122" d="M13 16h1v1h-1z M12 17h1v1h-1z" />
    <path fill="#110d12" d="M9 19h1v1h-1z M10 19h1v1h-1z M13 19h1v1h-1z M14 19h1v1h-1z M8 20h1v1h-1z M9 20h1v1h-1z M10 20h1v1h-1z M13 20h1v1h-1z M14 20h1v1h-1z M15 20h1v1h-1z" />
  </g>
  <g id="frame_2_1" transform="translate(24 48)">
    <path fill="#140c17" d="M11 3h1v1h-1z M14 3h1v1h-1z M9 4h1v1h-1z M15 4h1v1h-1z M8 5h1v1h-1z M16 5h1v1h-1z M7 6h1v1h-1z M8 6h1v1h-1z M15 6h1v1h-1z M16 6h1v1h-1z M7 7h1v1h-1z M8 7h1v1h-1z M9 7h1v1h-1z M10 7h1v1h-1z M11 7h1v1h-1z M12 7h1v1h-1z M13 7h1v1h-1z M14 7h1v1h-1z M15 7h1v1h-1z M16 7h1v1h-1z M17 7h1v1h-1z" />
    <path fill="#281a2b" d="M12 3h1v1h-1z M13 3h1v1h-1z M10 4h1v1h-1z M11 4h1v1h-1z M12 4h1v1h-1z M13 4h1v1h-1z M14 4h1v1h-1z M9 5h1v1h-1z M10 5h1v1h-1z M11 5h1v1h-1z M12 5h1v1h-1z M13 5h1v1h-1z M15 5h1v1h-1z M9 6h1v1h-1z M10 6h1v1h-1z M11 6h1v1h-1z M12 6h1v1h-1z M13 6h1v1h-1z M14 6h1v1h-1z" />
    <path fill="#412d45" d="M14 5h1v1h-1z" />
    <path fill="#ccab97" d="M9 8h1v1h-1z M14 9h1v1h-1z M8 10h1v1h-1z M11 10h1v1h-1z M12 10h1v1h-1z M13 10h1v1h-1z M14 10h1v1h-1z M5 15h1v1h-1z M6 15h1v1h-1z M7 15h1v1h-1z M5 16h1v1h-1z M6 16h1v1h-1z M7 16h1v1h-1z" />
    <path fill="#f0d9c7" d="M10 8h1v1h-1z M11 8h1v1h-1z M12 8h1v1h-1z M13 8h1v1h-1z M14 8h1v1h-1z M9 9h1v1h-1z M10 9h1v1h-1z M9 10h1v1h-1z M10 10h1v1h-1z" />
    <path fill="#9c7764" d="M11 9h1v1h-1z M9 11h1v1h-1z M14 11h1v1h-1z" />
    <path fill="#ffffff" d="M12 9h1v1h-1z" />
    <path fill="#3b9ca3" d="M13 9h1v1h-1z" />
    <path fill="#a8203c" d="M10 11h1v1h-1z M11 11h1v1h-1z M12 11h1v1h-1z M13 11h1v1h-1z M8 12h1v1h-1z M9 12h1v1h-1z M14 12h1v1h-1z M8 13h1v1h-1z M9 13h1v1h-1z M10 13h1v1h-1z M11 13h1v1h-1z M12 13h1v1h-1z M13 13h1v1h-1z M14 13h1v1h-1z" />
    <path fill="#631122" d="M7 12h1v1h-1z M7 13h1v1h-1z M15 13h1v1h-1z" />
    <path fill="#e83858" d="M10 12h1v1h-1z M11 12h1v1h-1z M12 12h1v1h-1z M13 12h1v1h-1z" />
    <path fill="#2b232e" d="M6 14h1v1h-1z M8 14h1v1h-1z M9 14h1v1h-1z M10 14h1v1h-1z M11 14h1v1h-1z M13 14h1v1h-1z M14 14h1v1h-1z M8 15h1v1h-1z M9 15h1v1h-1z M12 15h1v1h-1z M13 15h1v1h-1z M14 15h1v1h-1z M11 16h1v1h-1z M14 16h1v1h-1z M11 17h1v1h-1z M14 17h1v1h-1z M10 18h1v1h-1z M11 18h1v1h-1z M12 18h1v1h-1z" />
    <path fill="#1a141b" d="M7 14h1v1h-1z M15 14h1v1h-1z M10 15h1v1h-1z M10 16h1v1h-1z M15 16h1v1h-1z M10 17h1v1h-1z M15 17h1v1h-1z M9 18h1v1h-1z M13 18h1v1h-1z M14 18h1v1h-1z" />
    <path fill="#44384a" d="M12 14h1v1h-1z M11 15h1v1h-1z" />
    <path fill="#f0c756" d="M12 16h1v1h-1z M13 17h1v1h-1z" />
    <path fill="#a88122" d="M13 16h1v1h-1z M12 17h1v1h-1z" />
    <path fill="#110d12" d="M10 19h1v1h-1z M11 19h1v1h-1z M9 20h1v1h-1z M10 20h1v1h-1z M11 20h1v1h-1z" />
  </g>
  <g id="frame_3_0" transform="translate(0 72)">
    <path fill="#140c17" d="M11 2h1v1h-1z M14 2h1v1h-1z M9 3h1v1h-1z M15 3h1v1h-1z M8 4h1v1h-1z M16 4h1v1h-1z M7 5h1v1h-1z M8 5h1v1h-1z M15 5h1v1h-1z M16 5h1v1h-1z M7 6h1v1h-1z M8 6h1v1h-1z M9 6h1v1h-1z M10 6h1v1h-1z M11 6h1v1h-1z M12 6h1v1h-1z M13 6h1v1h-1z M14 6h1v1h-1z M15 6h1v1h-1z M16 6h1v1h-1z M17 6h1v1h-1z" />
    <path fill="#281a2b" d="M12 2h1v1h-1z M13 2h1v1h-1z M10 3h1v1h-1z M11 3h1v1h-1z M12 3h1v1h-1z M13 3h1v1h-1z M14 3h1v1h-1z M9 4h1v1h-1z M10 4h1v1h-1z M11 4h1v1h-1z M12 4h1v1h-1z M13 4h1v1h-1z M15 4h1v1h-1z M9 5h1v1h-1z M10 5h1v1h-1z M11 5h1v1h-1z M12 5h1v1h-1z M13 5h1v1h-1z M14 5h1v1h-1z" />
    <path fill="#412d45" d="M14 4h1v1h-1z" />
    <path fill="#ccab97" d="M9 7h1v1h-1z M14 8h1v1h-1z M8 9h1v1h-1z M11 9h1v1h-1z M12 9h1v1h-1z M13 9h1v1h-1z M14 9h1v1h-1z M5 14h1v1h-1z M6 14h1v1h-1z M7 14h1v1h-1z M5 15h1v1h-1z M6 15h1v1h-1z M7 15h1v1h-1z" />
    <path fill="#f0d9c7" d="M10 7h1v1h-1z M11 7h1v1h-1z M12 7h1v1h-1z M13 7h1v1h-1z M14 7h1v1h-1z M9 8h1v1h-1z M10 8h1v1h-1z M9 9h1v1h-1z M10 9h1v1h-1z" />
    <path fill="#9c7764" d="M11 8h1v1h-1z M9 10h1v1h-1z M14 10h1v1h-1z" />
    <path fill="#ffffff" d="M12 8h1v1h-1z" />
    <path fill="#3b9ca3" d="M13 8h1v1h-1z" />
    <path fill="#a8203c" d="M10 10h1v1h-1z M11 10h1v1h-1z M12 10h1v1h-1z M13 10h1v1h-1z M8 11h1v1h-1z M9 11h1v1h-1z M14 11h1v1h-1z M8 12h1v1h-1z M9 12h1v1h-1z M10 12h1v1h-1z M11 12h1v1h-1z M12 12h1v1h-1z M13 12h1v1h-1z M14 12h1v1h-1z" />
    <path fill="#631122" d="M7 11h1v1h-1z M7 12h1v1h-1z M15 12h1v1h-1z" />
    <path fill="#e83858" d="M10 11h1v1h-1z M11 11h1v1h-1z M12 11h1v1h-1z M13 11h1v1h-1z" />
    <path fill="#2b232e" d="M6 13h1v1h-1z M8 13h1v1h-1z M9 13h1v1h-1z M10 13h1v1h-1z M11 13h1v1h-1z M13 13h1v1h-1z M14 13h1v1h-1z M8 14h1v1h-1z M9 14h1v1h-1z M12 14h1v1h-1z M13 14h1v1h-1z M14 14h1v1h-1z M11 15h1v1h-1z M14 15h1v1h-1z M11 16h1v1h-1z M14 16h1v1h-1z" />
    <path fill="#1a141b" d="M7 13h1v1h-1z M15 13h1v1h-1z M10 14h1v1h-1z M10 15h1v1h-1z M15 15h1v1h-1z M10 16h1v1h-1z M15 16h1v1h-1z M10 17h1v1h-1z M11 17h1v1h-1z M13 17h1v1h-1z M14 17h1v1h-1z M15 17h1v1h-1z" />
    <path fill="#44384a" d="M12 13h1v1h-1z M11 14h1v1h-1z" />
    <path fill="#f0c756" d="M12 15h1v1h-1z M13 16h1v1h-1z" />
    <path fill="#a88122" d="M13 15h1v1h-1z M12 16h1v1h-1z" />
    <path fill="#110d12" d="M11 18h1v1h-1z M12 18h1v1h-1z M10 19h1v1h-1z M11 19h1v1h-1z M12 19h1v1h-1z M14 19h1v1h-1z M15 19h1v1h-1z M14 20h1v1h-1z M15 20h1v1h-1z M16 20h1v1h-1z" />
  </g>
  <g id="frame_3_1" transform="translate(24 72)">
    <path fill="#140c17" d="M11 3h1v1h-1z M14 3h1v1h-1z M9 4h1v1h-1z M15 4h1v1h-1z M8 5h1v1h-1z M16 5h1v1h-1z M7 6h1v1h-1z M8 6h1v1h-1z M15 6h1v1h-1z M16 6h1v1h-1z M7 7h1v1h-1z M8 7h1v1h-1z M9 7h1v1h-1z M10 7h1v1h-1z M11 7h1v1h-1z M12 7h1v1h-1z M13 7h1v1h-1z M14 7h1v1h-1z M15 7h1v1h-1z M16 7h1v1h-1z M17 7h1v1h-1z" />
    <path fill="#281a2b" d="M12 3h1v1h-1z M13 3h1v1h-1z M10 4h1v1h-1z M11 4h1v1h-1z M12 4h1v1h-1z M13 4h1v1h-1z M14 4h1v1h-1z M9 5h1v1h-1z M10 5h1v1h-1z M11 5h1v1h-1z M12 5h1v1h-1z M13 5h1v1h-1z M15 5h1v1h-1z M9 6h1v1h-1z M10 6h1v1h-1z M11 6h1v1h-1z M12 6h1v1h-1z M13 6h1v1h-1z M14 6h1v1h-1z" />
    <path fill="#412d45" d="M14 5h1v1h-1z" />
    <path fill="#ccab97" d="M9 8h1v1h-1z M14 9h1v1h-1z M8 10h1v1h-1z M11 10h1v1h-1z M12 10h1v1h-1z M13 10h1v1h-1z M14 10h1v1h-1z M5 15h1v1h-1z M6 15h1v1h-1z M7 15h1v1h-1z M5 16h1v1h-1z M6 16h1v1h-1z M7 16h1v1h-1z" />
    <path fill="#f0d9c7" d="M10 8h1v1h-1z M11 8h1v1h-1z M12 8h1v1h-1z M13 8h1v1h-1z M14 8h1v1h-1z M9 9h1v1h-1z M10 9h1v1h-1z M9 10h1v1h-1z M10 10h1v1h-1z" />
    <path fill="#9c7764" d="M11 9h1v1h-1z M9 11h1v1h-1z M14 11h1v1h-1z" />
    <path fill="#ffffff" d="M12 9h1v1h-1z" />
    <path fill="#3b9ca3" d="M13 9h1v1h-1z" />
    <path fill="#a8203c" d="M10 11h1v1h-1z M11 11h1v1h-1z M12 11h1v1h-1z M13 11h1v1h-1z M8 12h1v1h-1z M9 12h1v1h-1z M14 12h1v1h-1z M8 13h1v1h-1z M9 13h1v1h-1z M10 13h1v1h-1z M11 13h1v1h-1z M12 13h1v1h-1z M13 13h1v1h-1z M14 13h1v1h-1z" />
    <path fill="#631122" d="M7 12h1v1h-1z M7 13h1v1h-1z M15 13h1v1h-1z" />
    <path fill="#e83858" d="M10 12h1v1h-1z M11 12h1v1h-1z M12 12h1v1h-1z M13 12h1v1h-1z" />
    <path fill="#2b232e" d="M6 14h1v1h-1z M8 14h1v1h-1z M9 14h1v1h-1z M10 14h1v1h-1z M11 14h1v1h-1z M13 14h1v1h-1z M14 14h1v1h-1z M8 15h1v1h-1z M9 15h1v1h-1z M12 15h1v1h-1z M13 15h1v1h-1z M14 15h1v1h-1z M11 16h1v1h-1z M14 16h1v1h-1z M11 17h1v1h-1z M14 17h1v1h-1z M10 18h1v1h-1z M11 18h1v1h-1z M12 18h1v1h-1z" />
    <path fill="#1a141b" d="M7 14h1v1h-1z M15 14h1v1h-1z M10 15h1v1h-1z M10 16h1v1h-1z M15 16h1v1h-1z M10 17h1v1h-1z M15 17h1v1h-1z M9 18h1v1h-1z M13 18h1v1h-1z M14 18h1v1h-1z" />
    <path fill="#44384a" d="M12 14h1v1h-1z M11 15h1v1h-1z" />
    <path fill="#f0c756" d="M12 16h1v1h-1z M13 17h1v1h-1z" />
    <path fill="#a88122" d="M13 16h1v1h-1z M12 17h1v1h-1z" />
    <path fill="#110d12" d="M10 19h1v1h-1z M11 19h1v1h-1z M9 20h1v1h-1z M10 20h1v1h-1z M11 20h1v1h-1z" />
  </g>
  <g id="frame_3_2" transform="translate(48 72)">
    <path fill="#140c17" d="M11 3h1v1h-1z M14 3h1v1h-1z M9 4h1v1h-1z M15 4h1v1h-1z M8 5h1v1h-1z M16 5h1v1h-1z M7 6h1v1h-1z M8 6h1v1h-1z M15 6h1v1h-1z M16 6h1v1h-1z M7 7h1v1h-1z M8 7h1v1h-1z M9 7h1v1h-1z M10 7h1v1h-1z M11 7h1v1h-1z M12 7h1v1h-1z M13 7h1v1h-1z M14 7h1v1h-1z M15 7h1v1h-1z M16 7h1v1h-1z M17 7h1v1h-1z" />
    <path fill="#281a2b" d="M12 3h1v1h-1z M13 3h1v1h-1z M10 4h1v1h-1z M11 4h1v1h-1z M12 4h1v1h-1z M13 4h1v1h-1z M14 4h1v1h-1z M9 5h1v1h-1z M10 5h1v1h-1z M11 5h1v1h-1z M12 5h1v1h-1z M13 5h1v1h-1z M15 5h1v1h-1z M9 6h1v1h-1z M10 6h1v1h-1z M11 6h1v1h-1z M12 6h1v1h-1z M13 6h1v1h-1z M14 6h1v1h-1z" />
    <path fill="#412d45" d="M14 5h1v1h-1z" />
    <path fill="#ccab97" d="M9 8h1v1h-1z M14 9h1v1h-1z M8 10h1v1h-1z M11 10h1v1h-1z M12 10h1v1h-1z M13 10h1v1h-1z M14 10h1v1h-1z M5 15h1v1h-1z M6 15h1v1h-1z M7 15h1v1h-1z M5 16h1v1h-1z M6 16h1v1h-1z M7 16h1v1h-1z" />
    <path fill="#f0d9c7" d="M10 8h1v1h-1z M11 8h1v1h-1z M12 8h1v1h-1z M13 8h1v1h-1z M14 8h1v1h-1z M9 9h1v1h-1z M10 9h1v1h-1z M9 10h1v1h-1z M10 10h1v1h-1z" />
    <path fill="#9c7764" d="M11 9h1v1h-1z M9 11h1v1h-1z M14 11h1v1h-1z" />
    <path fill="#ffffff" d="M12 9h1v1h-1z" />
    <path fill="#3b9ca3" d="M13 9h1v1h-1z" />
    <path fill="#a8203c" d="M10 11h1v1h-1z M11 11h1v1h-1z M12 11h1v1h-1z M13 11h1v1h-1z M8 12h1v1h-1z M9 12h1v1h-1z M14 12h1v1h-1z M8 13h1v1h-1z M9 13h1v1h-1z M10 13h1v1h-1z M11 13h1v1h-1z M12 13h1v1h-1z M13 13h1v1h-1z M14 13h1v1h-1z" />
    <path fill="#631122" d="M7 12h1v1h-1z M7 13h1v1h-1z M15 13h1v1h-1z" />
    <path fill="#e83858" d="M10 12h1v1h-1z M11 12h1v1h-1z M12 12h1v1h-1z M13 12h1v1h-1z" />
    <path fill="#2b232e" d="M6 14h1v1h-1z M8 14h1v1h-1z M9 14h1v1h-1z M10 14h1v1h-1z M11 14h1v1h-1z M13 14h1v1h-1z M14 14h1v1h-1z M8 15h1v1h-1z M9 15h1v1h-1z M12 15h1v1h-1z M13 15h1v1h-1z M14 15h1v1h-1z M11 16h1v1h-1z M14 16h1v1h-1z M11 17h1v1h-1z M14 17h1v1h-1z M10 18h1v1h-1z" />
    <path fill="#1a141b" d="M7 14h1v1h-1z M15 14h1v1h-1z M10 15h1v1h-1z M10 16h1v1h-1z M15 16h1v1h-1z M10 17h1v1h-1z M15 17h1v1h-1z M8 18h1v1h-1z M9 18h1v1h-1z M11 18h1v1h-1z M13 18h1v1h-1z M14 18h1v1h-1z" />
    <path fill="#44384a" d="M12 14h1v1h-1z M11 15h1v1h-1z" />
    <path fill="#f0c756" d="M12 16h1v1h-1z M13 17h1v1h-1z" />
    <path fill="#a88122" d="M13 16h1v1h-1z M12 17h1v1h-1z" />
    <path fill="#110d12" d="M7 19h1v1h-1z M8 19h1v1h-1z M13 19h1v1h-1z M14 19h1v1h-1z M6 20h1v1h-1z M7 20h1v1h-1z M8 20h1v1h-1z M13 20h1v1h-1z M14 20h1v1h-1z M15 20h1v1h-1z" />
  </g>
  <g id="frame_3_3" transform="translate(72 72)">
    <path fill="#140c17" d="M11 3h1v1h-1z M14 3h1v1h-1z M9 4h1v1h-1z M15 4h1v1h-1z M8 5h1v1h-1z M16 5h1v1h-1z M7 6h1v1h-1z M8 6h1v1h-1z M15 6h1v1h-1z M16 6h1v1h-1z M7 7h1v1h-1z M8 7h1v1h-1z M9 7h1v1h-1z M10 7h1v1h-1z M11 7h1v1h-1z M12 7h1v1h-1z M13 7h1v1h-1z M14 7h1v1h-1z M15 7h1v1h-1z M16 7h1v1h-1z M17 7h1v1h-1z" />
    <path fill="#281a2b" d="M12 3h1v1h-1z M13 3h1v1h-1z M10 4h1v1h-1z M11 4h1v1h-1z M12 4h1v1h-1z M13 4h1v1h-1z M14 4h1v1h-1z M9 5h1v1h-1z M10 5h1v1h-1z M11 5h1v1h-1z M12 5h1v1h-1z M13 5h1v1h-1z M15 5h1v1h-1z M9 6h1v1h-1z M10 6h1v1h-1z M11 6h1v1h-1z M12 6h1v1h-1z M13 6h1v1h-1z M14 6h1v1h-1z" />
    <path fill="#412d45" d="M14 5h1v1h-1z" />
    <path fill="#ccab97" d="M9 8h1v1h-1z M14 9h1v1h-1z M8 10h1v1h-1z M11 10h1v1h-1z M12 10h1v1h-1z M13 10h1v1h-1z M14 10h1v1h-1z M5 15h1v1h-1z M6 15h1v1h-1z M7 15h1v1h-1z M5 16h1v1h-1z M6 16h1v1h-1z M7 16h1v1h-1z" />
    <path fill="#f0d9c7" d="M10 8h1v1h-1z M11 8h1v1h-1z M12 8h1v1h-1z M13 8h1v1h-1z M14 8h1v1h-1z M9 9h1v1h-1z M10 9h1v1h-1z M9 10h1v1h-1z M10 10h1v1h-1z" />
    <path fill="#9c7764" d="M11 9h1v1h-1z M9 11h1v1h-1z M14 11h1v1h-1z" />
    <path fill="#ffffff" d="M12 9h1v1h-1z" />
    <path fill="#3b9ca3" d="M13 9h1v1h-1z" />
    <path fill="#a8203c" d="M10 11h1v1h-1z M11 11h1v1h-1z M12 11h1v1h-1z M13 11h1v1h-1z M8 12h1v1h-1z M9 12h1v1h-1z M14 12h1v1h-1z M8 13h1v1h-1z M9 13h1v1h-1z M10 13h1v1h-1z M11 13h1v1h-1z M12 13h1v1h-1z M13 13h1v1h-1z M14 13h1v1h-1z" />
    <path fill="#631122" d="M7 12h1v1h-1z M7 13h1v1h-1z M15 13h1v1h-1z" />
    <path fill="#e83858" d="M10 12h1v1h-1z M11 12h1v1h-1z M12 12h1v1h-1z M13 12h1v1h-1z" />
    <path fill="#2b232e" d="M6 14h1v1h-1z M8 14h1v1h-1z M9 14h1v1h-1z M10 14h1v1h-1z M11 14h1v1h-1z M13 14h1v1h-1z M14 14h1v1h-1z M8 15h1v1h-1z M9 15h1v1h-1z M12 15h1v1h-1z M13 15h1v1h-1z M14 15h1v1h-1z M11 16h1v1h-1z M14 16h1v1h-1z M11 17h1v1h-1z M14 17h1v1h-1z M10 18h1v1h-1z M11 18h1v1h-1z M12 18h1v1h-1z" />
    <path fill="#1a141b" d="M7 14h1v1h-1z M15 14h1v1h-1z M10 15h1v1h-1z M10 16h1v1h-1z M15 16h1v1h-1z M10 17h1v1h-1z M15 17h1v1h-1z M9 18h1v1h-1z M13 18h1v1h-1z M14 18h1v1h-1z" />
    <path fill="#44384a" d="M12 14h1v1h-1z M11 15h1v1h-1z" />
    <path fill="#f0c756" d="M12 16h1v1h-1z M13 17h1v1h-1z" />
    <path fill="#a88122" d="M13 16h1v1h-1z M12 17h1v1h-1z" />
    <path fill="#110d12" d="M10 19h1v1h-1z M11 19h1v1h-1z M9 20h1v1h-1z M10 20h1v1h-1z M11 20h1v1h-1z" />
  </g>
  <g id="frame_4_0" transform="translate(0 96)">
    <path fill="#140c17" d="M10 3h1v1h-1z M13 3h1v1h-1z M8 4h1v1h-1z M16 4h1v1h-1z M7 5h1v1h-1z M17 5h1v1h-1z M6 6h1v1h-1z M7 6h1v1h-1z M17 6h1v1h-1z M18 6h1v1h-1z M5 7h1v1h-1z M6 7h1v1h-1z M7 7h1v1h-1z M8 7h1v1h-1z M9 7h1v1h-1z M10 7h1v1h-1z M11 7h1v1h-1z M12 7h1v1h-1z M13 7h1v1h-1z M14 7h1v1h-1z M15 7h1v1h-1z M16 7h1v1h-1z M17 7h1v1h-1z M18 7h1v1h-1z M19 7h1v1h-1z" />
    <path fill="#281a2b" d="M11 3h1v1h-1z M12 3h1v1h-1z M9 4h1v1h-1z M10 4h1v1h-1z M11 4h1v1h-1z M12 4h1v1h-1z M13 4h1v1h-1z M15 4h1v1h-1z M8 5h1v1h-1z M9 5h1v1h-1z M10 5h1v1h-1z M11 5h1v1h-1z M12 5h1v1h-1z M13 5h1v1h-1z M14 5h1v1h-1z M16 5h1v1h-1z M8 6h1v1h-1z M9 6h1v1h-1z M10 6h1v1h-1z M11 6h1v1h-1z M12 6h1v1h-1z M13 6h1v1h-1z M14 6h1v1h-1z M16 6h1v1h-1z" />
    <path fill="#412d45" d="M14 4h1v1h-1z M15 5h1v1h-1z M15 6h1v1h-1z" />
    <path fill="#2b232e" d="M7 8h1v1h-1z M8 8h1v1h-1z M9 8h1v1h-1z M10 8h1v1h-1z M11 8h1v1h-1z M12 8h1v1h-1z M13 8h1v1h-1z M14 8h1v1h-1z M15 8h1v1h-1z M16 8h1v1h-1z M7 9h1v1h-1z M8 9h1v1h-1z M9 9h1v1h-1z M10 9h1v1h-1z M11 9h1v1h-1z M12 9h1v1h-1z M13 9h1v1h-1z M15 9h1v1h-1z M16 9h1v1h-1z M7 10h1v1h-1z M8 10h1v1h-1z M9 10h1v1h-1z M10 10h1v1h-1z M11 10h1v1h-1z M12 10h1v1h-1z M13 10h1v1h-1z M14 10h1v1h-1z M15 10h1v1h-1z M16 10h1v1h-1z M9 11h1v1h-1z M10 11h1v1h-1z M11 11h1v1h-1z M12 11h1v1h-1z M14 11h1v1h-1z M9 12h1v1h-1z M10 12h1v1h-1z M11 12h1v1h-1z M12 12h1v1h-1z M14 12h1v1h-1z M7 13h1v1h-1z M9 13h1v1h-1z M10 13h1v1h-1z M11 13h1v1h-1z M12 13h1v1h-1z M14 13h1v1h-1z M16 13h1v1h-1z M6 14h1v1h-1z M8 14h1v1h-1z M9 14h1v1h-1z M10 14h1v1h-1z M11 14h1v1h-1z M13 14h1v1h-1z M15 14h1v1h-1z M17 14h1v1h-1z M5 15h1v1h-1z M6 15h1v1h-1z M8 15h1v1h-1z M9 15h1v1h-1z M10 15h1v1h-1z M11 15h1v1h-1z M13 15h1v1h-1z M15 15h1v1h-1z M17 15h1v1h-1z M18 15h1v1h-1z M4 16h1v1h-1z M5 16h1v1h-1z M9 16h1v1h-1z M10 16h1v1h-1z M12 16h1v1h-1z M13 16h1v1h-1z M14 16h1v1h-1z M18 16h1v1h-1z M19 16h1v1h-1z M4 17h1v1h-1z M5 17h1v1h-1z M10 17h1v1h-1z M11 17h1v1h-1z M12 17h1v1h-1z M18 17h1v1h-1z M19 17h1v1h-1z M9 18h1v1h-1z M10 18h1v1h-1z M11 18h1v1h-1z M12 18h1v1h-1z M14 18h1v1h-1z" />
    <path fill="#44384a" d="M14 9h1v1h-1z M12 14h1v1h-1z M12 15h1v1h-1z M11 16h1v1h-1z M13 17h1v1h-1z" />
    <path fill="#1a141b" d="M8 11h1v1h-1z M13 11h1v1h-1z M15 11h1v1h-1z M8 12h1v1h-1z M13 12h1v1h-1z M15 12h1v1h-1z M8 13h1v1h-1z M13 13h1v1h-1z M15 13h1v1h-1z M7 14h1v1h-1z M14 14h1v1h-1z M16 14h1v1h-1z M7 15h1v1h-1z M14 15h1v1h-1z M16 15h1v1h-1z M8 16h1v1h-1z M8 17h1v1h-1z M9 17h1v1h-1z M14 17h1v1h-1z M8 18h1v1h-1z M13 18h1v1h-1z" />
    <path fill="#110d12" d="M8 19h1v1h-1z M9 19h1v1h-1z M13 19h1v1h-1z M14 19h1v1h-1z M7 20h1v1h-1z M8 20h1v1h-1z M9 20h1v1h-1z M13 20h1v1h-1z M14 20h1v1h-1z M15 20h1v1h-1z" />
  </g>
  <g id="frame_4_1" transform="translate(24 96)">
    <path fill="#140c17" d="M10 3h1v1h-1z M13 3h1v1h-1z M8 4h1v1h-1z M16 4h1v1h-1z M7 5h1v1h-1z M17 5h1v1h-1z M6 6h1v1h-1z M7 6h1v1h-1z M17 6h1v1h-1z M18 6h1v1h-1z M5 7h1v1h-1z M6 7h1v1h-1z M7 7h1v1h-1z M8 7h1v1h-1z M9 7h1v1h-1z M10 7h1v1h-1z M11 7h1v1h-1z M12 7h1v1h-1z M13 7h1v1h-1z M14 7h1v1h-1z M15 7h1v1h-1z M16 7h1v1h-1z M17 7h1v1h-1z M18 7h1v1h-1z M19 7h1v1h-1z" />
    <path fill="#281a2b" d="M11 3h1v1h-1z M12 3h1v1h-1z M9 4h1v1h-1z M10 4h1v1h-1z M11 4h1v1h-1z M12 4h1v1h-1z M13 4h1v1h-1z M15 4h1v1h-1z M8 5h1v1h-1z M9 5h1v1h-1z M10 5h1v1h-1z M11 5h1v1h-1z M12 5h1v1h-1z M13 5h1v1h-1z M14 5h1v1h-1z M16 5h1v1h-1z M8 6h1v1h-1z M9 6h1v1h-1z M10 6h1v1h-1z M11 6h1v1h-1z M12 6h1v1h-1z M13 6h1v1h-1z M14 6h1v1h-1z M16 6h1v1h-1z" />
    <path fill="#412d45" d="M14 4h1v1h-1z M15 5h1v1h-1z M15 6h1v1h-1z" />
    <path fill="#2b232e" d="M7 8h1v1h-1z M8 8h1v1h-1z M9 8h1v1h-1z M10 8h1v1h-1z M11 8h1v1h-1z M12 8h1v1h-1z M13 8h1v1h-1z M14 8h1v1h-1z M15 8h1v1h-1z M16 8h1v1h-1z M7 9h1v1h-1z M8 9h1v1h-1z M9 9h1v1h-1z M10 9h1v1h-1z M11 9h1v1h-1z M12 9h1v1h-1z M13 9h1v1h-1z M15 9h1v1h-1z M16 9h1v1h-1z M7 10h1v1h-1z M8 10h1v1h-1z M9 10h1v1h-1z M10 10h1v1h-1z M11 10h1v1h-1z M12 10h1v1h-1z M13 10h1v1h-1z M14 10h1v1h-1z M15 10h1v1h-1z M16 10h1v1h-1z M9 11h1v1h-1z M10 11h1v1h-1z M11 11h1v1h-1z M12 11h1v1h-1z M14 11h1v1h-1z M9 12h1v1h-1z M10 12h1v1h-1z M11 12h1v1h-1z M12 12h1v1h-1z M14 12h1v1h-1z M7 13h1v1h-1z M9 13h1v1h-1z M10 13h1v1h-1z M11 13h1v1h-1z M12 13h1v1h-1z M14 13h1v1h-1z M16 13h1v1h-1z M6 14h1v1h-1z M8 14h1v1h-1z M9 14h1v1h-1z M10 14h1v1h-1z M11 14h1v1h-1z M13 14h1v1h-1z M15 14h1v1h-1z M17 14h1v1h-1z M5 15h1v1h-1z M6 15h1v1h-1z M8 15h1v1h-1z M9 15h1v1h-1z M10 15h1v1h-1z M11 15h1v1h-1z M13 15h1v1h-1z M15 15h1v1h-1z M17 15h1v1h-1z M18 15h1v1h-1z M4 16h1v1h-1z M5 16h1v1h-1z M9 16h1v1h-1z M10 16h1v1h-1z M12 16h1v1h-1z M13 16h1v1h-1z M14 16h1v1h-1z M18 16h1v1h-1z M19 16h1v1h-1z M4 17h1v1h-1z M5 17h1v1h-1z M10 17h1v1h-1z M11 17h1v1h-1z M12 17h1v1h-1z M18 17h1v1h-1z M19 17h1v1h-1z M9 18h1v1h-1z M14 18h1v1h-1z" />
    <path fill="#44384a" d="M14 9h1v1h-1z M12 14h1v1h-1z M12 15h1v1h-1z M11 16h1v1h-1z M13 17h1v1h-1z" />
    <path fill="#1a141b" d="M8 11h1v1h-1z M13 11h1v1h-1z M15 11h1v1h-1z M8 12h1v1h-1z M13 12h1v1h-1z M15 12h1v1h-1z M8 13h1v1h-1z M13 13h1v1h-1z M15 13h1v1h-1z M7 14h1v1h-1z M14 14h1v1h-1z M16 14h1v1h-1z M7 15h1v1h-1z M14 15h1v1h-1z M16 15h1v1h-1z M8 16h1v1h-1z M8 17h1v1h-1z M9 17h1v1h-1z M14 17h1v1h-1z M8 18h1v1h-1z M13 18h1v1h-1z" />
    <path fill="#110d12" d="M8 19h1v1h-1z M9 19h1v1h-1z M13 19h1v1h-1z M14 19h1v1h-1z M7 20h1v1h-1z M8 20h1v1h-1z M9 20h1v1h-1z M13 20h1v1h-1z M14 20h1v1h-1z M15 20h1v1h-1z" />
  </g>
  <g id="frame_5_0" transform="translate(0 120)">
    <path fill="#140c17" d="M10 2h1v1h-1z M13 2h1v1h-1z M8 3h1v1h-1z M16 3h1v1h-1z M7 4h1v1h-1z M17 4h1v1h-1z M6 5h1v1h-1z M7 5h1v1h-1z M17 5h1v1h-1z M18 5h1v1h-1z M5 6h1v1h-1z M6 6h1v1h-1z M7 6h1v1h-1z M8 6h1v1h-1z M9 6h1v1h-1z M10 6h1v1h-1z M11 6h1v1h-1z M12 6h1v1h-1z M13 6h1v1h-1z M14 6h1v1h-1z M15 6h1v1h-1z M16 6h1v1h-1z M17 6h1v1h-1z M18 6h1v1h-1z M19 6h1v1h-1z" />
    <path fill="#281a2b" d="M11 2h1v1h-1z M12 2h1v1h-1z M9 3h1v1h-1z M10 3h1v1h-1z M11 3h1v1h-1z M12 3h1v1h-1z M13 3h1v1h-1z M15 3h1v1h-1z M8 4h1v1h-1z M9 4h1v1h-1z M10 4h1v1h-1z M11 4h1v1h-1z M12 4h1v1h-1z M13 4h1v1h-1z M14 4h1v1h-1z M16 4h1v1h-1z M8 5h1v1h-1z M9 5h1v1h-1z M10 5h1v1h-1z M11 5h1v1h-1z M12 5h1v1h-1z M13 5h1v1h-1z M14 5h1v1h-1z M16 5h1v1h-1z" />
    <path fill="#412d45" d="M14 3h1v1h-1z M15 4h1v1h-1z M15 5h1v1h-1z" />
    <path fill="#2b232e" d="M7 7h1v1h-1z M8 7h1v1h-1z M9 7h1v1h-1z M10 7h1v1h-1z M11 7h1v1h-1z M12 7h1v1h-1z M13 7h1v1h-1z M14 7h1v1h-1z M15 7h1v1h-1z M16 7h1v1h-1z M7 8h1v1h-1z M8 8h1v1h-1z M9 8h1v1h-1z M10 8h1v1h-1z M11 8h1v1h-1z M12 8h1v1h-1z M13 8h1v1h-1z M15 8h1v1h-1z M16 8h1v1h-1z M7 9h1v1h-1z M8 9h1v1h-1z M9 9h1v1h-1z M10 9h1v1h-1z M11 9h1v1h-1z M12 9h1v1h-1z M13 9h1v1h-1z M14 9h1v1h-1z M15 9h1v1h-1z M16 9h1v1h-1z M9 10h1v1h-1z M10 10h1v1h-1z M11 10h1v1h-1z M12 10h1v1h-1z M14 10h1v1h-1z M9 11h1v1h-1z M10 11h1v1h-1z M11 11h1v1h-1z M12 11h1v1h-1z M14 11h1v1h-1z M7 12h1v1h-1z M9 12h1v1h-1z M10 12h1v1h-1z M11 12h1v1h-1z M12 12h1v1h-1z M14 12h1v1h-1z M16 12h1v1h-1z M6 13h1v1h-1z M8 13h1v1h-1z M9 13h1v1h-1z M10 13h1v1h-1z M11 13h1v1h-1z M13 13h1v1h-1z M15 13h1v1h-1z M17 13h1v1h-1z M5 14h1v1h-1z M6 14h1v1h-1z M8 14h1v1h-1z M9 14h1v1h-1z M10 14h1v1h-1z M11 14h1v1h-1z M13 14h1v1h-1z M15 14h1v1h-1z M17 14h1v1h-1z M18 14h1v1h-1z M4 15h1v1h-1z M5 15h1v1h-1z M9 15h1v1h-1z M10 15h1v1h-1z M12 15h1v1h-1z M13 15h1v1h-1z M14 15h1v1h-1z M18 15h1v1h-1z M19 15h1v1h-1z M10 16h1v1h-1z M11 16h1v1h-1z M12 16h1v1h-1z M15 16h1v1h-1z M9 17h1v1h-1z M10 17h1v1h-1z" />
    <path fill="#44384a" d="M14 8h1v1h-1z M12 13h1v1h-1z M12 14h1v1h-1z M11 15h1v1h-1z M13 16h1v1h-1z" />
    <path fill="#1a141b" d="M8 10h1v1h-1z M13 10h1v1h-1z M15 10h1v1h-1z M8 11h1v1h-1z M13 11h1v1h-1z M15 11h1v1h-1z M8 12h1v1h-1z M13 12h1v1h-1z M15 12h1v1h-1z M7 13h1v1h-1z M14 13h1v1h-1z M16 13h1v1h-1z M7 14h1v1h-1z M14 14h1v1h-1z M16 14h1v1h-1z M8 15h1v1h-1z M8 16h1v1h-1z M9 16h1v1h-1z M14 16h1v1h-1z M8 17h1v1h-1z M13 17h1v1h-1z M14 17h1v1h-1z" />
    <path fill="#110d12" d="M8 18h1v1h-1z M9 18h1v1h-1z M7 19h1v1h-1z M8 19h1v1h-1z M9 19h1v1h-1z M13 19h1v1h-1z M14 19h1v1h-1z M13 20h1v1h-1z M14 20h1v1h-1z M15 20h1v1h-1z" />
  </g>
  <g id="frame_5_1" transform="translate(24 120)">
    <path fill="#140c17" d="M10 3h1v1h-1z M13 3h1v1h-1z M8 4h1v1h-1z M16 4h1v1h-1z M7 5h1v1h-1z M17 5h1v1h-1z M6 6h1v1h-1z M7 6h1v1h-1z M17 6h1v1h-1z M18 6h1v1h-1z M5 7h1v1h-1z M6 7h1v1h-1z M7 7h1v1h-1z M8 7h1v1h-1z M9 7h1v1h-1z M10 7h1v1h-1z M11 7h1v1h-1z M12 7h1v1h-1z M13 7h1v1h-1z M14 7h1v1h-1z M15 7h1v1h-1z M16 7h1v1h-1z M17 7h1v1h-1z M18 7h1v1h-1z M19 7h1v1h-1z" />
    <path fill="#281a2b" d="M11 3h1v1h-1z M12 3h1v1h-1z M9 4h1v1h-1z M10 4h1v1h-1z M11 4h1v1h-1z M12 4h1v1h-1z M13 4h1v1h-1z M15 4h1v1h-1z M8 5h1v1h-1z M9 5h1v1h-1z M10 5h1v1h-1z M11 5h1v1h-1z M12 5h1v1h-1z M13 5h1v1h-1z M14 5h1v1h-1z M16 5h1v1h-1z M8 6h1v1h-1z M9 6h1v1h-1z M10 6h1v1h-1z M11 6h1v1h-1z M12 6h1v1h-1z M13 6h1v1h-1z M14 6h1v1h-1z M16 6h1v1h-1z" />
    <path fill="#412d45" d="M14 4h1v1h-1z M15 5h1v1h-1z M15 6h1v1h-1z" />
    <path fill="#2b232e" d="M7 8h1v1h-1z M8 8h1v1h-1z M9 8h1v1h-1z M10 8h1v1h-1z M11 8h1v1h-1z M12 8h1v1h-1z M13 8h1v1h-1z M14 8h1v1h-1z M15 8h1v1h-1z M16 8h1v1h-1z M7 9h1v1h-1z M8 9h1v1h-1z M9 9h1v1h-1z M10 9h1v1h-1z M11 9h1v1h-1z M12 9h1v1h-1z M13 9h1v1h-1z M15 9h1v1h-1z M16 9h1v1h-1z M7 10h1v1h-1z M8 10h1v1h-1z M9 10h1v1h-1z M10 10h1v1h-1z M11 10h1v1h-1z M12 10h1v1h-1z M13 10h1v1h-1z M14 10h1v1h-1z M15 10h1v1h-1z M16 10h1v1h-1z M9 11h1v1h-1z M10 11h1v1h-1z M11 11h1v1h-1z M12 11h1v1h-1z M14 11h1v1h-1z M9 12h1v1h-1z M10 12h1v1h-1z M11 12h1v1h-1z M12 12h1v1h-1z M14 12h1v1h-1z M7 13h1v1h-1z M9 13h1v1h-1z M10 13h1v1h-1z M11 13h1v1h-1z M12 13h1v1h-1z M14 13h1v1h-1z M16 13h1v1h-1z M6 14h1v1h-1z M8 14h1v1h-1z M9 14h1v1h-1z M10 14h1v1h-1z M11 14h1v1h-1z M13 14h1v1h-1z M15 14h1v1h-1z M17 14h1v1h-1z M5 15h1v1h-1z M6 15h1v1h-1z M8 15h1v1h-1z M9 15h1v1h-1z M10 15h1v1h-1z M11 15h1v1h-1z M13 15h1v1h-1z M15 15h1v1h-1z M17 15h1v1h-1z M18 15h1v1h-1z M4 16h1v1h-1z M5 16h1v1h-1z M9 16h1v1h-1z M10 16h1v1h-1z M12 16h1v1h-1z M13 16h1v1h-1z M14 16h1v1h-1z M18 16h1v1h-1z M19 16h1v1h-1z M4 17h1v1h-1z M5 17h1v1h-1z M10 17h1v1h-1z M11 17h1v1h-1z M12 17h1v1h-1z M18 17h1v1h-1z M19 17h1v1h-1z M9 18h1v1h-1z M10 18h1v1h-1z M11 18h1v1h-1z M12 18h1v1h-1z M14 18h1v1h-1z" />
    <path fill="#44384a" d="M14 9h1v1h-1z M12 14h1v1h-1z M12 15h1v1h-1z M11 16h1v1h-1z M13 17h1v1h-1z" />
    <path fill="#1a141b" d="M8 11h1v1h-1z M13 11h1v1h-1z M15 11h1v1h-1z M8 12h1v1h-1z M13 12h1v1h-1z M15 12h1v1h-1z M8 13h1v1h-1z M13 13h1v1h-1z M15 13h1v1h-1z M7 14h1v1h-1z M14 14h1v1h-1z M16 14h1v1h-1z M7 15h1v1h-1z M14 15h1v1h-1z M16 15h1v1h-1z M8 16h1v1h-1z M8 17h1v1h-1z M9 17h1v1h-1z M14 17h1v1h-1z M8 18h1v1h-1z M13 18h1v1h-1z" />
    <path fill="#110d12" d="M8 19h1v1h-1z M9 19h1v1h-1z M13 19h1v1h-1z M14 19h1v1h-1z M7 20h1v1h-1z M8 20h1v1h-1z M9 20h1v1h-1z M13 20h1v1h-1z M14 20h1v1h-1z M15 20h1v1h-1z" />
  </g>
  <g id="frame_5_2" transform="translate(48 120)">
    <path fill="#140c17" d="M10 2h1v1h-1z M13 2h1v1h-1z M8 3h1v1h-1z M16 3h1v1h-1z M7 4h1v1h-1z M17 4h1v1h-1z M6 5h1v1h-1z M7 5h1v1h-1z M17 5h1v1h-1z M18 5h1v1h-1z M5 6h1v1h-1z M6 6h1v1h-1z M7 6h1v1h-1z M8 6h1v1h-1z M9 6h1v1h-1z M10 6h1v1h-1z M11 6h1v1h-1z M12 6h1v1h-1z M13 6h1v1h-1z M14 6h1v1h-1z M15 6h1v1h-1z M16 6h1v1h-1z M17 6h1v1h-1z M18 6h1v1h-1z M19 6h1v1h-1z" />
    <path fill="#281a2b" d="M11 2h1v1h-1z M12 2h1v1h-1z M9 3h1v1h-1z M10 3h1v1h-1z M11 3h1v1h-1z M12 3h1v1h-1z M13 3h1v1h-1z M15 3h1v1h-1z M8 4h1v1h-1z M9 4h1v1h-1z M10 4h1v1h-1z M11 4h1v1h-1z M12 4h1v1h-1z M13 4h1v1h-1z M14 4h1v1h-1z M16 4h1v1h-1z M8 5h1v1h-1z M9 5h1v1h-1z M10 5h1v1h-1z M11 5h1v1h-1z M12 5h1v1h-1z M13 5h1v1h-1z M14 5h1v1h-1z M16 5h1v1h-1z" />
    <path fill="#412d45" d="M14 3h1v1h-1z M15 4h1v1h-1z M15 5h1v1h-1z" />
    <path fill="#2b232e" d="M7 7h1v1h-1z M8 7h1v1h-1z M9 7h1v1h-1z M10 7h1v1h-1z M11 7h1v1h-1z M12 7h1v1h-1z M13 7h1v1h-1z M14 7h1v1h-1z M15 7h1v1h-1z M16 7h1v1h-1z M7 8h1v1h-1z M8 8h1v1h-1z M9 8h1v1h-1z M10 8h1v1h-1z M11 8h1v1h-1z M12 8h1v1h-1z M13 8h1v1h-1z M15 8h1v1h-1z M16 8h1v1h-1z M7 9h1v1h-1z M8 9h1v1h-1z M9 9h1v1h-1z M10 9h1v1h-1z M11 9h1v1h-1z M12 9h1v1h-1z M13 9h1v1h-1z M14 9h1v1h-1z M15 9h1v1h-1z M16 9h1v1h-1z M9 10h1v1h-1z M10 10h1v1h-1z M11 10h1v1h-1z M12 10h1v1h-1z M14 10h1v1h-1z M9 11h1v1h-1z M10 11h1v1h-1z M11 11h1v1h-1z M12 11h1v1h-1z M14 11h1v1h-1z M7 12h1v1h-1z M9 12h1v1h-1z M10 12h1v1h-1z M11 12h1v1h-1z M12 12h1v1h-1z M14 12h1v1h-1z M16 12h1v1h-1z M6 13h1v1h-1z M8 13h1v1h-1z M9 13h1v1h-1z M10 13h1v1h-1z M11 13h1v1h-1z M13 13h1v1h-1z M15 13h1v1h-1z M17 13h1v1h-1z M5 14h1v1h-1z M6 14h1v1h-1z M8 14h1v1h-1z M9 14h1v1h-1z M10 14h1v1h-1z M11 14h1v1h-1z M13 14h1v1h-1z M15 14h1v1h-1z M17 14h1v1h-1z M18 14h1v1h-1z M4 15h1v1h-1z M5 15h1v1h-1z M9 15h1v1h-1z M10 15h1v1h-1z M12 15h1v1h-1z M13 15h1v1h-1z M14 15h1v1h-1z M18 15h1v1h-1z M19 15h1v1h-1z M10 16h1v1h-1z M11 16h1v1h-1z M12 16h1v1h-1z M15 16h1v1h-1z M13 17h1v1h-1z M14 17h1v1h-1z" />
    <path fill="#44384a" d="M14 8h1v1h-1z M12 13h1v1h-1z M12 14h1v1h-1z M11 15h1v1h-1z M13 16h1v1h-1z" />
    <path fill="#1a141b" d="M8 10h1v1h-1z M13 10h1v1h-1z M15 10h1v1h-1z M8 11h1v1h-1z M13 11h1v1h-1z M15 11h1v1h-1z M8 12h1v1h-1z M13 12h1v1h-1z M15 12h1v1h-1z M7 13h1v1h-1z M14 13h1v1h-1z M16 13h1v1h-1z M7 14h1v1h-1z M14 14h1v1h-1z M16 14h1v1h-1z M8 15h1v1h-1z M8 16h1v1h-1z M9 16h1v1h-1z M14 16h1v1h-1z M9 17h1v1h-1z M10 17h1v1h-1z M15 17h1v1h-1z" />
    <path fill="#110d12" d="M14 18h1v1h-1z M15 18h1v1h-1z M9 19h1v1h-1z M10 19h1v1h-1z M13 19h1v1h-1z M14 19h1v1h-1z M15 19h1v1h-1z M8 20h1v1h-1z M9 20h1v1h-1z M10 20h1v1h-1z" />
  </g>
  <g id="frame_5_3" transform="translate(72 120)">
    <path fill="#140c17" d="M10 3h1v1h-1z M13 3h1v1h-1z M8 4h1v1h-1z M16 4h1v1h-1z M7 5h1v1h-1z M17 5h1v1h-1z M6 6h1v1h-1z M7 6h1v1h-1z M17 6h1v1h-1z M18 6h1v1h-1z M5 7h1v1h-1z M6 7h1v1h-1z M7 7h1v1h-1z M8 7h1v1h-1z M9 7h1v1h-1z M10 7h1v1h-1z M11 7h1v1h-1z M12 7h1v1h-1z M13 7h1v1h-1z M14 7h1v1h-1z M15 7h1v1h-1z M16 7h1v1h-1z M17 7h1v1h-1z M18 7h1v1h-1z M19 7h1v1h-1z" />
    <path fill="#281a2b" d="M11 3h1v1h-1z M12 3h1v1h-1z M9 4h1v1h-1z M10 4h1v1h-1z M11 4h1v1h-1z M12 4h1v1h-1z M13 4h1v1h-1z M15 4h1v1h-1z M8 5h1v1h-1z M9 5h1v1h-1z M10 5h1v1h-1z M11 5h1v1h-1z M12 5h1v1h-1z M13 5h1v1h-1z M14 5h1v1h-1z M16 5h1v1h-1z M8 6h1v1h-1z M9 6h1v1h-1z M10 6h1v1h-1z M11 6h1v1h-1z M12 6h1v1h-1z M13 6h1v1h-1z M14 6h1v1h-1z M16 6h1v1h-1z" />
    <path fill="#412d45" d="M14 4h1v1h-1z M15 5h1v1h-1z M15 6h1v1h-1z" />
    <path fill="#2b232e" d="M7 8h1v1h-1z M8 8h1v1h-1z M9 8h1v1h-1z M10 8h1v1h-1z M11 8h1v1h-1z M12 8h1v1h-1z M13 8h1v1h-1z M14 8h1v1h-1z M15 8h1v1h-1z M16 8h1v1h-1z M7 9h1v1h-1z M8 9h1v1h-1z M9 9h1v1h-1z M10 9h1v1h-1z M11 9h1v1h-1z M12 9h1v1h-1z M13 9h1v1h-1z M15 9h1v1h-1z M16 9h1v1h-1z M7 10h1v1h-1z M8 10h1v1h-1z M9 10h1v1h-1z M10 10h1v1h-1z M11 10h1v1h-1z M12 10h1v1h-1z M13 10h1v1h-1z M14 10h1v1h-1z M15 10h1v1h-1z M16 10h1v1h-1z M9 11h1v1h-1z M10 11h1v1h-1z M11 11h1v1h-1z M12 11h1v1h-1z M14 11h1v1h-1z M9 12h1v1h-1z M10 12h1v1h-1z M11 12h1v1h-1z M12 12h1v1h-1z M14 12h1v1h-1z M7 13h1v1h-1z M9 13h1v1h-1z M10 13h1v1h-1z M11 13h1v1h-1z M12 13h1v1h-1z M14 13h1v1h-1z M16 13h1v1h-1z M6 14h1v1h-1z M8 14h1v1h-1z M9 14h1v1h-1z M10 14h1v1h-1z M11 14h1v1h-1z M13 14h1v1h-1z M15 14h1v1h-1z M17 14h1v1h-1z M5 15h1v1h-1z M6 15h1v1h-1z M8 15h1v1h-1z M9 15h1v1h-1z M10 15h1v1h-1z M11 15h1v1h-1z M13 15h1v1h-1z M15 15h1v1h-1z M17 15h1v1h-1z M18 15h1v1h-1z M4 16h1v1h-1z M5 16h1v1h-1z M9 16h1v1h-1z M10 16h1v1h-1z M12 16h1v1h-1z M13 16h1v1h-1z M14 16h1v1h-1z M18 16h1v1h-1z M19 16h1v1h-1z M4 17h1v1h-1z M5 17h1v1h-1z M10 17h1v1h-1z M11 17h1v1h-1z M12 17h1v1h-1z M18 17h1v1h-1z M19 17h1v1h-1z M9 18h1v1h-1z M10 18h1v1h-1z M11 18h1v1h-1z M12 18h1v1h-1z M14 18h1v1h-1z" />
    <path fill="#44384a" d="M14 9h1v1h-1z M12 14h1v1h-1z M12 15h1v1h-1z M11 16h1v1h-1z M13 17h1v1h-1z" />
    <path fill="#1a141b" d="M8 11h1v1h-1z M13 11h1v1h-1z M15 11h1v1h-1z M8 12h1v1h-1z M13 12h1v1h-1z M15 12h1v1h-1z M8 13h1v1h-1z M13 13h1v1h-1z M15 13h1v1h-1z M7 14h1v1h-1z M14 14h1v1h-1z M16 14h1v1h-1z M7 15h1v1h-1z M14 15h1v1h-1z M16 15h1v1h-1z M8 16h1v1h-1z M8 17h1v1h-1z M9 17h1v1h-1z M14 17h1v1h-1z M8 18h1v1h-1z M13 18h1v1h-1z" />
    <path fill="#110d12" d="M8 19h1v1h-1z M9 19h1v1h-1z M13 19h1v1h-1z M14 19h1v1h-1z M7 20h1v1h-1z M8 20h1v1h-1z M9 20h1v1h-1z M13 20h1v1h-1z M14 20h1v1h-1z M15 20h1v1h-1z" />
  </g>
  <g id="frame_6_0" transform="translate(0 144)">
    <path fill="#140c17" d="M9 4h1v1h-1z M12 4h1v1h-1z M7 5h1v1h-1z M15 5h1v1h-1z M6 6h1v1h-1z M16 6h1v1h-1z M5 7h1v1h-1z M6 7h1v1h-1z M16 7h1v1h-1z M17 7h1v1h-1z M4 8h1v1h-1z M5 8h1v1h-1z M6 8h1v1h-1z M7 8h1v1h-1z M8 8h1v1h-1z M9 8h1v1h-1z M10 8h1v1h-1z M11 8h1v1h-1z M12 8h1v1h-1z M13 8h1v1h-1z M14 8h1v1h-1z M15 8h1v1h-1z M16 8h1v1h-1z M17 8h1v1h-1z M18 8h1v1h-1z" />
    <path fill="#281a2b" d="M10 4h1v1h-1z M11 4h1v1h-1z M8 5h1v1h-1z M9 5h1v1h-1z M10 5h1v1h-1z M11 5h1v1h-1z M12 5h1v1h-1z M14 5h1v1h-1z M7 6h1v1h-1z M8 6h1v1h-1z M9 6h1v1h-1z M10 6h1v1h-1z M11 6h1v1h-1z M12 6h1v1h-1z M13 6h1v1h-1z M15 6h1v1h-1z M7 7h1v1h-1z M8 7h1v1h-1z M9 7h1v1h-1z M10 7h1v1h-1z M11 7h1v1h-1z M12 7h1v1h-1z M13 7h1v1h-1z M15 7h1v1h-1z" />
    <path fill="#412d45" d="M13 5h1v1h-1z M14 6h1v1h-1z M14 7h1v1h-1z" />
    <path fill="#f0d9c7" d="M6 9h1v1h-1z M9 9h1v1h-1z M10 9h1v1h-1z M11 9h1v1h-1z M15 9h1v1h-1z M10 10h1v1h-1z M11 10h1v1h-1z M6 11h1v1h-1z M9 11h1v1h-1z M10 11h1v1h-1z M12 11h1v1h-1z M13 11h1v1h-1z M15 11h1v1h-1z" />
    <path fill="#9c7764" d="M7 9h1v1h-1z M8 9h1v1h-1z M12 9h1v1h-1z M13 9h1v1h-1z M14 9h1v1h-1z M7 11h1v1h-1z M8 11h1v1h-1z M11 11h1v1h-1z M14 11h1v1h-1z M15 12h1v1h-1z" />
    <path fill="#9e223a" d="M6 10h1v1h-1z M9 10h1v1h-1z M12 10h1v1h-1z M15 10h1v1h-1z" />
    <path fill="#ffffff" d="M7 10h1v1h-1z M14 10h1v1h-1z" />
    <path fill="#3b9ca3" d="M8 10h1v1h-1z M13 10h1v1h-1z" />
    <path fill="#631122" d="M7 12h1v1h-1z M7 13h1v1h-1z" />
    <path fill="#a8203c" d="M8 12h1v1h-1z M9 12h1v1h-1z M10 12h1v1h-1z M12 12h1v1h-1z M13 12h1v1h-1z M14 12h1v1h-1z M8 13h1v1h-1z M13 13h1v1h-1z M14 13h1v1h-1z M8 14h1v1h-1z M14 14h1v1h-1z" />
    <path fill="#e83858" d="M11 12h1v1h-1z M9 13h1v1h-1z" />
    <path fill="#bd152e" d="M10 13h1v1h-1z M12 13h1v1h-1z M9 14h1v1h-1z M10 14h1v1h-1z M12 14h1v1h-1z M11 15h1v1h-1z" />
    <path fill="#7a0a1a" d="M11 13h1v1h-1z M11 14h1v1h-1z M13 14h1v1h-1z M10 15h1v1h-1z" />
    <path fill="#2b232e" d="M6 14h1v1h-1z M15 14h1v1h-1z M5 15h1v1h-1z M6 15h1v1h-1z M9 15h1v1h-1z M12 15h1v1h-1z M14 15h1v1h-1z M5 16h1v1h-1z M6 16h1v1h-1z M9 16h1v1h-1z M12 16h1v1h-1z M9 17h1v1h-1z M12 17h1v1h-1z M9 18h1v1h-1z M10 18h1v1h-1z M12 18h1v1h-1z M13 18h1v1h-1z" />
    <path fill="#1a141b" d="M7 14h1v1h-1z M7 15h1v1h-1z M8 16h1v1h-1z M14 16h1v1h-1z M8 17h1v1h-1z M14 17h1v1h-1z M11 18h1v1h-1z M14 18h1v1h-1z" />
    <path fill="#44384a" d="M8 15h1v1h-1z M13 15h1v1h-1z M13 16h1v1h-1z M13 17h1v1h-1z" />
    <path fill="#ccab97" d="M16 15h1v1h-1z M17 15h1v1h-1z M16 16h1v1h-1z M17 16h1v1h-1z" />
    <path fill="#f0c756" d="M10 16h1v1h-1z M10 17h1v1h-1z" />
    <path fill="#a88122" d="M11 16h1v1h-1z M11 17h1v1h-1z" />
    <path fill="#110d12" d="M8 19h1v1h-1z M9 19h1v1h-1z M13 19h1v1h-1z M7 20h1v1h-1z M8 20h1v1h-1z M9 20h1v1h-1z M12 20h1v1h-1z M13 20h1v1h-1z" />
  </g>
  <g id="frame_6_1" transform="translate(24 144)">
    <path fill="#140c17" d="M9 4h1v1h-1z M12 4h1v1h-1z M7 5h1v1h-1z M15 5h1v1h-1z M6 6h1v1h-1z M16 6h1v1h-1z M5 7h1v1h-1z M6 7h1v1h-1z M16 7h1v1h-1z M17 7h1v1h-1z M4 8h1v1h-1z M5 8h1v1h-1z M6 8h1v1h-1z M7 8h1v1h-1z M8 8h1v1h-1z M9 8h1v1h-1z M10 8h1v1h-1z M11 8h1v1h-1z M12 8h1v1h-1z M13 8h1v1h-1z M14 8h1v1h-1z M15 8h1v1h-1z M16 8h1v1h-1z M17 8h1v1h-1z M18 8h1v1h-1z" />
    <path fill="#281a2b" d="M10 4h1v1h-1z M11 4h1v1h-1z M8 5h1v1h-1z M9 5h1v1h-1z M10 5h1v1h-1z M11 5h1v1h-1z M12 5h1v1h-1z M14 5h1v1h-1z M7 6h1v1h-1z M8 6h1v1h-1z M9 6h1v1h-1z M10 6h1v1h-1z M11 6h1v1h-1z M12 6h1v1h-1z M13 6h1v1h-1z M15 6h1v1h-1z M7 7h1v1h-1z M8 7h1v1h-1z M9 7h1v1h-1z M10 7h1v1h-1z M11 7h1v1h-1z M12 7h1v1h-1z M13 7h1v1h-1z M15 7h1v1h-1z" />
    <path fill="#412d45" d="M13 5h1v1h-1z M14 6h1v1h-1z M14 7h1v1h-1z" />
    <path fill="#f0d9c7" d="M6 9h1v1h-1z M9 9h1v1h-1z M10 9h1v1h-1z M11 9h1v1h-1z M15 9h1v1h-1z M10 10h1v1h-1z M11 10h1v1h-1z M6 11h1v1h-1z M9 11h1v1h-1z M10 11h1v1h-1z M12 11h1v1h-1z M13 11h1v1h-1z M15 11h1v1h-1z" />
    <path fill="#9c7764" d="M7 9h1v1h-1z M8 9h1v1h-1z M12 9h1v1h-1z M13 9h1v1h-1z M14 9h1v1h-1z M7 11h1v1h-1z M8 11h1v1h-1z M11 11h1v1h-1z M14 11h1v1h-1z M15 12h1v1h-1z" />
    <path fill="#9e223a" d="M6 10h1v1h-1z M9 10h1v1h-1z M12 10h1v1h-1z M15 10h1v1h-1z" />
    <path fill="#ffffff" d="M7 10h1v1h-1z M14 10h1v1h-1z" />
    <path fill="#3b9ca3" d="M8 10h1v1h-1z M13 10h1v1h-1z" />
    <path fill="#631122" d="M7 12h1v1h-1z M7 13h1v1h-1z" />
    <path fill="#a8203c" d="M8 12h1v1h-1z M9 12h1v1h-1z M10 12h1v1h-1z M12 12h1v1h-1z M13 12h1v1h-1z M14 12h1v1h-1z M8 13h1v1h-1z M13 13h1v1h-1z M14 13h1v1h-1z M8 14h1v1h-1z M14 14h1v1h-1z" />
    <path fill="#e83858" d="M11 12h1v1h-1z M9 13h1v1h-1z" />
    <path fill="#bd152e" d="M10 13h1v1h-1z M12 13h1v1h-1z M9 14h1v1h-1z M10 14h1v1h-1z M12 14h1v1h-1z M11 15h1v1h-1z" />
    <path fill="#7a0a1a" d="M11 13h1v1h-1z M11 14h1v1h-1z M13 14h1v1h-1z M10 15h1v1h-1z" />
    <path fill="#2b232e" d="M6 14h1v1h-1z M15 14h1v1h-1z M5 15h1v1h-1z M6 15h1v1h-1z M9 15h1v1h-1z M12 15h1v1h-1z M14 15h1v1h-1z M5 16h1v1h-1z M6 16h1v1h-1z M9 16h1v1h-1z M12 16h1v1h-1z M9 17h1v1h-1z M12 17h1v1h-1z M9 18h1v1h-1z M10 18h1v1h-1z M12 18h1v1h-1z M13 18h1v1h-1z" />
    <path fill="#1a141b" d="M7 14h1v1h-1z M7 15h1v1h-1z M8 16h1v1h-1z M14 16h1v1h-1z M8 17h1v1h-1z M14 17h1v1h-1z M11 18h1v1h-1z M14 18h1v1h-1z" />
    <path fill="#44384a" d="M8 15h1v1h-1z M13 15h1v1h-1z M13 16h1v1h-1z M13 17h1v1h-1z" />
    <path fill="#ccab97" d="M16 15h1v1h-1z M17 15h1v1h-1z M16 16h1v1h-1z M17 16h1v1h-1z" />
    <path fill="#f0c756" d="M10 16h1v1h-1z M10 17h1v1h-1z" />
    <path fill="#a88122" d="M11 16h1v1h-1z M11 17h1v1h-1z" />
    <path fill="#110d12" d="M8 19h1v1h-1z M9 19h1v1h-1z M13 19h1v1h-1z M7 20h1v1h-1z M8 20h1v1h-1z M9 20h1v1h-1z M12 20h1v1h-1z M13 20h1v1h-1z" />
  </g>
  <g id="frame_6_2" transform="translate(48 144)">
    <path fill="#140c17" d="M9 4h1v1h-1z M12 4h1v1h-1z M7 5h1v1h-1z M15 5h1v1h-1z M6 6h1v1h-1z M16 6h1v1h-1z M5 7h1v1h-1z M6 7h1v1h-1z M16 7h1v1h-1z M17 7h1v1h-1z M4 8h1v1h-1z M5 8h1v1h-1z M6 8h1v1h-1z M7 8h1v1h-1z M8 8h1v1h-1z M9 8h1v1h-1z M10 8h1v1h-1z M11 8h1v1h-1z M12 8h1v1h-1z M13 8h1v1h-1z M14 8h1v1h-1z M15 8h1v1h-1z M16 8h1v1h-1z M17 8h1v1h-1z M18 8h1v1h-1z" />
    <path fill="#281a2b" d="M10 4h1v1h-1z M11 4h1v1h-1z M8 5h1v1h-1z M9 5h1v1h-1z M10 5h1v1h-1z M11 5h1v1h-1z M12 5h1v1h-1z M14 5h1v1h-1z M7 6h1v1h-1z M8 6h1v1h-1z M9 6h1v1h-1z M10 6h1v1h-1z M11 6h1v1h-1z M12 6h1v1h-1z M13 6h1v1h-1z M15 6h1v1h-1z M7 7h1v1h-1z M8 7h1v1h-1z M9 7h1v1h-1z M10 7h1v1h-1z M11 7h1v1h-1z M12 7h1v1h-1z M13 7h1v1h-1z M15 7h1v1h-1z" />
    <path fill="#412d45" d="M13 5h1v1h-1z M14 6h1v1h-1z M14 7h1v1h-1z" />
    <path fill="#f0d9c7" d="M6 9h1v1h-1z M9 9h1v1h-1z M10 9h1v1h-1z M11 9h1v1h-1z M15 9h1v1h-1z M10 10h1v1h-1z M11 10h1v1h-1z M6 11h1v1h-1z M9 11h1v1h-1z M10 11h1v1h-1z M12 11h1v1h-1z M13 11h1v1h-1z M15 11h1v1h-1z" />
    <path fill="#9c7764" d="M7 9h1v1h-1z M8 9h1v1h-1z M12 9h1v1h-1z M13 9h1v1h-1z M14 9h1v1h-1z M7 11h1v1h-1z M8 11h1v1h-1z M11 11h1v1h-1z M14 11h1v1h-1z M15 12h1v1h-1z" />
    <path fill="#9e223a" d="M6 10h1v1h-1z M9 10h1v1h-1z M12 10h1v1h-1z M15 10h1v1h-1z" />
    <path fill="#ffffff" d="M7 10h1v1h-1z M14 10h1v1h-1z" />
    <path fill="#3b9ca3" d="M8 10h1v1h-1z M13 10h1v1h-1z" />
    <path fill="#631122" d="M7 12h1v1h-1z M7 13h1v1h-1z" />
    <path fill="#a8203c" d="M8 12h1v1h-1z M9 12h1v1h-1z M10 12h1v1h-1z M12 12h1v1h-1z M13 12h1v1h-1z M14 12h1v1h-1z M8 13h1v1h-1z M13 13h1v1h-1z M14 13h1v1h-1z M8 14h1v1h-1z M14 14h1v1h-1z" />
    <path fill="#e83858" d="M11 12h1v1h-1z M9 13h1v1h-1z" />
    <path fill="#bd152e" d="M10 13h1v1h-1z M12 13h1v1h-1z M9 14h1v1h-1z M10 14h1v1h-1z M12 14h1v1h-1z M11 15h1v1h-1z" />
    <path fill="#7a0a1a" d="M11 13h1v1h-1z M11 14h1v1h-1z M13 14h1v1h-1z M10 15h1v1h-1z" />
    <path fill="#2b232e" d="M6 14h1v1h-1z M15 14h1v1h-1z M5 15h1v1h-1z M6 15h1v1h-1z M9 15h1v1h-1z M12 15h1v1h-1z M14 15h1v1h-1z M5 16h1v1h-1z M6 16h1v1h-1z M9 16h1v1h-1z M12 16h1v1h-1z M9 17h1v1h-1z M12 17h1v1h-1z M9 18h1v1h-1z M10 18h1v1h-1z M12 18h1v1h-1z M13 18h1v1h-1z" />
    <path fill="#1a141b" d="M7 14h1v1h-1z M7 15h1v1h-1z M8 16h1v1h-1z M14 16h1v1h-1z M8 17h1v1h-1z M14 17h1v1h-1z M11 18h1v1h-1z M14 18h1v1h-1z" />
    <path fill="#44384a" d="M8 15h1v1h-1z M13 15h1v1h-1z M13 16h1v1h-1z M13 17h1v1h-1z" />
    <path fill="#ccab97" d="M16 15h1v1h-1z M17 15h1v1h-1z M16 16h1v1h-1z M17 16h1v1h-1z" />
    <path fill="#f0c756" d="M10 16h1v1h-1z M10 17h1v1h-1z" />
    <path fill="#a88122" d="M11 16h1v1h-1z M11 17h1v1h-1z" />
    <path fill="#110d12" d="M8 19h1v1h-1z M9 19h1v1h-1z M13 19h1v1h-1z M7 20h1v1h-1z M8 20h1v1h-1z M9 20h1v1h-1z M12 20h1v1h-1z M13 20h1v1h-1z" />
  </g>
  <g id="frame_6_3" transform="translate(72 144)">
    <path fill="#140c17" d="M9 4h1v1h-1z M12 4h1v1h-1z M7 5h1v1h-1z M15 5h1v1h-1z M6 6h1v1h-1z M16 6h1v1h-1z M5 7h1v1h-1z M6 7h1v1h-1z M16 7h1v1h-1z M17 7h1v1h-1z M4 8h1v1h-1z M5 8h1v1h-1z M6 8h1v1h-1z M7 8h1v1h-1z M8 8h1v1h-1z M9 8h1v1h-1z M10 8h1v1h-1z M11 8h1v1h-1z M12 8h1v1h-1z M13 8h1v1h-1z M14 8h1v1h-1z M15 8h1v1h-1z M16 8h1v1h-1z M17 8h1v1h-1z M18 8h1v1h-1z" />
    <path fill="#281a2b" d="M10 4h1v1h-1z M11 4h1v1h-1z M8 5h1v1h-1z M9 5h1v1h-1z M10 5h1v1h-1z M11 5h1v1h-1z M12 5h1v1h-1z M14 5h1v1h-1z M7 6h1v1h-1z M8 6h1v1h-1z M9 6h1v1h-1z M10 6h1v1h-1z M11 6h1v1h-1z M12 6h1v1h-1z M13 6h1v1h-1z M15 6h1v1h-1z M7 7h1v1h-1z M8 7h1v1h-1z M9 7h1v1h-1z M10 7h1v1h-1z M11 7h1v1h-1z M12 7h1v1h-1z M13 7h1v1h-1z M15 7h1v1h-1z" />
    <path fill="#412d45" d="M13 5h1v1h-1z M14 6h1v1h-1z M14 7h1v1h-1z" />
    <path fill="#f0d9c7" d="M6 9h1v1h-1z M9 9h1v1h-1z M10 9h1v1h-1z M11 9h1v1h-1z M15 9h1v1h-1z M10 10h1v1h-1z M11 10h1v1h-1z M6 11h1v1h-1z M9 11h1v1h-1z M10 11h1v1h-1z M12 11h1v1h-1z M13 11h1v1h-1z M15 11h1v1h-1z" />
    <path fill="#9c7764" d="M7 9h1v1h-1z M8 9h1v1h-1z M12 9h1v1h-1z M13 9h1v1h-1z M14 9h1v1h-1z M7 11h1v1h-1z M8 11h1v1h-1z M11 11h1v1h-1z M14 11h1v1h-1z M15 12h1v1h-1z" />
    <path fill="#9e223a" d="M6 10h1v1h-1z M9 10h1v1h-1z M12 10h1v1h-1z M15 10h1v1h-1z" />
    <path fill="#ffffff" d="M7 10h1v1h-1z M14 10h1v1h-1z" />
    <path fill="#3b9ca3" d="M8 10h1v1h-1z M13 10h1v1h-1z" />
    <path fill="#631122" d="M7 12h1v1h-1z M7 13h1v1h-1z" />
    <path fill="#a8203c" d="M8 12h1v1h-1z M9 12h1v1h-1z M10 12h1v1h-1z M12 12h1v1h-1z M13 12h1v1h-1z M14 12h1v1h-1z M8 13h1v1h-1z M13 13h1v1h-1z M14 13h1v1h-1z M8 14h1v1h-1z M14 14h1v1h-1z" />
    <path fill="#e83858" d="M11 12h1v1h-1z M9 13h1v1h-1z" />
    <path fill="#bd152e" d="M10 13h1v1h-1z M12 13h1v1h-1z M9 14h1v1h-1z M10 14h1v1h-1z M12 14h1v1h-1z M11 15h1v1h-1z" />
    <path fill="#7a0a1a" d="M11 13h1v1h-1z M11 14h1v1h-1z M13 14h1v1h-1z M10 15h1v1h-1z" />
    <path fill="#2b232e" d="M6 14h1v1h-1z M15 14h1v1h-1z M5 15h1v1h-1z M6 15h1v1h-1z M9 15h1v1h-1z M12 15h1v1h-1z M14 15h1v1h-1z M5 16h1v1h-1z M6 16h1v1h-1z M9 16h1v1h-1z M12 16h1v1h-1z M9 17h1v1h-1z M12 17h1v1h-1z M9 18h1v1h-1z M10 18h1v1h-1z M12 18h1v1h-1z M13 18h1v1h-1z" />
    <path fill="#1a141b" d="M7 14h1v1h-1z M7 15h1v1h-1z M8 16h1v1h-1z M14 16h1v1h-1z M8 17h1v1h-1z M14 17h1v1h-1z M11 18h1v1h-1z M14 18h1v1h-1z" />
    <path fill="#44384a" d="M8 15h1v1h-1z M13 15h1v1h-1z M13 16h1v1h-1z M13 17h1v1h-1z" />
    <path fill="#ccab97" d="M16 15h1v1h-1z M17 15h1v1h-1z M16 16h1v1h-1z M17 16h1v1h-1z" />
    <path fill="#f0c756" d="M10 16h1v1h-1z M10 17h1v1h-1z" />
    <path fill="#a88122" d="M11 16h1v1h-1z M11 17h1v1h-1z" />
    <path fill="#110d12" d="M8 19h1v1h-1z M9 19h1v1h-1z M13 19h1v1h-1z M7 20h1v1h-1z M8 20h1v1h-1z M9 20h1v1h-1z M12 20h1v1h-1z M13 20h1v1h-1z" />
  </g>
  <g id="frame_7_0" transform="translate(0 168)">
    <path fill="#140c17" d="M9 4h1v1h-1z M12 4h1v1h-1z M7 5h1v1h-1z M15 5h1v1h-1z M6 6h1v1h-1z M16 6h1v1h-1z M5 7h1v1h-1z M6 7h1v1h-1z M16 7h1v1h-1z M17 7h1v1h-1z M4 8h1v1h-1z M5 8h1v1h-1z M6 8h1v1h-1z M7 8h1v1h-1z M8 8h1v1h-1z M9 8h1v1h-1z M10 8h1v1h-1z M11 8h1v1h-1z M12 8h1v1h-1z M13 8h1v1h-1z M14 8h1v1h-1z M15 8h1v1h-1z M16 8h1v1h-1z M17 8h1v1h-1z M18 8h1v1h-1z" />
    <path fill="#281a2b" d="M10 4h1v1h-1z M11 4h1v1h-1z M8 5h1v1h-1z M9 5h1v1h-1z M10 5h1v1h-1z M11 5h1v1h-1z M12 5h1v1h-1z M14 5h1v1h-1z M7 6h1v1h-1z M8 6h1v1h-1z M9 6h1v1h-1z M10 6h1v1h-1z M11 6h1v1h-1z M12 6h1v1h-1z M13 6h1v1h-1z M15 6h1v1h-1z M7 7h1v1h-1z M8 7h1v1h-1z M9 7h1v1h-1z M10 7h1v1h-1z M11 7h1v1h-1z M12 7h1v1h-1z M13 7h1v1h-1z M15 7h1v1h-1z" />
    <path fill="#412d45" d="M13 5h1v1h-1z M14 6h1v1h-1z M14 7h1v1h-1z" />
    <path fill="#f0d9c7" d="M6 9h1v1h-1z M9 9h1v1h-1z M10 9h1v1h-1z M11 9h1v1h-1z M15 9h1v1h-1z M10 10h1v1h-1z M11 10h1v1h-1z M6 11h1v1h-1z M9 11h1v1h-1z M10 11h1v1h-1z M12 11h1v1h-1z M13 11h1v1h-1z M15 11h1v1h-1z" />
    <path fill="#9c7764" d="M7 9h1v1h-1z M8 9h1v1h-1z M12 9h1v1h-1z M13 9h1v1h-1z M14 9h1v1h-1z M7 11h1v1h-1z M8 11h1v1h-1z M11 11h1v1h-1z M14 11h1v1h-1z M15 12h1v1h-1z" />
    <path fill="#9e223a" d="M6 10h1v1h-1z M9 10h1v1h-1z M12 10h1v1h-1z M15 10h1v1h-1z" />
    <path fill="#ffffff" d="M7 10h1v1h-1z M14 10h1v1h-1z" />
    <path fill="#3b9ca3" d="M8 10h1v1h-1z M13 10h1v1h-1z" />
    <path fill="#631122" d="M7 12h1v1h-1z M7 13h1v1h-1z" />
    <path fill="#a8203c" d="M8 12h1v1h-1z M9 12h1v1h-1z M10 12h1v1h-1z M12 12h1v1h-1z M13 12h1v1h-1z M14 12h1v1h-1z M8 13h1v1h-1z M13 13h1v1h-1z M14 13h1v1h-1z M8 14h1v1h-1z M14 14h1v1h-1z" />
    <path fill="#e83858" d="M11 12h1v1h-1z M9 13h1v1h-1z" />
    <path fill="#bd152e" d="M10 13h1v1h-1z M12 13h1v1h-1z M9 14h1v1h-1z M10 14h1v1h-1z M12 14h1v1h-1z M11 15h1v1h-1z" />
    <path fill="#7a0a1a" d="M11 13h1v1h-1z M11 14h1v1h-1z M13 14h1v1h-1z M10 15h1v1h-1z" />
    <path fill="#2b232e" d="M6 14h1v1h-1z M15 14h1v1h-1z M5 15h1v1h-1z M6 15h1v1h-1z M9 15h1v1h-1z M12 15h1v1h-1z M14 15h1v1h-1z M5 16h1v1h-1z M6 16h1v1h-1z M9 16h1v1h-1z M12 16h1v1h-1z M9 17h1v1h-1z M12 17h1v1h-1z M9 18h1v1h-1z M10 18h1v1h-1z M12 18h1v1h-1z M13 18h1v1h-1z" />
    <path fill="#1a141b" d="M7 14h1v1h-1z M7 15h1v1h-1z M8 16h1v1h-1z M14 16h1v1h-1z M8 17h1v1h-1z M14 17h1v1h-1z M11 18h1v1h-1z M14 18h1v1h-1z" />
    <path fill="#44384a" d="M8 15h1v1h-1z M13 15h1v1h-1z M13 16h1v1h-1z M13 17h1v1h-1z" />
    <path fill="#ccab97" d="M16 15h1v1h-1z M17 15h1v1h-1z M16 16h1v1h-1z M17 16h1v1h-1z" />
    <path fill="#f0c756" d="M10 16h1v1h-1z M10 17h1v1h-1z" />
    <path fill="#a88122" d="M11 16h1v1h-1z M11 17h1v1h-1z" />
    <path fill="#110d12" d="M8 19h1v1h-1z M9 19h1v1h-1z M13 19h1v1h-1z M7 20h1v1h-1z M8 20h1v1h-1z M9 20h1v1h-1z M12 20h1v1h-1z M13 20h1v1h-1z" />
  </g>
  <g id="frame_7_1" transform="translate(24 168)">
    <path fill="#281a2b" d="M10 6h1v1h-1z M12 6h1v1h-1z M9 7h1v1h-1z M10 7h1v1h-1z M11 7h1v1h-1z M13 7h1v1h-1z M8 8h1v1h-1z M9 8h1v1h-1z M10 8h1v1h-1z M11 8h1v1h-1z M13 8h1v1h-1z M14 8h1v1h-1z M8 9h1v1h-1z M9 9h1v1h-1z M10 9h1v1h-1z M11 9h1v1h-1z M13 9h1v1h-1z M14 9h1v1h-1z M15 9h1v1h-1z" />
    <path fill="#412d45" d="M11 6h1v1h-1z M12 7h1v1h-1z M12 8h1v1h-1z M12 9h1v1h-1z" />
    <path fill="#140c17" d="M8 7h1v1h-1z M14 7h1v1h-1z M7 8h1v1h-1z M15 8h1v1h-1z M6 9h1v1h-1z M7 9h1v1h-1z M16 9h1v1h-1z M6 10h1v1h-1z M7 10h1v1h-1z M8 10h1v1h-1z M9 10h1v1h-1z M10 10h1v1h-1z M11 10h1v1h-1z M12 10h1v1h-1z M13 10h1v1h-1z M14 10h1v1h-1z M15 10h1v1h-1z M16 10h1v1h-1z" />
    <path fill="#9c7764" d="M7 11h1v1h-1z M8 11h1v1h-1z M10 11h1v1h-1z M11 11h1v1h-1z M12 11h1v1h-1z M7 13h1v1h-1z M8 13h1v1h-1z M13 13h1v1h-1z M14 13h1v1h-1z" />
    <path fill="#f0d9c7" d="M9 11h1v1h-1z M13 11h1v1h-1z M14 11h1v1h-1z M10 12h1v1h-1z M12 12h1v1h-1z M9 13h1v1h-1z M10 13h1v1h-1z M11 13h1v1h-1z M12 13h1v1h-1z" />
    <path fill="#ccab97" d="M15 11h1v1h-1z M16 16h1v1h-1z M17 16h1v1h-1z M16 17h1v1h-1z M17 17h1v1h-1z" />
    <path fill="#9e223a" d="M8 12h1v1h-1z M11 12h1v1h-1z M14 12h1v1h-1z" />
    <path fill="#ffffff" d="M9 12h1v1h-1z M13 12h1v1h-1z" />
    <path fill="#631122" d="M7 14h1v1h-1z M14 14h1v1h-1z M13 15h1v1h-1z M13 16h1v1h-1z" />
    <path fill="#7a0a1a" d="M8 14h1v1h-1z M7 15h1v1h-1z M14 15h1v1h-1z M8 16h1v1h-1z" />
    <path fill="#a8203c" d="M9 14h1v1h-1z M10 14h1v1h-1z M11 14h1v1h-1z M13 14h1v1h-1z M8 15h1v1h-1z M11 15h1v1h-1z M11 16h1v1h-1z" />
    <path fill="#e83858" d="M12 14h1v1h-1z M10 15h1v1h-1z" />
    <path fill="#2b232e" d="M6 15h1v1h-1z M9 15h1v1h-1z M5 16h1v1h-1z M6 16h1v1h-1z M7 16h1v1h-1z M12 16h1v1h-1z M4 17h1v1h-1z M5 17h1v1h-1z M6 17h1v1h-1z M11 17h1v1h-1z M10 18h1v1h-1z" />
    <path fill="#bd152e" d="M12 15h1v1h-1z M9 16h1v1h-1z M10 16h1v1h-1z M8 17h1v1h-1z" />
    <path fill="#1a141b" d="M7 17h1v1h-1z M12 17h1v1h-1z M7 18h1v1h-1z M11 18h1v1h-1z M12 18h1v1h-1z M8 19h1v1h-1z M9 19h1v1h-1z" />
    <path fill="#f0c756" d="M9 17h1v1h-1z M8 18h1v1h-1z" />
    <path fill="#a88122" d="M10 17h1v1h-1z M9 18h1v1h-1z" />
    <path fill="#110d12" d="M6 19h1v1h-1z M13 19h1v1h-1z M5 20h1v1h-1z M6 20h1v1h-1z M7 20h1v1h-1z M12 20h1v1h-1z M13 20h1v1h-1z M14 20h1v1h-1z" />
  </g>
  <g id="frame_7_2" transform="translate(48 168)">
    <path fill="#281a2b" d="M10 6h1v1h-1z M13 6h1v1h-1z M9 7h1v1h-1z M10 7h1v1h-1z M11 7h1v1h-1z M12 7h1v1h-1z M13 7h1v1h-1z M8 8h1v1h-1z M9 8h1v1h-1z M10 8h1v1h-1z M12 8h1v1h-1z M13 8h1v1h-1z M14 8h1v1h-1z M9 9h1v1h-1z M10 9h1v1h-1z M11 9h1v1h-1z M12 9h1v1h-1z M13 9h1v1h-1z M14 9h1v1h-1z" />
    <path fill="#412d45" d="M11 6h1v1h-1z M12 6h1v1h-1z M11 8h1v1h-1z" />
    <path fill="#140c17" d="M8 7h1v1h-1z M14 7h1v1h-1z M7 8h1v1h-1z M15 8h1v1h-1z M7 9h1v1h-1z M8 9h1v1h-1z M15 9h1v1h-1z M8 10h1v1h-1z M9 10h1v1h-1z M10 10h1v1h-1z M11 10h1v1h-1z M12 10h1v1h-1z M13 10h1v1h-1z M14 10h1v1h-1z M15 10h1v1h-1z" />
    <path fill="#9c7764" d="M8 11h1v1h-1z M10 11h1v1h-1z M11 11h1v1h-1z M12 11h1v1h-1z M8 13h1v1h-1z M11 13h1v1h-1z" />
    <path fill="#f0d9c7" d="M9 11h1v1h-1z M13 11h1v1h-1z M14 11h1v1h-1z M9 12h1v1h-1z M11 12h1v1h-1z M9 13h1v1h-1z M10 13h1v1h-1z M12 13h1v1h-1z" />
    <path fill="#9e223a" d="M8 12h1v1h-1z M10 12h1v1h-1z M13 12h1v1h-1z" />
    <path fill="#ffffff" d="M12 12h1v1h-1z" />
    <path fill="#7a0a1a" d="M7 14h1v1h-1z M7 15h1v1h-1z M13 15h1v1h-1z" />
    <path fill="#bd152e" d="M8 14h1v1h-1z M12 15h1v1h-1z M8 16h1v1h-1z M9 16h1v1h-1z M10 16h1v1h-1z M11 16h1v1h-1z" />
    <path fill="#a8203c" d="M9 14h1v1h-1z M10 14h1v1h-1z M12 14h1v1h-1z M8 15h1v1h-1z M10 15h1v1h-1z M11 15h1v1h-1z" />
    <path fill="#e83858" d="M11 14h1v1h-1z" />
    <path fill="#631122" d="M13 14h1v1h-1z" />
    <path fill="#2b232e" d="M6 15h1v1h-1z M9 15h1v1h-1z M5 16h1v1h-1z M6 16h1v1h-1z M12 16h1v1h-1z" />
    <path fill="#1a141b" d="M7 16h1v1h-1z M13 16h1v1h-1z M9 17h1v1h-1z M10 17h1v1h-1z M7 18h1v1h-1z" />
    <path fill="#ccab97" d="M3 17h1v1h-1z M4 17h1v1h-1z M16 17h1v1h-1z M17 17h1v1h-1z" />
    <path fill="#f0c756" d="M7 17h1v1h-1z M11 17h1v1h-1z" />
    <path fill="#a88122" d="M8 17h1v1h-1z M12 17h1v1h-1z" />
    <path fill="#110d12" d="M11 18h1v1h-1z M12 18h1v1h-1z M6 19h1v1h-1z M7 19h1v1h-1z M10 19h1v1h-1z M11 19h1v1h-1z M12 19h1v1h-1z M5 20h1v1h-1z M6 20h1v1h-1z M7 20h1v1h-1z" />
  </g>
  <g id="frame_7_3" transform="translate(72 168)">
    <path fill="#281a2b" d="M8 11h1v1h-1z M11 11h1v1h-1z M8 12h1v1h-1z M9 12h1v1h-1z M10 12h1v1h-1z M11 12h1v1h-1z M10 13h1v1h-1z M11 13h1v1h-1z M12 13h1v1h-1z M9 14h1v1h-1z M11 14h1v1h-1z M12 14h1v1h-1z M13 14h1v1h-1z M10 15h1v1h-1z M11 15h1v1h-1z M12 15h1v1h-1z M13 15h1v1h-1z" />
    <path fill="#412d45" d="M9 11h1v1h-1z M10 11h1v1h-1z M10 14h1v1h-1z" />
    <path fill="#f0d9c7" d="M6 12h1v1h-1z M8 13h1v1h-1z M6 14h1v1h-1z" />
    <path fill="#140c17" d="M7 12h1v1h-1z M12 12h1v1h-1z M13 13h1v1h-1z M14 14h1v1h-1z M14 15h1v1h-1z M15 15h1v1h-1z M9 16h1v1h-1z M10 16h1v1h-1z M11 16h1v1h-1z M12 16h1v1h-1z M13 16h1v1h-1z M14 16h1v1h-1z M15 16h1v1h-1z" />
    <path fill="#ffffff" d="M6 13h1v1h-1z" />
    <path fill="#9e223a" d="M7 13h1v1h-1z M9 13h1v1h-1z" />
    <path fill="#631122" d="M7 14h1v1h-1z M8 14h1v1h-1z" />
    <path fill="#ccab97" d="M5 15h1v1h-1z M4 16h1v1h-1z M5 16h1v1h-1z" />
    <path fill="#7a0a1a" d="M6 15h1v1h-1z" />
    <path fill="#bd152e" d="M7 15h1v1h-1z M8 15h1v1h-1z M9 15h1v1h-1z M6 17h1v1h-1z M7 17h1v1h-1z M5 18h1v1h-1z M6 18h1v1h-1z M4 19h1v1h-1z" />
    <path fill="#2b232e" d="M6 16h1v1h-1z M5 17h1v1h-1z M3 18h1v1h-1z M4 18h1v1h-1z M9 18h1v1h-1z M7 19h1v1h-1z" />
    <path fill="#a8203c" d="M7 16h1v1h-1z M8 16h1v1h-1z" />
    <path fill="#f0c756" d="M8 17h1v1h-1z M7 18h1v1h-1z" />
    <path fill="#a88122" d="M9 17h1v1h-1z M8 18h1v1h-1z" />
    <path fill="#1a141b" d="M10 17h1v1h-1z M10 18h1v1h-1z M5 19h1v1h-1z M6 19h1v1h-1z M8 19h1v1h-1z" />
    <path fill="#110d12" d="M2 19h1v1h-1z M3 19h1v1h-1z M10 19h1v1h-1z M11 19h1v1h-1z M2 20h1v1h-1z M3 20h1v1h-1z M4 20h1v1h-1z M5 20h1v1h-1z M6 20h1v1h-1z M7 20h1v1h-1z M10 20h1v1h-1z M11 20h1v1h-1z M12 20h1v1h-1z" />
  </g>
  <g id="frame_7_4" transform="translate(96 168)">
    <path fill="#281a2b" d="M7 14h1v1h-1z M8 14h1v1h-1z M9 14h1v1h-1z M9 15h1v1h-1z M10 15h1v1h-1z M11 15h1v1h-1z M10 16h1v1h-1z M11 16h1v1h-1z M12 16h1v1h-1z" />
    <path fill="#140c17" d="M10 14h1v1h-1z M12 15h1v1h-1z M13 16h1v1h-1z M9 17h1v1h-1z M10 17h1v1h-1z M11 17h1v1h-1z M12 17h1v1h-1z M13 17h1v1h-1z M14 17h1v1h-1z" />
    <path fill="#9c7764" d="M5 15h1v1h-1z" />
    <path fill="#f0d9c7" d="M6 15h1v1h-1z" />
    <path fill="#631122" d="M7 15h1v1h-1z M8 15h1v1h-1z M9 16h1v1h-1z" />
    <path fill="#ccab97" d="M3 16h1v1h-1z M4 16h1v1h-1z" />
    <path fill="#7a0a1a" d="M5 16h1v1h-1z M5 17h1v1h-1z M8 17h1v1h-1z" />
    <path fill="#bd152e" d="M6 16h1v1h-1z M7 16h1v1h-1z M8 16h1v1h-1z M4 17h1v1h-1z M6 17h1v1h-1z M7 17h1v1h-1z M3 18h1v1h-1z M4 18h1v1h-1z M5 18h1v1h-1z M3 19h1v1h-1z" />
    <path fill="#2b232e" d="M3 17h1v1h-1z M2 18h1v1h-1z M8 18h1v1h-1z M10 18h1v1h-1z" />
    <path fill="#f0c756" d="M6 18h1v1h-1z" />
    <path fill="#a88122" d="M7 18h1v1h-1z" />
    <path fill="#1a141b" d="M9 18h1v1h-1z M4 19h1v1h-1z M5 19h1v1h-1z" />
    <path fill="#110d12" d="M1 19h1v1h-1z M2 19h1v1h-1z M6 19h1v1h-1z M9 19h1v1h-1z M10 19h1v1h-1z M1 20h1v1h-1z M2 20h1v1h-1z M3 20h1v1h-1z M9 20h1v1h-1z M10 20h1v1h-1z M11 20h1v1h-1z" />
  </g>
  <g id="frame_7_5" transform="translate(120 168)">
    <path fill="#140c17" d="M6 16h1v1h-1z M8 16h1v1h-1z M9 16h1v1h-1z M11 16h1v1h-1z M14 17h1v1h-1z M12 18h1v1h-1z M13 18h1v1h-1z" />
    <path fill="#7a0a1a" d="M3 17h1v1h-1z M5 17h1v1h-1z M7 17h1v1h-1z M2 18h1v1h-1z M3 18h1v1h-1z M4 18h1v1h-1z M8 18h1v1h-1z M9 18h1v1h-1z M4 19h1v1h-1z" />
    <path fill="#bd152e" d="M6 17h1v1h-1z M8 17h1v1h-1z M9 17h1v1h-1z M10 17h1v1h-1z M5 18h1v1h-1z M6 18h1v1h-1z M7 18h1v1h-1z M10 18h1v1h-1z" />
    <path fill="#631122" d="M11 17h1v1h-1z M12 17h1v1h-1z" />
    <path fill="#a8203c" d="M11 18h1v1h-1z" />
    <path fill="#110d12" d="M1 19h1v1h-1z M5 19h1v1h-1z M6 19h1v1h-1z M10 19h1v1h-1z M11 19h1v1h-1z M1 20h1v1h-1z M2 20h1v1h-1z M3 20h1v1h-1z M10 20h1v1h-1z M11 20h1v1h-1z M12 20h1v1h-1z" />
    <path fill="#1a141b" d="M2 19h1v1h-1z M3 19h1v1h-1z" />
  </g>
</svg>
