<svg xmlns="http://www.w3.org/2000/svg" width="144" height="192" viewBox="0 0 144 192" shape-rendering="crispEdges">
  <defs>
    <g id="pd0">
      <rect x="7" y="1" width="10" height="2" fill="#0f0b11"/>
      <rect x="6" y="3" width="12" height="1" fill="#0f0b11"/>
      <rect x="8" y="4" width="8" height="5" fill="#d8c2a8"/>
      <rect x="9" y="5" width="1" height="1" fill="#efe8df"/>
      <rect x="14" y="5" width="1" height="1" fill="#efe8df"/>
      <rect x="7" y="9" width="10" height="7" fill="#2e1629"/>
      <rect x="10" y="9" width="4" height="7" fill="#7a2033"/>
      <rect x="8" y="11" width="8" height="1" fill="#c3a35c"/>
      <rect x="5" y="10" width="2" height="5" fill="#2e1629"/>
      <rect x="17" y="10" width="2" height="5" fill="#2e1629"/>
      <rect x="8" y="16" width="3" height="5" fill="#1a141b"/>
      <rect x="13" y="16" width="3" height="5" fill="#1a141b"/>
    </g>
    <g id="pd1">
      <rect x="7" y="2" width="10" height="2" fill="#0f0b11"/>
      <rect x="6" y="4" width="12" height="1" fill="#0f0b11"/>
      <rect x="8" y="5" width="8" height="5" fill="#d8c2a8"/>
      <rect x="9" y="6" width="1" height="1" fill="#efe8df"/>
      <rect x="14" y="6" width="1" height="1" fill="#efe8df"/>
      <rect x="7" y="10" width="10" height="7" fill="#2e1629"/>
      <rect x="10" y="10" width="4" height="7" fill="#7a2033"/>
      <rect x="8" y="12" width="8" height="1" fill="#c3a35c"/>
      <rect x="4" y="11" width="2" height="5" fill="#2e1629"/>
      <rect x="18" y="11" width="2" height="5" fill="#2e1629"/>
      <rect x="7" y="17" width="3" height="4" fill="#1a141b"/>
      <rect x="14" y="17" width="3" height="4" fill="#1a141b"/>
    </g>
    <g id="pd2">
      <rect x="7" y="1" width="10" height="2" fill="#0f0b11"/>
      <rect x="6" y="3" width="12" height="1" fill="#0f0b11"/>
      <rect x="8" y="4" width="8" height="5" fill="#d8c2a8"/>
      <rect x="9" y="5" width="1" height="1" fill="#efe8df"/>
      <rect x="14" y="5" width="1" height="1" fill="#efe8df"/>
      <rect x="7" y="9" width="10" height="7" fill="#2e1629"/>
      <rect x="10" y="9" width="4" height="7" fill="#7a2033"/>
      <rect x="8" y="11" width="8" height="1" fill="#c3a35c"/>
      <rect x="5" y="10" width="2" height="5" fill="#2e1629"/>
      <rect x="17" y="10" width="2" height="5" fill="#2e1629"/>
      <rect x="7" y="16" width="3" height="5" fill="#1a141b"/>
      <rect x="14" y="16" width="3" height="5" fill="#1a141b"/>
    </g>
    <g id="pd3">
      <rect x="7" y="2" width="10" height="2" fill="#0f0b11"/>
      <rect x="6" y="4" width="12" height="1" fill="#0f0b11"/>
      <rect x="8" y="5" width="8" height="5" fill="#d8c2a8"/>
      <rect x="9" y="6" width="1" height="1" fill="#efe8df"/>
      <rect x="14" y="6" width="1" height="1" fill="#efe8df"/>
      <rect x="7" y="10" width="10" height="7" fill="#2e1629"/>
      <rect x="10" y="10" width="4" height="7" fill="#7a2033"/>
      <rect x="8" y="12" width="8" height="1" fill="#c3a35c"/>
      <rect x="6" y="11" width="2" height="5" fill="#2e1629"/>
      <rect x="16" y="11" width="2" height="5" fill="#2e1629"/>
      <rect x="9" y="17" width="3" height="4" fill="#1a141b"/>
      <rect x="12" y="17" width="3" height="4" fill="#1a141b"/>
    </g>
    <g id="ps0">
      <rect x="7" y="1" width="9" height="2" fill="#0f0b11"/>
      <rect x="8" y="3" width="7" height="1" fill="#0f0b11"/>
      <rect x="9" y="4" width="6" height="5" fill="#d8c2a8"/>
      <rect x="13" y="5" width="1" height="1" fill="#efe8df"/>
      <rect x="8" y="9" width="8" height="7" fill="#2e1629"/>
      <rect x="10" y="9" width="3" height="7" fill="#7a2033"/>
      <rect x="8" y="11" width="6" height="1" fill="#c3a35c"/>
      <rect x="7" y="10" width="2" height="5" fill="#2e1629"/>
      <rect x="15" y="10" width="2" height="4" fill="#2e1629"/>
      <rect x="9" y="16" width="3" height="5" fill="#1a141b"/>
      <rect x="13" y="16" width="3" height="5" fill="#1a141b"/>
    </g>
    <g id="ps1">
      <rect x="7" y="2" width="9" height="2" fill="#0f0b11"/>
      <rect x="8" y="4" width="7" height="1" fill="#0f0b11"/>
      <rect x="9" y="5" width="6" height="5" fill="#d8c2a8"/>
      <rect x="13" y="6" width="1" height="1" fill="#efe8df"/>
      <rect x="8" y="10" width="8" height="7" fill="#2e1629"/>
      <rect x="10" y="10" width="3" height="7" fill="#7a2033"/>
      <rect x="8" y="12" width="6" height="1" fill="#c3a35c"/>
      <rect x="8" y="11" width="2" height="5" fill="#2e1629"/>
      <rect x="15" y="10" width="2" height="4" fill="#2e1629"/>
      <rect x="8" y="17" width="3" height="4" fill="#1a141b"/>
      <rect x="14" y="17" width="3" height="4" fill="#1a141b"/>
    </g>
    <g id="ps2">
      <use href="#ps0"/>
      <rect x="7" y="10" width="2" height="5" fill="#00000000"/>
      <rect x="8" y="16" width="1" height="5" fill="#00000000"/>
      <rect x="13" y="16" width="1" height="5" fill="#00000000"/>
      <rect x="6" y="10" width="2" height="5" fill="#2e1629"/>
      <rect x="10" y="16" width="3" height="5" fill="#1a141b"/>
      <rect x="13" y="16" width="3" height="5" fill="#1a141b"/>
    </g>
    <g id="ps3">
      <use href="#ps1"/>
      <rect x="8" y="10" width="2" height="5" fill="#00000000"/>
      <rect x="8" y="17" width="3" height="4" fill="#00000000"/>
      <rect x="14" y="17" width="3" height="4" fill="#00000000"/>
      <rect x="7" y="10" width="2" height="5" fill="#2e1629"/>
      <rect x="9" y="17" width="3" height="4" fill="#1a141b"/>
      <rect x="12" y="17" width="3" height="4" fill="#1a141b"/>
    </g>
    <g id="pu0">
      <rect x="7" y="1" width="10" height="2" fill="#0f0b11"/>
      <rect x="8" y="4" width="8" height="4" fill="#4f3f46"/>
      <rect x="6" y="8" width="12" height="8" fill="#2e1629"/>
      <rect x="9" y="9" width="6" height="6" fill="#7a2033"/>
      <rect x="7" y="11" width="10" height="1" fill="#c3a35c"/>
      <rect x="5" y="10" width="2" height="5" fill="#2e1629"/>
      <rect x="17" y="10" width="2" height="5" fill="#2e1629"/>
      <rect x="8" y="16" width="3" height="5" fill="#1a141b"/>
      <rect x="13" y="16" width="3" height="5" fill="#1a141b"/>
    </g>
    <g id="pu1">
      <rect x="7" y="2" width="10" height="2" fill="#0f0b11"/>
      <rect x="8" y="5" width="8" height="4" fill="#4f3f46"/>
      <rect x="6" y="9" width="12" height="8" fill="#2e1629"/>
      <rect x="10" y="10" width="6" height="6" fill="#7a2033"/>
      <rect x="7" y="12" width="10" height="1" fill="#c3a35c"/>
      <rect x="5" y="11" width="2" height="5" fill="#2e1629"/>
      <rect x="17" y="11" width="2" height="5" fill="#2e1629"/>
      <rect x="7" y="17" width="3" height="4" fill="#1a141b"/>
      <rect x="14" y="17" width="3" height="4" fill="#1a141b"/>
    </g>
    <g id="pu2">
      <use href="#pu0"/>
      <rect x="8" y="16" width="3" height="5" fill="#00000000"/>
      <rect x="13" y="16" width="3" height="5" fill="#00000000"/>
      <rect x="7" y="16" width="3" height="5" fill="#1a141b"/>
      <rect x="14" y="16" width="3" height="5" fill="#1a141b"/>
    </g>
    <g id="pu3">
      <use href="#pu1"/>
      <rect x="7" y="17" width="3" height="4" fill="#00000000"/>
      <rect x="14" y="17" width="3" height="4" fill="#00000000"/>
      <rect x="9" y="17" width="3" height="4" fill="#1a141b"/>
      <rect x="12" y="17" width="3" height="4" fill="#1a141b"/>
    </g>
    <g id="ph0">
      <use href="#ps0"/>
      <rect x="8" y="9" width="8" height="7" fill="#8f4858"/>
      <rect x="10" y="9" width="3" height="7" fill="#d67172"/>
    </g>
    <g id="ph1">
      <use href="#pd1"/>
      <rect x="7" y="10" width="10" height="7" fill="#8f4858"/>
      <rect x="10" y="10" width="4" height="7" fill="#d67172"/>
    </g>
    <g id="ph2">
      <use href="#ps2"/>
      <rect x="8" y="9" width="8" height="7" fill="#8f4858"/>
      <rect x="10" y="9" width="3" height="7" fill="#d67172"/>
    </g>
    <g id="ph3">
      <use href="#pd3"/>
      <rect x="7" y="10" width="10" height="7" fill="#8f4858"/>
      <rect x="10" y="10" width="4" height="7" fill="#d67172"/>
    </g>
    <g id="pk0"><use href="#ph1"/></g>
    <g id="pk1">
      <rect x="7" y="4" width="10" height="2" fill="#0f0b11"/>
      <rect x="8" y="6" width="8" height="4" fill="#d8c2a8"/>
      <rect x="7" y="10" width="10" height="5" fill="#8f4858"/>
      <rect x="10" y="10" width="4" height="5" fill="#d67172"/>
      <rect x="7" y="15" width="10" height="3" fill="#1a141b"/>
      <rect x="8" y="18" width="8" height="2" fill="#1a141b"/>
    </g>
    <g id="pk2">
      <polygon points="6,14 15,8 18,12 9,18" fill="#8f4858"/>
      <rect x="12" y="9" width="5" height="4" fill="#d8c2a8"/>
      <rect x="12" y="8" width="5" height="1" fill="#0f0b11"/>
      <rect x="7" y="16" width="8" height="2" fill="#1a141b"/>
    </g>
    <g id="pk3">
      <polygon points="4,15 13,10 20,12 10,18" fill="#6d3141"/>
      <rect x="13" y="10" width="4" height="3" fill="#d8c2a8"/>
      <rect x="13" y="9" width="4" height="1" fill="#0f0b11"/>
    </g>
    <g id="pk4">
      <polygon points="4,16 11,12 19,13 10,18" fill="#4f2430"/>
      <rect x="12" y="12" width="3" height="2" fill="#d8c2a8"/>
    </g>
    <g id="pk5">
      <rect x="6" y="15" width="12" height="3" fill="#341a20"/>
      <rect x="11" y="13" width="4" height="2" fill="#d8c2a8"/>
    </g>
  </defs>
  <use href="#pd0" x="0" y="0"/>
  <use href="#pd1" x="24" y="0"/>
  <use href="#pd0" x="0" y="24"/>
  <use href="#pd1" x="24" y="24"/>
  <use href="#pd2" x="48" y="24"/>
  <use href="#pd3" x="72" y="24"/>
  <use href="#ps0" x="0" y="48"/>
  <use href="#ps1" x="24" y="48"/>
  <use href="#ps0" x="0" y="72"/>
  <use href="#ps1" x="24" y="72"/>
  <use href="#ps2" x="48" y="72"/>
  <use href="#ps3" x="72" y="72"/>
  <use href="#pu0" x="0" y="96"/>
  <use href="#pu1" x="24" y="96"/>
  <use href="#pu0" x="0" y="120"/>
  <use href="#pu1" x="24" y="120"/>
  <use href="#pu2" x="48" y="120"/>
  <use href="#pu3" x="72" y="120"/>
  <use href="#ph0" x="0" y="144"/>
  <use href="#ph1" x="24" y="144"/>
  <use href="#ph2" x="48" y="144"/>
  <use href="#ph3" x="72" y="144"/>
  <use href="#pk0" x="0" y="168"/>
  <use href="#pk1" x="24" y="168"/>
  <use href="#pk2" x="48" y="168"/>
  <use href="#pk3" x="72" y="168"/>
  <use href="#pk4" x="96" y="168"/>
  <use href="#pk5" x="120" y="168"/>
</svg>
