<svg xmlns="http://www.w3.org/2000/svg" width="96" height="168" viewBox="0 0 96 168" shape-rendering="crispEdges">
  <defs>
    <style>
      .bg { fill: none; }
    </style>
  </defs>
  <rect class="bg" x="0" y="0" width="96" height="168" />
  <g id="frame_0_0" transform="translate(0 0)">
    <path fill="#0b0f0b" d="M10 6h1v1h-1z M11 6h1v1h-1z M12 6h1v1h-1z M13 6h1v1h-1z M8 7h1v1h-1z M9 7h1v1h-1z M14 7h1v1h-1z M15 7h1v1h-1z M7 8h1v1h-1z M17 8h1v1h-1z M6 9h1v1h-1z M18 9h1v1h-1z M6 10h1v1h-1z M18 10h1v1h-1z M5 11h1v1h-1z M6 11h1v1h-1z M19 11h1v1h-1z M4 12h1v1h-1z M7 12h1v1h-1z M20 12h1v1h-1z M4 13h1v1h-1z M7 13h1v1h-1z M20 13h1v1h-1z M4 14h1v1h-1z M7 14h1v1h-1z M20 14h1v1h-1z M5 15h1v1h-1z M6 15h1v1h-1z M7 15h1v1h-1z M21 15h1v1h-1z M7 16h1v1h-1z M22 16h1v1h-1z M22 18h1v1h-1z M7 19h1v1h-1z M7 20h1v1h-1z M13 20h1v1h-1z M21 20h1v1h-1z M8 21h1v1h-1z M9 21h1v1h-1z M10 21h1v1h-1z M18 21h1v1h-1z M19 21h1v1h-1z M7 23h1v1h-1z M8 23h1v1h-1z M17 23h1v1h-1z M18 23h1v1h-1z" />
    <path fill="#3a6639" d="M10 7h1v1h-1z M13 7h1v1h-1z M16 8h1v1h-1z M7 9h1v1h-1z M12 9h1v1h-1z M14 9h1v1h-1z M15 9h1v1h-1z M8 10h1v1h-1z M12 10h1v1h-1z M14 10h1v1h-1z M16 10h1v1h-1z M17 10h1v1h-1z M5 12h1v1h-1z M9 12h1v1h-1z M14 12h1v1h-1z M6 14h1v1h-1z M7 18h1v1h-1z M17 22h1v1h-1z" />
    <path fill="#699965" d="M11 7h1v1h-1z M12 7h1v1h-1z M9 8h1v1h-1z M10 8h1v1h-1z M12 8h1v1h-1z M13 8h1v1h-1z M14 8h1v1h-1z M8 9h1v1h-1z M13 9h1v1h-1z M15 11h1v1h-1z M18 11h1v1h-1z M6 17h1v1h-1z M9 22h1v1h-1z M18 22h1v1h-1z" />
    <path fill="#a0c49d" d="M8 8h1v1h-1z M15 8h1v1h-1z M5 13h1v1h-1z M7 17h1v1h-1z" />
    <path fill="#ff2a3a" d="M11 8h1v1h-1z M9 9h1v1h-1z M10 9h1v1h-1z M11 9h1v1h-1z" />
    <path fill="#243b23" d="M16 9h1v1h-1z M17 9h1v1h-1z M7 10h1v1h-1z M11 10h1v1h-1z M13 10h1v1h-1z M15 10h1v1h-1z M8 11h1v1h-1z M13 11h1v1h-1z M14 11h1v1h-1z M16 11h1v1h-1z M6 12h1v1h-1z M8 12h1v1h-1z M10 12h1v1h-1z M11 12h1v1h-1z M12 12h1v1h-1z M13 12h1v1h-1z M6 13h1v1h-1z M5 14h1v1h-1z M6 18h1v1h-1z M17 21h1v1h-1z M7 22h1v1h-1z M8 22h1v1h-1z M9 23h1v1h-1z M19 23h1v1h-1z" />
    <path fill="#a61120" d="M9 10h1v1h-1z M10 10h1v1h-1z" />
    <path fill="#28363d" d="M7 11h1v1h-1z M16 12h1v1h-1z M17 12h1v1h-1z M19 12h1v1h-1z M19 13h1v1h-1z M9 14h1v1h-1z M10 14h1v1h-1z M19 14h1v1h-1z M9 15h1v1h-1z M19 15h1v1h-1z M8 16h1v1h-1z M9 16h1v1h-1z M14 16h1v1h-1z M21 16h1v1h-1z M8 17h1v1h-1z M10 17h1v1h-1z M15 17h1v1h-1z M17 17h1v1h-1z M19 17h1v1h-1z M8 18h1v1h-1z M10 18h1v1h-1z M14 18h1v1h-1z M16 18h1v1h-1z M19 18h1v1h-1z M20 18h1v1h-1z M11 19h1v1h-1z M13 19h1v1h-1z M20 19h1v1h-1z M8 20h1v1h-1z M9 20h1v1h-1z M11 20h1v1h-1z M18 20h1v1h-1z M20 20h1v1h-1z" />
    <path fill="#e1d7aa" d="M9 11h1v1h-1z M10 11h1v1h-1z M11 11h1v1h-1z M12 11h1v1h-1z" />
    <path fill="#435863" d="M17 11h1v1h-1z M15 12h1v1h-1z M8 13h1v1h-1z M10 13h1v1h-1z M11 13h1v1h-1z M12 13h1v1h-1z M15 13h1v1h-1z M16 13h1v1h-1z M18 13h1v1h-1z M8 14h1v1h-1z M11 14h1v1h-1z M12 14h1v1h-1z M13 14h1v1h-1z M14 14h1v1h-1z M15 14h1v1h-1z M17 14h1v1h-1z M8 15h1v1h-1z M11 15h1v1h-1z M12 15h1v1h-1z M13 15h1v1h-1z M14 15h1v1h-1z M15 15h1v1h-1z M16 15h1v1h-1z M17 15h1v1h-1z M18 15h1v1h-1z M20 15h1v1h-1z M10 16h1v1h-1z M11 16h1v1h-1z M12 16h1v1h-1z M13 16h1v1h-1z M15 16h1v1h-1z M16 16h1v1h-1z M17 16h1v1h-1z M19 16h1v1h-1z M11 17h1v1h-1z M12 17h1v1h-1z M13 17h1v1h-1z M16 17h1v1h-1z M20 17h1v1h-1z M11 18h1v1h-1z M12 18h1v1h-1z M21 18h1v1h-1z M12 19h1v1h-1z M17 19h1v1h-1z" />
    <path fill="#141d21" d="M18 12h1v1h-1z M9 13h1v1h-1z M18 14h1v1h-1z M20 16h1v1h-1z M9 17h1v1h-1z M14 17h1v1h-1z M18 17h1v1h-1z M21 17h1v1h-1z M9 18h1v1h-1z M13 18h1v1h-1z M17 18h1v1h-1z M18 18h1v1h-1z M8 19h1v1h-1z M18 19h1v1h-1z M21 19h1v1h-1z M10 20h1v1h-1z M12 20h1v1h-1z M17 20h1v1h-1z M19 20h1v1h-1z" />
    <path fill="#607985" d="M13 13h1v1h-1z M14 13h1v1h-1z M17 13h1v1h-1z M16 14h1v1h-1z M10 15h1v1h-1z M18 16h1v1h-1z M9 19h1v1h-1z M10 19h1v1h-1z M19 19h1v1h-1z" />
  </g>
  <g id="frame_0_1" transform="translate(24 0)">
    <path fill="#0b0f0b" d="M10 6h1v1h-1z M11 6h1v1h-1z M12 6h1v1h-1z M13 6h1v1h-1z M8 7h1v1h-1z M9 7h1v1h-1z M14 7h1v1h-1z M15 7h1v1h-1z M7 8h1v1h-1z M17 8h1v1h-1z M6 9h1v1h-1z M18 9h1v1h-1z M6 10h1v1h-1z M18 10h1v1h-1z M5 11h1v1h-1z M6 11h1v1h-1z M19 11h1v1h-1z M4 12h1v1h-1z M7 12h1v1h-1z M20 12h1v1h-1z M4 13h1v1h-1z M7 13h1v1h-1z M20 13h1v1h-1z M4 14h1v1h-1z M7 14h1v1h-1z M20 14h1v1h-1z M5 15h1v1h-1z M6 15h1v1h-1z M7 15h1v1h-1z M21 15h1v1h-1z M7 16h1v1h-1z M20 16h1v1h-1z M20 18h1v1h-1z M7 19h1v1h-1z M12 19h1v1h-1z M12 20h1v1h-1z M17 20h1v1h-1z M8 21h1v1h-1z M9 21h1v1h-1z M10 21h1v1h-1z M15 21h1v1h-1z M16 21h1v1h-1z M7 23h1v1h-1z M8 23h1v1h-1z M14 23h1v1h-1z M15 23h1v1h-1z" />
    <path fill="#3a6639" d="M10 7h1v1h-1z M13 7h1v1h-1z M16 8h1v1h-1z M7 9h1v1h-1z M12 9h1v1h-1z M14 9h1v1h-1z M15 9h1v1h-1z M8 10h1v1h-1z M12 10h1v1h-1z M14 10h1v1h-1z M16 10h1v1h-1z M17 10h1v1h-1z M5 12h1v1h-1z M9 12h1v1h-1z M14 12h1v1h-1z M6 14h1v1h-1z M7 18h1v1h-1z M14 22h1v1h-1z" />
    <path fill="#699965" d="M11 7h1v1h-1z M12 7h1v1h-1z M9 8h1v1h-1z M10 8h1v1h-1z M12 8h1v1h-1z M13 8h1v1h-1z M14 8h1v1h-1z M8 9h1v1h-1z M13 9h1v1h-1z M15 11h1v1h-1z M18 11h1v1h-1z M6 17h1v1h-1z M9 22h1v1h-1z M15 22h1v1h-1z" />
    <path fill="#a0c49d" d="M8 8h1v1h-1z M15 8h1v1h-1z M5 13h1v1h-1z M7 17h1v1h-1z" />
    <path fill="#ff2a3a" d="M11 8h1v1h-1z M9 9h1v1h-1z M10 9h1v1h-1z M11 9h1v1h-1z" />
    <path fill="#243b23" d="M16 9h1v1h-1z M17 9h1v1h-1z M7 10h1v1h-1z M11 10h1v1h-1z M13 10h1v1h-1z M15 10h1v1h-1z M8 11h1v1h-1z M13 11h1v1h-1z M14 11h1v1h-1z M16 11h1v1h-1z M6 12h1v1h-1z M8 12h1v1h-1z M10 12h1v1h-1z M11 12h1v1h-1z M12 12h1v1h-1z M13 12h1v1h-1z M6 13h1v1h-1z M5 14h1v1h-1z M6 18h1v1h-1z M14 21h1v1h-1z M7 22h1v1h-1z M8 22h1v1h-1z M9 23h1v1h-1z M16 23h1v1h-1z" />
    <path fill="#a61120" d="M9 10h1v1h-1z M10 10h1v1h-1z" />
    <path fill="#28363d" d="M7 11h1v1h-1z M16 12h1v1h-1z M17 12h1v1h-1z M19 12h1v1h-1z M19 13h1v1h-1z M9 14h1v1h-1z M10 14h1v1h-1z M19 14h1v1h-1z M9 15h1v1h-1z M19 15h1v1h-1z M8 16h1v1h-1z M9 16h1v1h-1z M12 16h1v1h-1z M14 16h1v1h-1z M19 16h1v1h-1z M8 17h1v1h-1z M15 17h1v1h-1z M17 17h1v1h-1z M19 17h1v1h-1z M8 18h1v1h-1z M10 18h1v1h-1z M12 18h1v1h-1z M14 18h1v1h-1z M17 18h1v1h-1z M18 18h1v1h-1z M11 19h1v1h-1z M17 19h1v1h-1z M8 20h1v1h-1z M9 20h1v1h-1z M11 20h1v1h-1z M13 20h1v1h-1z M14 20h1v1h-1z M16 20h1v1h-1z" />
    <path fill="#e1d7aa" d="M9 11h1v1h-1z M10 11h1v1h-1z M11 11h1v1h-1z M12 11h1v1h-1z" />
    <path fill="#435863" d="M17 11h1v1h-1z M15 12h1v1h-1z M8 13h1v1h-1z M10 13h1v1h-1z M11 13h1v1h-1z M12 13h1v1h-1z M15 13h1v1h-1z M16 13h1v1h-1z M18 13h1v1h-1z M8 14h1v1h-1z M11 14h1v1h-1z M12 14h1v1h-1z M13 14h1v1h-1z M14 14h1v1h-1z M15 14h1v1h-1z M17 14h1v1h-1z M8 15h1v1h-1z M11 15h1v1h-1z M12 15h1v1h-1z M13 15h1v1h-1z M14 15h1v1h-1z M15 15h1v1h-1z M16 15h1v1h-1z M17 15h1v1h-1z M18 15h1v1h-1z M20 15h1v1h-1z M10 16h1v1h-1z M11 16h1v1h-1z M15 16h1v1h-1z M17 16h1v1h-1z M10 17h1v1h-1z M11 17h1v1h-1z M13 17h1v1h-1z M18 17h1v1h-1z M19 18h1v1h-1z M14 19h1v1h-1z" />
    <path fill="#141d21" d="M18 12h1v1h-1z M9 13h1v1h-1z M18 14h1v1h-1z M13 16h1v1h-1z M18 16h1v1h-1z M9 17h1v1h-1z M14 17h1v1h-1z M16 17h1v1h-1z M20 17h1v1h-1z M9 18h1v1h-1z M11 18h1v1h-1z M15 18h1v1h-1z M16 18h1v1h-1z M8 19h1v1h-1z M13 19h1v1h-1z M18 19h1v1h-1z M10 20h1v1h-1z M15 20h1v1h-1z" />
    <path fill="#607985" d="M13 13h1v1h-1z M14 13h1v1h-1z M17 13h1v1h-1z M16 14h1v1h-1z M10 15h1v1h-1z M16 16h1v1h-1z M12 17h1v1h-1z M9 19h1v1h-1z M10 19h1v1h-1z M15 19h1v1h-1z M16 19h1v1h-1z" />
  </g>
  <g id="frame_1_0" transform="translate(0 24)">
    <path fill="#0b0f0b" d="M10 6h1v1h-1z M11 6h1v1h-1z M12 6h1v1h-1z M13 6h1v1h-1z M8 7h1v1h-1z M9 7h1v1h-1z M14 7h1v1h-1z M15 7h1v1h-1z M7 8h1v1h-1z M17 8h1v1h-1z M6 9h1v1h-1z M18 9h1v1h-1z M6 10h1v1h-1z M18 10h1v1h-1z M5 11h1v1h-1z M6 11h1v1h-1z M19 11h1v1h-1z M4 12h1v1h-1z M7 12h1v1h-1z M20 12h1v1h-1z M4 13h1v1h-1z M7 13h1v1h-1z M20 13h1v1h-1z M4 14h1v1h-1z M7 14h1v1h-1z M20 14h1v1h-1z M5 15h1v1h-1z M6 15h1v1h-1z M7 15h1v1h-1z M21 15h1v1h-1z M7 16h1v1h-1z M22 16h1v1h-1z M22 17h1v1h-1z M7 19h1v1h-1z M17 19h1v1h-1z M18 19h1v1h-1z M19 19h1v1h-1z M20 19h1v1h-1z M7 20h1v1h-1z M13 20h1v1h-1z M20 20h1v1h-1z M7 21h1v1h-1z M8 21h1v1h-1z M9 21h1v1h-1z M10 21h1v1h-1z M11 21h1v1h-1z M16 21h1v1h-1z M17 21h1v1h-1z M19 21h1v1h-1z M6 23h1v1h-1z M8 23h1v1h-1z M9 23h1v1h-1z M10 23h1v1h-1z" />
    <path fill="#3a6639" d="M10 7h1v1h-1z M13 7h1v1h-1z M16 8h1v1h-1z M7 9h1v1h-1z M12 9h1v1h-1z M14 9h1v1h-1z M15 9h1v1h-1z M8 10h1v1h-1z M12 10h1v1h-1z M14 10h1v1h-1z M16 10h1v1h-1z M17 10h1v1h-1z M5 12h1v1h-1z M9 12h1v1h-1z M14 12h1v1h-1z M6 14h1v1h-1z M7 18h1v1h-1z M8 22h1v1h-1z" />
    <path fill="#699965" d="M11 7h1v1h-1z M12 7h1v1h-1z M9 8h1v1h-1z M10 8h1v1h-1z M12 8h1v1h-1z M13 8h1v1h-1z M14 8h1v1h-1z M8 9h1v1h-1z M13 9h1v1h-1z M15 11h1v1h-1z M18 11h1v1h-1z M6 17h1v1h-1z M18 20h1v1h-1z M6 22h1v1h-1z" />
    <path fill="#a0c49d" d="M8 8h1v1h-1z M15 8h1v1h-1z M5 13h1v1h-1z M7 17h1v1h-1z M7 22h1v1h-1z" />
    <path fill="#ff2a3a" d="M11 8h1v1h-1z M9 9h1v1h-1z M10 9h1v1h-1z M11 9h1v1h-1z" />
    <path fill="#243b23" d="M16 9h1v1h-1z M17 9h1v1h-1z M7 10h1v1h-1z M11 10h1v1h-1z M13 10h1v1h-1z M15 10h1v1h-1z M8 11h1v1h-1z M13 11h1v1h-1z M14 11h1v1h-1z M16 11h1v1h-1z M6 12h1v1h-1z M8 12h1v1h-1z M10 12h1v1h-1z M11 12h1v1h-1z M12 12h1v1h-1z M13 12h1v1h-1z M6 13h1v1h-1z M5 14h1v1h-1z M6 18h1v1h-1z M16 20h1v1h-1z M17 20h1v1h-1z M18 21h1v1h-1z M9 22h1v1h-1z M7 23h1v1h-1z" />
    <path fill="#a61120" d="M9 10h1v1h-1z M10 10h1v1h-1z" />
    <path fill="#28363d" d="M7 11h1v1h-1z M16 12h1v1h-1z M17 12h1v1h-1z M19 12h1v1h-1z M19 13h1v1h-1z M9 14h1v1h-1z M10 14h1v1h-1z M19 14h1v1h-1z M9 15h1v1h-1z M19 15h1v1h-1z M8 16h1v1h-1z M9 16h1v1h-1z M14 16h1v1h-1z M21 16h1v1h-1z M8 17h1v1h-1z M10 17h1v1h-1z M15 17h1v1h-1z M18 17h1v1h-1z M21 17h1v1h-1z M8 18h1v1h-1z M10 18h1v1h-1z M14 18h1v1h-1z M18 18h1v1h-1z M21 18h1v1h-1z M11 19h1v1h-1z M13 19h1v1h-1z M21 19h1v1h-1z M8 20h1v1h-1z M9 20h1v1h-1z M11 20h1v1h-1z M19 20h1v1h-1z" />
    <path fill="#e1d7aa" d="M9 11h1v1h-1z M10 11h1v1h-1z M11 11h1v1h-1z M12 11h1v1h-1z" />
    <path fill="#435863" d="M17 11h1v1h-1z M15 12h1v1h-1z M8 13h1v1h-1z M10 13h1v1h-1z M11 13h1v1h-1z M12 13h1v1h-1z M15 13h1v1h-1z M16 13h1v1h-1z M18 13h1v1h-1z M8 14h1v1h-1z M11 14h1v1h-1z M12 14h1v1h-1z M13 14h1v1h-1z M14 14h1v1h-1z M15 14h1v1h-1z M17 14h1v1h-1z M8 15h1v1h-1z M11 15h1v1h-1z M12 15h1v1h-1z M13 15h1v1h-1z M14 15h1v1h-1z M15 15h1v1h-1z M16 15h1v1h-1z M17 15h1v1h-1z M18 15h1v1h-1z M20 15h1v1h-1z M10 16h1v1h-1z M11 16h1v1h-1z M12 16h1v1h-1z M13 16h1v1h-1z M15 16h1v1h-1z M16 16h1v1h-1z M19 16h1v1h-1z M11 17h1v1h-1z M12 17h1v1h-1z M13 17h1v1h-1z M17 17h1v1h-1z M20 17h1v1h-1z M11 18h1v1h-1z M12 18h1v1h-1z M12 19h1v1h-1z" />
    <path fill="#141d21" d="M18 12h1v1h-1z M9 13h1v1h-1z M18 14h1v1h-1z M20 16h1v1h-1z M9 17h1v1h-1z M14 17h1v1h-1z M16 17h1v1h-1z M19 17h1v1h-1z M9 18h1v1h-1z M13 18h1v1h-1z M19 18h1v1h-1z M20 18h1v1h-1z M22 18h1v1h-1z M8 19h1v1h-1z M10 20h1v1h-1z M12 20h1v1h-1z" />
    <path fill="#607985" d="M13 13h1v1h-1z M14 13h1v1h-1z M17 13h1v1h-1z M16 14h1v1h-1z M10 15h1v1h-1z M17 16h1v1h-1z M18 16h1v1h-1z M9 19h1v1h-1z M10 19h1v1h-1z" />
  </g>
  <g id="frame_1_1" transform="translate(24 24)">
    <path fill="#0b0f0b" d="M10 6h1v1h-1z M11 6h1v1h-1z M12 6h1v1h-1z M13 6h1v1h-1z M8 7h1v1h-1z M9 7h1v1h-1z M14 7h1v1h-1z M15 7h1v1h-1z M7 8h1v1h-1z M17 8h1v1h-1z M6 9h1v1h-1z M18 9h1v1h-1z M6 10h1v1h-1z M18 10h1v1h-1z M5 11h1v1h-1z M6 11h1v1h-1z M19 11h1v1h-1z M4 12h1v1h-1z M7 12h1v1h-1z M20 12h1v1h-1z M4 13h1v1h-1z M7 13h1v1h-1z M20 13h1v1h-1z M4 14h1v1h-1z M7 14h1v1h-1z M20 14h1v1h-1z M5 15h1v1h-1z M6 15h1v1h-1z M7 15h1v1h-1z M21 15h1v1h-1z M7 16h1v1h-1z M20 16h1v1h-1z M20 18h1v1h-1z M7 19h1v1h-1z M12 19h1v1h-1z M12 20h1v1h-1z M17 20h1v1h-1z M8 21h1v1h-1z M9 21h1v1h-1z M10 21h1v1h-1z M15 21h1v1h-1z M16 21h1v1h-1z M7 23h1v1h-1z M8 23h1v1h-1z M14 23h1v1h-1z M15 23h1v1h-1z" />
    <path fill="#3a6639" d="M10 7h1v1h-1z M13 7h1v1h-1z M16 8h1v1h-1z M7 9h1v1h-1z M12 9h1v1h-1z M14 9h1v1h-1z M15 9h1v1h-1z M8 10h1v1h-1z M12 10h1v1h-1z M14 10h1v1h-1z M16 10h1v1h-1z M17 10h1v1h-1z M5 12h1v1h-1z M9 12h1v1h-1z M14 12h1v1h-1z M6 14h1v1h-1z M7 18h1v1h-1z M14 22h1v1h-1z" />
    <path fill="#699965" d="M11 7h1v1h-1z M12 7h1v1h-1z M9 8h1v1h-1z M10 8h1v1h-1z M12 8h1v1h-1z M13 8h1v1h-1z M14 8h1v1h-1z M8 9h1v1h-1z M13 9h1v1h-1z M15 11h1v1h-1z M18 11h1v1h-1z M6 17h1v1h-1z M9 22h1v1h-1z M15 22h1v1h-1z" />
    <path fill="#a0c49d" d="M8 8h1v1h-1z M15 8h1v1h-1z M5 13h1v1h-1z M7 17h1v1h-1z" />
    <path fill="#ff2a3a" d="M11 8h1v1h-1z M9 9h1v1h-1z M10 9h1v1h-1z M11 9h1v1h-1z" />
    <path fill="#243b23" d="M16 9h1v1h-1z M17 9h1v1h-1z M7 10h1v1h-1z M11 10h1v1h-1z M13 10h1v1h-1z M15 10h1v1h-1z M8 11h1v1h-1z M13 11h1v1h-1z M14 11h1v1h-1z M16 11h1v1h-1z M6 12h1v1h-1z M8 12h1v1h-1z M10 12h1v1h-1z M11 12h1v1h-1z M12 12h1v1h-1z M13 12h1v1h-1z M6 13h1v1h-1z M5 14h1v1h-1z M6 18h1v1h-1z M14 21h1v1h-1z M7 22h1v1h-1z M8 22h1v1h-1z M9 23h1v1h-1z M16 23h1v1h-1z" />
    <path fill="#a61120" d="M9 10h1v1h-1z M10 10h1v1h-1z" />
    <path fill="#28363d" d="M7 11h1v1h-1z M16 12h1v1h-1z M17 12h1v1h-1z M19 12h1v1h-1z M19 13h1v1h-1z M9 14h1v1h-1z M10 14h1v1h-1z M19 14h1v1h-1z M9 15h1v1h-1z M19 15h1v1h-1z M8 16h1v1h-1z M9 16h1v1h-1z M12 16h1v1h-1z M14 16h1v1h-1z M19 16h1v1h-1z M8 17h1v1h-1z M15 17h1v1h-1z M17 17h1v1h-1z M19 17h1v1h-1z M8 18h1v1h-1z M10 18h1v1h-1z M12 18h1v1h-1z M14 18h1v1h-1z M17 18h1v1h-1z M18 18h1v1h-1z M11 19h1v1h-1z M17 19h1v1h-1z M8 20h1v1h-1z M9 20h1v1h-1z M11 20h1v1h-1z M13 20h1v1h-1z M14 20h1v1h-1z M16 20h1v1h-1z" />
    <path fill="#e1d7aa" d="M9 11h1v1h-1z M10 11h1v1h-1z M11 11h1v1h-1z M12 11h1v1h-1z" />
    <path fill="#435863" d="M17 11h1v1h-1z M15 12h1v1h-1z M8 13h1v1h-1z M10 13h1v1h-1z M11 13h1v1h-1z M12 13h1v1h-1z M15 13h1v1h-1z M16 13h1v1h-1z M18 13h1v1h-1z M8 14h1v1h-1z M11 14h1v1h-1z M12 14h1v1h-1z M13 14h1v1h-1z M14 14h1v1h-1z M15 14h1v1h-1z M17 14h1v1h-1z M8 15h1v1h-1z M11 15h1v1h-1z M12 15h1v1h-1z M13 15h1v1h-1z M14 15h1v1h-1z M15 15h1v1h-1z M16 15h1v1h-1z M17 15h1v1h-1z M18 15h1v1h-1z M20 15h1v1h-1z M10 16h1v1h-1z M11 16h1v1h-1z M15 16h1v1h-1z M17 16h1v1h-1z M10 17h1v1h-1z M11 17h1v1h-1z M13 17h1v1h-1z M18 17h1v1h-1z M19 18h1v1h-1z M14 19h1v1h-1z" />
    <path fill="#141d21" d="M18 12h1v1h-1z M9 13h1v1h-1z M18 14h1v1h-1z M13 16h1v1h-1z M18 16h1v1h-1z M9 17h1v1h-1z M14 17h1v1h-1z M16 17h1v1h-1z M20 17h1v1h-1z M9 18h1v1h-1z M11 18h1v1h-1z M15 18h1v1h-1z M16 18h1v1h-1z M8 19h1v1h-1z M13 19h1v1h-1z M18 19h1v1h-1z M10 20h1v1h-1z M15 20h1v1h-1z" />
    <path fill="#607985" d="M13 13h1v1h-1z M14 13h1v1h-1z M17 13h1v1h-1z M16 14h1v1h-1z M10 15h1v1h-1z M16 16h1v1h-1z M12 17h1v1h-1z M9 19h1v1h-1z M10 19h1v1h-1z M15 19h1v1h-1z M16 19h1v1h-1z" />
  </g>
  <g id="frame_1_2" transform="translate(48 24)">
    <path fill="#0b0f0b" d="M10 6h1v1h-1z M11 6h1v1h-1z M12 6h1v1h-1z M13 6h1v1h-1z M8 7h1v1h-1z M9 7h1v1h-1z M14 7h1v1h-1z M15 7h1v1h-1z M7 8h1v1h-1z M17 8h1v1h-1z M6 9h1v1h-1z M18 9h1v1h-1z M6 10h1v1h-1z M18 10h1v1h-1z M5 11h1v1h-1z M6 11h1v1h-1z M19 11h1v1h-1z M4 12h1v1h-1z M7 12h1v1h-1z M20 12h1v1h-1z M4 13h1v1h-1z M7 13h1v1h-1z M20 13h1v1h-1z M4 14h1v1h-1z M7 14h1v1h-1z M20 14h1v1h-1z M5 15h1v1h-1z M6 15h1v1h-1z M7 15h1v1h-1z M21 15h1v1h-1z M7 16h1v1h-1z M22 16h1v1h-1z M6 17h1v1h-1z M8 19h1v1h-1z M9 19h1v1h-1z M10 19h1v1h-1z M11 19h1v1h-1z M21 19h1v1h-1z M7 20h1v1h-1z M14 20h1v1h-1z M20 20h1v1h-1z M7 21h1v1h-1z M9 21h1v1h-1z M10 21h1v1h-1z M11 21h1v1h-1z M14 21h1v1h-1z M15 21h1v1h-1z M16 21h1v1h-1z M17 21h1v1h-1z M18 21h1v1h-1z M14 23h1v1h-1z M15 23h1v1h-1z M17 23h1v1h-1z" />
    <path fill="#3a6639" d="M10 7h1v1h-1z M13 7h1v1h-1z M16 8h1v1h-1z M7 9h1v1h-1z M12 9h1v1h-1z M14 9h1v1h-1z M15 9h1v1h-1z M8 10h1v1h-1z M12 10h1v1h-1z M14 10h1v1h-1z M16 10h1v1h-1z M17 10h1v1h-1z M5 12h1v1h-1z M9 12h1v1h-1z M14 12h1v1h-1z M6 14h1v1h-1z M21 18h1v1h-1z M15 22h1v1h-1z" />
    <path fill="#699965" d="M11 7h1v1h-1z M12 7h1v1h-1z M9 8h1v1h-1z M10 8h1v1h-1z M12 8h1v1h-1z M13 8h1v1h-1z M14 8h1v1h-1z M8 9h1v1h-1z M13 9h1v1h-1z M15 11h1v1h-1z M18 11h1v1h-1z M22 17h1v1h-1z M9 20h1v1h-1z M16 22h1v1h-1z M17 22h1v1h-1z" />
    <path fill="#a0c49d" d="M8 8h1v1h-1z M15 8h1v1h-1z M5 13h1v1h-1z M21 17h1v1h-1z" />
    <path fill="#ff2a3a" d="M11 8h1v1h-1z M9 9h1v1h-1z M10 9h1v1h-1z M11 9h1v1h-1z" />
    <path fill="#243b23" d="M16 9h1v1h-1z M17 9h1v1h-1z M7 10h1v1h-1z M11 10h1v1h-1z M13 10h1v1h-1z M15 10h1v1h-1z M8 11h1v1h-1z M13 11h1v1h-1z M14 11h1v1h-1z M16 11h1v1h-1z M6 12h1v1h-1z M8 12h1v1h-1z M10 12h1v1h-1z M11 12h1v1h-1z M12 12h1v1h-1z M13 12h1v1h-1z M6 13h1v1h-1z M5 14h1v1h-1z M22 18h1v1h-1z M10 20h1v1h-1z M11 20h1v1h-1z M8 21h1v1h-1z M14 22h1v1h-1z M16 23h1v1h-1z" />
    <path fill="#a61120" d="M9 10h1v1h-1z M10 10h1v1h-1z" />
    <path fill="#28363d" d="M7 11h1v1h-1z M16 12h1v1h-1z M17 12h1v1h-1z M19 12h1v1h-1z M19 13h1v1h-1z M9 14h1v1h-1z M10 14h1v1h-1z M19 14h1v1h-1z M9 15h1v1h-1z M19 15h1v1h-1z M8 16h1v1h-1z M9 16h1v1h-1z M14 16h1v1h-1z M16 16h1v1h-1z M21 16h1v1h-1z M8 17h1v1h-1z M10 17h1v1h-1z M12 17h1v1h-1z M18 17h1v1h-1z M20 17h1v1h-1z M7 18h1v1h-1z M10 18h1v1h-1z M15 18h1v1h-1z M20 18h1v1h-1z M7 19h1v1h-1z M15 19h1v1h-1z M17 19h1v1h-1z M8 20h1v1h-1z M16 20h1v1h-1z M18 20h1v1h-1z M19 20h1v1h-1z" />
    <path fill="#e1d7aa" d="M9 11h1v1h-1z M10 11h1v1h-1z M11 11h1v1h-1z M12 11h1v1h-1z" />
    <path fill="#435863" d="M17 11h1v1h-1z M15 12h1v1h-1z M8 13h1v1h-1z M10 13h1v1h-1z M11 13h1v1h-1z M12 13h1v1h-1z M15 13h1v1h-1z M16 13h1v1h-1z M18 13h1v1h-1z M8 14h1v1h-1z M11 14h1v1h-1z M12 14h1v1h-1z M13 14h1v1h-1z M14 14h1v1h-1z M15 14h1v1h-1z M17 14h1v1h-1z M8 15h1v1h-1z M11 15h1v1h-1z M12 15h1v1h-1z M13 15h1v1h-1z M14 15h1v1h-1z M15 15h1v1h-1z M16 15h1v1h-1z M17 15h1v1h-1z M18 15h1v1h-1z M20 15h1v1h-1z M10 16h1v1h-1z M11 16h1v1h-1z M12 16h1v1h-1z M13 16h1v1h-1z M15 16h1v1h-1z M19 16h1v1h-1z M11 17h1v1h-1z M14 17h1v1h-1z M15 17h1v1h-1z M16 17h1v1h-1z M17 18h1v1h-1z M18 18h1v1h-1z M16 19h1v1h-1z" />
    <path fill="#141d21" d="M18 12h1v1h-1z M9 13h1v1h-1z M18 14h1v1h-1z M17 16h1v1h-1z M20 16h1v1h-1z M7 17h1v1h-1z M9 17h1v1h-1z M13 17h1v1h-1z M17 17h1v1h-1z M19 17h1v1h-1z M6 18h1v1h-1z M8 18h1v1h-1z M9 18h1v1h-1z M11 18h1v1h-1z M16 18h1v1h-1z M19 18h1v1h-1z M20 19h1v1h-1z M15 20h1v1h-1z M17 20h1v1h-1z" />
    <path fill="#607985" d="M13 13h1v1h-1z M14 13h1v1h-1z M17 13h1v1h-1z M16 14h1v1h-1z M10 15h1v1h-1z M18 16h1v1h-1z M18 19h1v1h-1z M19 19h1v1h-1z" />
  </g>
  <g id="frame_1_3" transform="translate(72 24)">
    <path fill="#0b0f0b" d="M10 6h1v1h-1z M11 6h1v1h-1z M12 6h1v1h-1z M13 6h1v1h-1z M8 7h1v1h-1z M9 7h1v1h-1z M14 7h1v1h-1z M15 7h1v1h-1z M7 8h1v1h-1z M17 8h1v1h-1z M6 9h1v1h-1z M18 9h1v1h-1z M6 10h1v1h-1z M18 10h1v1h-1z M5 11h1v1h-1z M6 11h1v1h-1z M19 11h1v1h-1z M4 12h1v1h-1z M7 12h1v1h-1z M20 12h1v1h-1z M4 13h1v1h-1z M7 13h1v1h-1z M20 13h1v1h-1z M4 14h1v1h-1z M7 14h1v1h-1z M20 14h1v1h-1z M5 15h1v1h-1z M6 15h1v1h-1z M7 15h1v1h-1z M21 15h1v1h-1z M7 16h1v1h-1z M20 16h1v1h-1z M20 18h1v1h-1z M7 19h1v1h-1z M12 19h1v1h-1z M12 20h1v1h-1z M17 20h1v1h-1z M8 21h1v1h-1z M9 21h1v1h-1z M10 21h1v1h-1z M15 21h1v1h-1z M16 21h1v1h-1z M7 23h1v1h-1z M8 23h1v1h-1z M14 23h1v1h-1z M15 23h1v1h-1z" />
    <path fill="#3a6639" d="M10 7h1v1h-1z M13 7h1v1h-1z M16 8h1v1h-1z M7 9h1v1h-1z M12 9h1v1h-1z M14 9h1v1h-1z M15 9h1v1h-1z M8 10h1v1h-1z M12 10h1v1h-1z M14 10h1v1h-1z M16 10h1v1h-1z M17 10h1v1h-1z M5 12h1v1h-1z M9 12h1v1h-1z M14 12h1v1h-1z M6 14h1v1h-1z M7 18h1v1h-1z M14 22h1v1h-1z" />
    <path fill="#699965" d="M11 7h1v1h-1z M12 7h1v1h-1z M9 8h1v1h-1z M10 8h1v1h-1z M12 8h1v1h-1z M13 8h1v1h-1z M14 8h1v1h-1z M8 9h1v1h-1z M13 9h1v1h-1z M15 11h1v1h-1z M18 11h1v1h-1z M6 17h1v1h-1z M9 22h1v1h-1z M15 22h1v1h-1z" />
    <path fill="#a0c49d" d="M8 8h1v1h-1z M15 8h1v1h-1z M5 13h1v1h-1z M7 17h1v1h-1z" />
    <path fill="#ff2a3a" d="M11 8h1v1h-1z M9 9h1v1h-1z M10 9h1v1h-1z M11 9h1v1h-1z" />
    <path fill="#243b23" d="M16 9h1v1h-1z M17 9h1v1h-1z M7 10h1v1h-1z M11 10h1v1h-1z M13 10h1v1h-1z M15 10h1v1h-1z M8 11h1v1h-1z M13 11h1v1h-1z M14 11h1v1h-1z M16 11h1v1h-1z M6 12h1v1h-1z M8 12h1v1h-1z M10 12h1v1h-1z M11 12h1v1h-1z M12 12h1v1h-1z M13 12h1v1h-1z M6 13h1v1h-1z M5 14h1v1h-1z M6 18h1v1h-1z M14 21h1v1h-1z M7 22h1v1h-1z M8 22h1v1h-1z M9 23h1v1h-1z M16 23h1v1h-1z" />
    <path fill="#a61120" d="M9 10h1v1h-1z M10 10h1v1h-1z" />
    <path fill="#28363d" d="M7 11h1v1h-1z M16 12h1v1h-1z M17 12h1v1h-1z M19 12h1v1h-1z M19 13h1v1h-1z M9 14h1v1h-1z M10 14h1v1h-1z M19 14h1v1h-1z M9 15h1v1h-1z M19 15h1v1h-1z M8 16h1v1h-1z M9 16h1v1h-1z M12 16h1v1h-1z M14 16h1v1h-1z M19 16h1v1h-1z M8 17h1v1h-1z M15 17h1v1h-1z M17 17h1v1h-1z M19 17h1v1h-1z M8 18h1v1h-1z M10 18h1v1h-1z M12 18h1v1h-1z M14 18h1v1h-1z M17 18h1v1h-1z M18 18h1v1h-1z M11 19h1v1h-1z M17 19h1v1h-1z M8 20h1v1h-1z M9 20h1v1h-1z M11 20h1v1h-1z M13 20h1v1h-1z M14 20h1v1h-1z M16 20h1v1h-1z" />
    <path fill="#e1d7aa" d="M9 11h1v1h-1z M10 11h1v1h-1z M11 11h1v1h-1z M12 11h1v1h-1z" />
    <path fill="#435863" d="M17 11h1v1h-1z M15 12h1v1h-1z M8 13h1v1h-1z M10 13h1v1h-1z M11 13h1v1h-1z M12 13h1v1h-1z M15 13h1v1h-1z M16 13h1v1h-1z M18 13h1v1h-1z M8 14h1v1h-1z M11 14h1v1h-1z M12 14h1v1h-1z M13 14h1v1h-1z M14 14h1v1h-1z M15 14h1v1h-1z M17 14h1v1h-1z M8 15h1v1h-1z M11 15h1v1h-1z M12 15h1v1h-1z M13 15h1v1h-1z M14 15h1v1h-1z M15 15h1v1h-1z M16 15h1v1h-1z M17 15h1v1h-1z M18 15h1v1h-1z M20 15h1v1h-1z M10 16h1v1h-1z M11 16h1v1h-1z M15 16h1v1h-1z M17 16h1v1h-1z M10 17h1v1h-1z M11 17h1v1h-1z M13 17h1v1h-1z M18 17h1v1h-1z M19 18h1v1h-1z M14 19h1v1h-1z" />
    <path fill="#141d21" d="M18 12h1v1h-1z M9 13h1v1h-1z M18 14h1v1h-1z M13 16h1v1h-1z M18 16h1v1h-1z M9 17h1v1h-1z M14 17h1v1h-1z M16 17h1v1h-1z M20 17h1v1h-1z M9 18h1v1h-1z M11 18h1v1h-1z M15 18h1v1h-1z M16 18h1v1h-1z M8 19h1v1h-1z M13 19h1v1h-1z M18 19h1v1h-1z M10 20h1v1h-1z M15 20h1v1h-1z" />
    <path fill="#607985" d="M13 13h1v1h-1z M14 13h1v1h-1z M17 13h1v1h-1z M16 14h1v1h-1z M10 15h1v1h-1z M16 16h1v1h-1z M12 17h1v1h-1z M9 19h1v1h-1z M10 19h1v1h-1z M15 19h1v1h-1z M16 19h1v1h-1z" />
  </g>
  <g id="frame_2_0" transform="translate(0 48)">
    <path fill="#0b0f0b" d="M11 6h1v1h-1z M12 6h1v1h-1z M13 6h1v1h-1z M14 6h1v1h-1z M9 7h1v1h-1z M10 7h1v1h-1z M15 7h1v1h-1z M8 8h1v1h-1z M16 8h1v1h-1z M7 9h1v1h-1z M16 9h1v1h-1z M7 10h1v1h-1z M16 10h1v1h-1z M8 11h1v1h-1z M16 11h1v1h-1z M7 12h1v1h-1z M8 12h1v1h-1z M17 12h1v1h-1z M6 13h1v1h-1z M18 13h1v1h-1z M19 14h1v1h-1z M5 15h1v1h-1z M20 15h1v1h-1z M4 17h1v1h-1z M21 17h1v1h-1z M17 18h1v1h-1z M20 18h1v1h-1z M21 18h1v1h-1z M10 19h1v1h-1z M17 19h1v1h-1z M19 19h1v1h-1z M20 19h1v1h-1z M8 20h1v1h-1z M12 20h1v1h-1z M17 20h1v1h-1z M5 21h1v1h-1z M6 21h1v1h-1z M7 21h1v1h-1z M17 21h1v1h-1z M16 22h1v1h-1z M5 23h1v1h-1z M6 23h1v1h-1z M14 23h1v1h-1z M15 23h1v1h-1z" />
    <path fill="#3a6639" d="M11 7h1v1h-1z M9 8h1v1h-1z M10 8h1v1h-1z M8 9h1v1h-1z M9 9h1v1h-1z M12 9h1v1h-1z M9 10h1v1h-1z M10 11h1v1h-1z M11 11h1v1h-1z M12 11h1v1h-1z M15 11h1v1h-1z M19 17h1v1h-1z" />
    <path fill="#699965" d="M12 7h1v1h-1z M13 7h1v1h-1z M11 8h1v1h-1z M12 8h1v1h-1z M15 8h1v1h-1z M11 9h1v1h-1z M11 10h1v1h-1z M12 10h1v1h-1z M7 22h1v1h-1z M15 22h1v1h-1z" />
    <path fill="#a0c49d" d="M14 7h1v1h-1z M20 17h1v1h-1z M18 18h1v1h-1z" />
    <path fill="#ff2a3a" d="M13 8h1v1h-1z M14 8h1v1h-1z M13 9h1v1h-1z M15 9h1v1h-1z" />
    <path fill="#243b23" d="M10 9h1v1h-1z M8 10h1v1h-1z M10 10h1v1h-1z M15 10h1v1h-1z M9 11h1v1h-1z M13 11h1v1h-1z M14 11h1v1h-1z M19 16h1v1h-1z M18 17h1v1h-1z M19 18h1v1h-1z M5 22h1v1h-1z M6 22h1v1h-1z M13 22h1v1h-1z M14 22h1v1h-1z M7 23h1v1h-1z M13 23h1v1h-1z" />
    <path fill="#a61120" d="M14 9h1v1h-1z" />
    <path fill="#e1d7aa" d="M13 10h1v1h-1z M14 10h1v1h-1z" />
    <path fill="#435863" d="M9 12h1v1h-1z M16 12h1v1h-1z M7 13h1v1h-1z M9 13h1v1h-1z M10 13h1v1h-1z M11 13h1v1h-1z M13 13h1v1h-1z M14 13h1v1h-1z M15 13h1v1h-1z M16 13h1v1h-1z M6 14h1v1h-1z M8 14h1v1h-1z M9 14h1v1h-1z M10 14h1v1h-1z M11 14h1v1h-1z M12 14h1v1h-1z M13 14h1v1h-1z M15 14h1v1h-1z M17 14h1v1h-1z M18 14h1v1h-1z M6 15h1v1h-1z M9 15h1v1h-1z M10 15h1v1h-1z M11 15h1v1h-1z M12 15h1v1h-1z M14 15h1v1h-1z M16 15h1v1h-1z M5 16h1v1h-1z M8 16h1v1h-1z M9 16h1v1h-1z M10 16h1v1h-1z M11 16h1v1h-1z M12 16h1v1h-1z M13 16h1v1h-1z M16 16h1v1h-1z M17 16h1v1h-1z M20 16h1v1h-1z M5 17h1v1h-1z M7 17h1v1h-1z M8 17h1v1h-1z M9 17h1v1h-1z M11 17h1v1h-1z M12 17h1v1h-1z M13 17h1v1h-1z M14 17h1v1h-1z M16 17h1v1h-1z M6 18h1v1h-1z M13 18h1v1h-1z M14 18h1v1h-1z M15 18h1v1h-1z M16 18h1v1h-1z M5 19h1v1h-1z M6 19h1v1h-1z M7 19h1v1h-1z" />
    <path fill="#28363d" d="M10 12h1v1h-1z M11 12h1v1h-1z M13 12h1v1h-1z M14 12h1v1h-1z M15 12h1v1h-1z M17 13h1v1h-1z M7 14h1v1h-1z M7 15h1v1h-1z M8 15h1v1h-1z M15 15h1v1h-1z M17 15h1v1h-1z M19 15h1v1h-1z M7 16h1v1h-1z M14 16h1v1h-1z M18 16h1v1h-1z M10 17h1v1h-1z M15 17h1v1h-1z M17 17h1v1h-1z M5 18h1v1h-1z M9 18h1v1h-1z M10 18h1v1h-1z M12 18h1v1h-1z M15 19h1v1h-1z M5 20h1v1h-1z M7 20h1v1h-1z M16 20h1v1h-1z M13 21h1v1h-1z M15 21h1v1h-1z" />
    <path fill="#141d21" d="M12 12h1v1h-1z M8 13h1v1h-1z M16 14h1v1h-1z M18 15h1v1h-1z M6 16h1v1h-1z M6 17h1v1h-1z M4 18h1v1h-1z M7 18h1v1h-1z M8 18h1v1h-1z M11 18h1v1h-1z M4 19h1v1h-1z M8 19h1v1h-1z M12 19h1v1h-1z M13 19h1v1h-1z M14 19h1v1h-1z M16 19h1v1h-1z M4 20h1v1h-1z M6 20h1v1h-1z M13 20h1v1h-1z M14 21h1v1h-1z M16 21h1v1h-1z" />
    <path fill="#607985" d="M12 13h1v1h-1z M14 14h1v1h-1z M13 15h1v1h-1z M15 16h1v1h-1z M14 20h1v1h-1z M15 20h1v1h-1z" />
  </g>
  <g id="frame_2_1" transform="translate(24 48)">
    <path fill="#0b0f0b" d="M11 6h1v1h-1z M12 6h1v1h-1z M13 6h1v1h-1z M14 6h1v1h-1z M9 7h1v1h-1z M10 7h1v1h-1z M15 7h1v1h-1z M8 8h1v1h-1z M16 8h1v1h-1z M7 9h1v1h-1z M16 9h1v1h-1z M7 10h1v1h-1z M16 10h1v1h-1z M8 11h1v1h-1z M16 11h1v1h-1z M7 12h1v1h-1z M8 12h1v1h-1z M17 12h1v1h-1z M6 13h1v1h-1z M18 13h1v1h-1z M19 14h1v1h-1z M5 15h1v1h-1z M20 15h1v1h-1z M4 17h1v1h-1z M21 17h1v1h-1z M17 18h1v1h-1z M20 18h1v1h-1z M21 18h1v1h-1z M10 19h1v1h-1z M17 19h1v1h-1z M19 19h1v1h-1z M20 19h1v1h-1z M8 20h1v1h-1z M12 20h1v1h-1z M17 20h1v1h-1z M5 21h1v1h-1z M6 21h1v1h-1z M7 21h1v1h-1z M16 21h1v1h-1z M14 22h1v1h-1z M15 22h1v1h-1z M5 23h1v1h-1z M6 23h1v1h-1z" />
    <path fill="#3a6639" d="M11 7h1v1h-1z M9 8h1v1h-1z M10 8h1v1h-1z M8 9h1v1h-1z M9 9h1v1h-1z M12 9h1v1h-1z M9 10h1v1h-1z M10 11h1v1h-1z M11 11h1v1h-1z M12 11h1v1h-1z M15 11h1v1h-1z M19 17h1v1h-1z" />
    <path fill="#699965" d="M12 7h1v1h-1z M13 7h1v1h-1z M11 8h1v1h-1z M12 8h1v1h-1z M15 8h1v1h-1z M11 9h1v1h-1z M11 10h1v1h-1z M12 10h1v1h-1z M15 21h1v1h-1z M7 22h1v1h-1z" />
    <path fill="#a0c49d" d="M14 7h1v1h-1z M20 17h1v1h-1z M18 18h1v1h-1z" />
    <path fill="#ff2a3a" d="M13 8h1v1h-1z M14 8h1v1h-1z M13 9h1v1h-1z M15 9h1v1h-1z" />
    <path fill="#243b23" d="M10 9h1v1h-1z M8 10h1v1h-1z M10 10h1v1h-1z M15 10h1v1h-1z M9 11h1v1h-1z M13 11h1v1h-1z M14 11h1v1h-1z M19 16h1v1h-1z M18 17h1v1h-1z M19 18h1v1h-1z M13 21h1v1h-1z M14 21h1v1h-1z M5 22h1v1h-1z M6 22h1v1h-1z M13 22h1v1h-1z M7 23h1v1h-1z" />
    <path fill="#a61120" d="M14 9h1v1h-1z" />
    <path fill="#e1d7aa" d="M13 10h1v1h-1z M14 10h1v1h-1z" />
    <path fill="#435863" d="M9 12h1v1h-1z M16 12h1v1h-1z M7 13h1v1h-1z M9 13h1v1h-1z M10 13h1v1h-1z M11 13h1v1h-1z M13 13h1v1h-1z M14 13h1v1h-1z M15 13h1v1h-1z M16 13h1v1h-1z M6 14h1v1h-1z M8 14h1v1h-1z M9 14h1v1h-1z M10 14h1v1h-1z M11 14h1v1h-1z M12 14h1v1h-1z M13 14h1v1h-1z M15 14h1v1h-1z M17 14h1v1h-1z M18 14h1v1h-1z M6 15h1v1h-1z M9 15h1v1h-1z M10 15h1v1h-1z M11 15h1v1h-1z M12 15h1v1h-1z M14 15h1v1h-1z M16 15h1v1h-1z M5 16h1v1h-1z M8 16h1v1h-1z M9 16h1v1h-1z M10 16h1v1h-1z M11 16h1v1h-1z M12 16h1v1h-1z M13 16h1v1h-1z M16 16h1v1h-1z M17 16h1v1h-1z M20 16h1v1h-1z M5 17h1v1h-1z M7 17h1v1h-1z M8 17h1v1h-1z M9 17h1v1h-1z M11 17h1v1h-1z M12 17h1v1h-1z M13 17h1v1h-1z M14 17h1v1h-1z M16 17h1v1h-1z M6 18h1v1h-1z M13 18h1v1h-1z M14 18h1v1h-1z M15 18h1v1h-1z M16 18h1v1h-1z M5 19h1v1h-1z M6 19h1v1h-1z M7 19h1v1h-1z" />
    <path fill="#28363d" d="M10 12h1v1h-1z M11 12h1v1h-1z M13 12h1v1h-1z M14 12h1v1h-1z M15 12h1v1h-1z M17 13h1v1h-1z M7 14h1v1h-1z M7 15h1v1h-1z M8 15h1v1h-1z M15 15h1v1h-1z M17 15h1v1h-1z M19 15h1v1h-1z M7 16h1v1h-1z M14 16h1v1h-1z M18 16h1v1h-1z M10 17h1v1h-1z M15 17h1v1h-1z M17 17h1v1h-1z M5 18h1v1h-1z M9 18h1v1h-1z M10 18h1v1h-1z M12 18h1v1h-1z M15 19h1v1h-1z M5 20h1v1h-1z M7 20h1v1h-1z M16 20h1v1h-1z" />
    <path fill="#141d21" d="M12 12h1v1h-1z M8 13h1v1h-1z M16 14h1v1h-1z M18 15h1v1h-1z M6 16h1v1h-1z M6 17h1v1h-1z M4 18h1v1h-1z M7 18h1v1h-1z M8 18h1v1h-1z M11 18h1v1h-1z M4 19h1v1h-1z M8 19h1v1h-1z M12 19h1v1h-1z M13 19h1v1h-1z M14 19h1v1h-1z M16 19h1v1h-1z M4 20h1v1h-1z M6 20h1v1h-1z M13 20h1v1h-1z" />
    <path fill="#607985" d="M12 13h1v1h-1z M14 14h1v1h-1z M13 15h1v1h-1z M15 16h1v1h-1z M14 20h1v1h-1z M15 20h1v1h-1z" />
  </g>
  <g id="frame_3_0" transform="translate(0 72)">
    <path fill="#0b0f0b" d="M11 6h1v1h-1z M12 6h1v1h-1z M13 6h1v1h-1z M14 6h1v1h-1z M9 7h1v1h-1z M10 7h1v1h-1z M15 7h1v1h-1z M8 8h1v1h-1z M16 8h1v1h-1z M7 9h1v1h-1z M16 9h1v1h-1z M7 10h1v1h-1z M16 10h1v1h-1z M8 11h1v1h-1z M16 11h1v1h-1z M7 12h1v1h-1z M8 12h1v1h-1z M17 12h1v1h-1z M6 13h1v1h-1z M18 13h1v1h-1z M19 14h1v1h-1z M5 15h1v1h-1z M20 15h1v1h-1z M4 17h1v1h-1z M21 17h1v1h-1z M17 18h1v1h-1z M20 18h1v1h-1z M21 18h1v1h-1z M10 19h1v1h-1z M17 19h1v1h-1z M19 19h1v1h-1z M20 19h1v1h-1z M8 20h1v1h-1z M12 20h1v1h-1z M17 20h1v1h-1z M5 21h1v1h-1z M6 21h1v1h-1z M7 21h1v1h-1z M14 21h1v1h-1z M15 21h1v1h-1z M16 21h1v1h-1z M5 23h1v1h-1z M6 23h1v1h-1z" />
    <path fill="#3a6639" d="M11 7h1v1h-1z M9 8h1v1h-1z M10 8h1v1h-1z M8 9h1v1h-1z M9 9h1v1h-1z M12 9h1v1h-1z M9 10h1v1h-1z M10 11h1v1h-1z M11 11h1v1h-1z M12 11h1v1h-1z M15 11h1v1h-1z M19 17h1v1h-1z" />
    <path fill="#699965" d="M12 7h1v1h-1z M13 7h1v1h-1z M11 8h1v1h-1z M12 8h1v1h-1z M15 8h1v1h-1z M11 9h1v1h-1z M11 10h1v1h-1z M12 10h1v1h-1z M15 20h1v1h-1z M7 22h1v1h-1z" />
    <path fill="#a0c49d" d="M14 7h1v1h-1z M20 17h1v1h-1z M18 18h1v1h-1z" />
    <path fill="#ff2a3a" d="M13 8h1v1h-1z M14 8h1v1h-1z M13 9h1v1h-1z M15 9h1v1h-1z" />
    <path fill="#243b23" d="M10 9h1v1h-1z M8 10h1v1h-1z M10 10h1v1h-1z M15 10h1v1h-1z M9 11h1v1h-1z M13 11h1v1h-1z M14 11h1v1h-1z M19 16h1v1h-1z M18 17h1v1h-1z M19 18h1v1h-1z M13 20h1v1h-1z M14 20h1v1h-1z M5 22h1v1h-1z M6 22h1v1h-1z M7 23h1v1h-1z" />
    <path fill="#a61120" d="M14 9h1v1h-1z" />
    <path fill="#e1d7aa" d="M13 10h1v1h-1z M14 10h1v1h-1z" />
    <path fill="#435863" d="M9 12h1v1h-1z M16 12h1v1h-1z M7 13h1v1h-1z M9 13h1v1h-1z M10 13h1v1h-1z M11 13h1v1h-1z M13 13h1v1h-1z M14 13h1v1h-1z M15 13h1v1h-1z M16 13h1v1h-1z M6 14h1v1h-1z M8 14h1v1h-1z M9 14h1v1h-1z M10 14h1v1h-1z M11 14h1v1h-1z M12 14h1v1h-1z M13 14h1v1h-1z M15 14h1v1h-1z M17 14h1v1h-1z M18 14h1v1h-1z M6 15h1v1h-1z M9 15h1v1h-1z M10 15h1v1h-1z M11 15h1v1h-1z M12 15h1v1h-1z M14 15h1v1h-1z M16 15h1v1h-1z M5 16h1v1h-1z M8 16h1v1h-1z M9 16h1v1h-1z M10 16h1v1h-1z M11 16h1v1h-1z M12 16h1v1h-1z M13 16h1v1h-1z M16 16h1v1h-1z M17 16h1v1h-1z M20 16h1v1h-1z M5 17h1v1h-1z M7 17h1v1h-1z M8 17h1v1h-1z M9 17h1v1h-1z M11 17h1v1h-1z M12 17h1v1h-1z M13 17h1v1h-1z M14 17h1v1h-1z M16 17h1v1h-1z M6 18h1v1h-1z M13 18h1v1h-1z M14 18h1v1h-1z M15 18h1v1h-1z M16 18h1v1h-1z M5 19h1v1h-1z M6 19h1v1h-1z M7 19h1v1h-1z" />
    <path fill="#28363d" d="M10 12h1v1h-1z M11 12h1v1h-1z M13 12h1v1h-1z M14 12h1v1h-1z M15 12h1v1h-1z M17 13h1v1h-1z M7 14h1v1h-1z M7 15h1v1h-1z M8 15h1v1h-1z M15 15h1v1h-1z M17 15h1v1h-1z M19 15h1v1h-1z M7 16h1v1h-1z M14 16h1v1h-1z M18 16h1v1h-1z M10 17h1v1h-1z M15 17h1v1h-1z M17 17h1v1h-1z M5 18h1v1h-1z M9 18h1v1h-1z M10 18h1v1h-1z M12 18h1v1h-1z M15 19h1v1h-1z M5 20h1v1h-1z M7 20h1v1h-1z M16 20h1v1h-1z M13 21h1v1h-1z" />
    <path fill="#141d21" d="M12 12h1v1h-1z M8 13h1v1h-1z M16 14h1v1h-1z M18 15h1v1h-1z M6 16h1v1h-1z M6 17h1v1h-1z M4 18h1v1h-1z M7 18h1v1h-1z M8 18h1v1h-1z M11 18h1v1h-1z M4 19h1v1h-1z M8 19h1v1h-1z M12 19h1v1h-1z M13 19h1v1h-1z M14 19h1v1h-1z M16 19h1v1h-1z M4 20h1v1h-1z M6 20h1v1h-1z" />
    <path fill="#607985" d="M12 13h1v1h-1z M14 14h1v1h-1z M13 15h1v1h-1z M15 16h1v1h-1z" />
  </g>
  <g id="frame_3_1" transform="translate(24 72)">
    <path fill="#0b0f0b" d="M11 6h1v1h-1z M12 6h1v1h-1z M13 6h1v1h-1z M14 6h1v1h-1z M9 7h1v1h-1z M10 7h1v1h-1z M15 7h1v1h-1z M8 8h1v1h-1z M16 8h1v1h-1z M7 9h1v1h-1z M16 9h1v1h-1z M7 10h1v1h-1z M16 10h1v1h-1z M8 11h1v1h-1z M16 11h1v1h-1z M7 12h1v1h-1z M8 12h1v1h-1z M17 12h1v1h-1z M6 13h1v1h-1z M18 13h1v1h-1z M19 14h1v1h-1z M5 15h1v1h-1z M20 15h1v1h-1z M4 17h1v1h-1z M21 17h1v1h-1z M17 18h1v1h-1z M20 18h1v1h-1z M21 18h1v1h-1z M10 19h1v1h-1z M17 19h1v1h-1z M19 19h1v1h-1z M20 19h1v1h-1z M8 20h1v1h-1z M12 20h1v1h-1z M17 20h1v1h-1z M5 21h1v1h-1z M6 21h1v1h-1z M7 21h1v1h-1z M16 21h1v1h-1z M14 22h1v1h-1z M15 22h1v1h-1z M5 23h1v1h-1z M6 23h1v1h-1z" />
    <path fill="#3a6639" d="M11 7h1v1h-1z M9 8h1v1h-1z M10 8h1v1h-1z M8 9h1v1h-1z M9 9h1v1h-1z M12 9h1v1h-1z M9 10h1v1h-1z M10 11h1v1h-1z M11 11h1v1h-1z M12 11h1v1h-1z M15 11h1v1h-1z M19 17h1v1h-1z" />
    <path fill="#699965" d="M12 7h1v1h-1z M13 7h1v1h-1z M11 8h1v1h-1z M12 8h1v1h-1z M15 8h1v1h-1z M11 9h1v1h-1z M11 10h1v1h-1z M12 10h1v1h-1z M15 21h1v1h-1z M7 22h1v1h-1z" />
    <path fill="#a0c49d" d="M14 7h1v1h-1z M20 17h1v1h-1z M18 18h1v1h-1z" />
    <path fill="#ff2a3a" d="M13 8h1v1h-1z M14 8h1v1h-1z M13 9h1v1h-1z M15 9h1v1h-1z" />
    <path fill="#243b23" d="M10 9h1v1h-1z M8 10h1v1h-1z M10 10h1v1h-1z M15 10h1v1h-1z M9 11h1v1h-1z M13 11h1v1h-1z M14 11h1v1h-1z M19 16h1v1h-1z M18 17h1v1h-1z M19 18h1v1h-1z M13 21h1v1h-1z M14 21h1v1h-1z M5 22h1v1h-1z M6 22h1v1h-1z M13 22h1v1h-1z M7 23h1v1h-1z" />
    <path fill="#a61120" d="M14 9h1v1h-1z" />
    <path fill="#e1d7aa" d="M13 10h1v1h-1z M14 10h1v1h-1z" />
    <path fill="#435863" d="M9 12h1v1h-1z M16 12h1v1h-1z M7 13h1v1h-1z M9 13h1v1h-1z M10 13h1v1h-1z M11 13h1v1h-1z M13 13h1v1h-1z M14 13h1v1h-1z M15 13h1v1h-1z M16 13h1v1h-1z M6 14h1v1h-1z M8 14h1v1h-1z M9 14h1v1h-1z M10 14h1v1h-1z M11 14h1v1h-1z M12 14h1v1h-1z M13 14h1v1h-1z M15 14h1v1h-1z M17 14h1v1h-1z M18 14h1v1h-1z M6 15h1v1h-1z M9 15h1v1h-1z M10 15h1v1h-1z M11 15h1v1h-1z M12 15h1v1h-1z M14 15h1v1h-1z M16 15h1v1h-1z M5 16h1v1h-1z M8 16h1v1h-1z M9 16h1v1h-1z M10 16h1v1h-1z M11 16h1v1h-1z M12 16h1v1h-1z M13 16h1v1h-1z M16 16h1v1h-1z M17 16h1v1h-1z M20 16h1v1h-1z M5 17h1v1h-1z M7 17h1v1h-1z M8 17h1v1h-1z M9 17h1v1h-1z M11 17h1v1h-1z M12 17h1v1h-1z M13 17h1v1h-1z M14 17h1v1h-1z M16 17h1v1h-1z M6 18h1v1h-1z M13 18h1v1h-1z M14 18h1v1h-1z M15 18h1v1h-1z M16 18h1v1h-1z M5 19h1v1h-1z M6 19h1v1h-1z M7 19h1v1h-1z" />
    <path fill="#28363d" d="M10 12h1v1h-1z M11 12h1v1h-1z M13 12h1v1h-1z M14 12h1v1h-1z M15 12h1v1h-1z M17 13h1v1h-1z M7 14h1v1h-1z M7 15h1v1h-1z M8 15h1v1h-1z M15 15h1v1h-1z M17 15h1v1h-1z M19 15h1v1h-1z M7 16h1v1h-1z M14 16h1v1h-1z M18 16h1v1h-1z M10 17h1v1h-1z M15 17h1v1h-1z M17 17h1v1h-1z M5 18h1v1h-1z M9 18h1v1h-1z M10 18h1v1h-1z M12 18h1v1h-1z M15 19h1v1h-1z M5 20h1v1h-1z M7 20h1v1h-1z M16 20h1v1h-1z" />
    <path fill="#141d21" d="M12 12h1v1h-1z M8 13h1v1h-1z M16 14h1v1h-1z M18 15h1v1h-1z M6 16h1v1h-1z M6 17h1v1h-1z M4 18h1v1h-1z M7 18h1v1h-1z M8 18h1v1h-1z M11 18h1v1h-1z M4 19h1v1h-1z M8 19h1v1h-1z M12 19h1v1h-1z M13 19h1v1h-1z M14 19h1v1h-1z M16 19h1v1h-1z M4 20h1v1h-1z M6 20h1v1h-1z M13 20h1v1h-1z" />
    <path fill="#607985" d="M12 13h1v1h-1z M14 14h1v1h-1z M13 15h1v1h-1z M15 16h1v1h-1z M14 20h1v1h-1z M15 20h1v1h-1z" />
  </g>
  <g id="frame_3_2" transform="translate(48 72)">
    <path fill="#0b0f0b" d="M11 6h1v1h-1z M12 6h1v1h-1z M13 6h1v1h-1z M14 6h1v1h-1z M9 7h1v1h-1z M10 7h1v1h-1z M15 7h1v1h-1z M8 8h1v1h-1z M16 8h1v1h-1z M7 9h1v1h-1z M16 9h1v1h-1z M7 10h1v1h-1z M16 10h1v1h-1z M8 11h1v1h-1z M16 11h1v1h-1z M7 12h1v1h-1z M8 12h1v1h-1z M17 12h1v1h-1z M6 13h1v1h-1z M18 13h1v1h-1z M19 14h1v1h-1z M5 15h1v1h-1z M20 15h1v1h-1z M4 17h1v1h-1z M21 17h1v1h-1z M17 18h1v1h-1z M20 18h1v1h-1z M21 18h1v1h-1z M10 19h1v1h-1z M17 19h1v1h-1z M19 19h1v1h-1z M20 19h1v1h-1z M8 20h1v1h-1z M12 20h1v1h-1z M17 20h1v1h-1z M8 21h1v1h-1z M17 21h1v1h-1z M6 22h1v1h-1z M7 22h1v1h-1z M8 22h1v1h-1z M16 22h1v1h-1z M14 23h1v1h-1z M15 23h1v1h-1z" />
    <path fill="#3a6639" d="M11 7h1v1h-1z M9 8h1v1h-1z M10 8h1v1h-1z M8 9h1v1h-1z M9 9h1v1h-1z M12 9h1v1h-1z M9 10h1v1h-1z M10 11h1v1h-1z M11 11h1v1h-1z M12 11h1v1h-1z M15 11h1v1h-1z M19 17h1v1h-1z" />
    <path fill="#699965" d="M12 7h1v1h-1z M13 7h1v1h-1z M11 8h1v1h-1z M12 8h1v1h-1z M15 8h1v1h-1z M11 9h1v1h-1z M11 10h1v1h-1z M12 10h1v1h-1z M7 21h1v1h-1z M15 22h1v1h-1z" />
    <path fill="#a0c49d" d="M14 7h1v1h-1z M20 17h1v1h-1z M18 18h1v1h-1z" />
    <path fill="#ff2a3a" d="M13 8h1v1h-1z M14 8h1v1h-1z M13 9h1v1h-1z M15 9h1v1h-1z" />
    <path fill="#243b23" d="M10 9h1v1h-1z M8 10h1v1h-1z M10 10h1v1h-1z M15 10h1v1h-1z M9 11h1v1h-1z M13 11h1v1h-1z M14 11h1v1h-1z M19 16h1v1h-1z M18 17h1v1h-1z M19 18h1v1h-1z M5 21h1v1h-1z M6 21h1v1h-1z M5 22h1v1h-1z M13 22h1v1h-1z M14 22h1v1h-1z M13 23h1v1h-1z" />
    <path fill="#a61120" d="M14 9h1v1h-1z" />
    <path fill="#e1d7aa" d="M13 10h1v1h-1z M14 10h1v1h-1z" />
    <path fill="#435863" d="M9 12h1v1h-1z M16 12h1v1h-1z M7 13h1v1h-1z M9 13h1v1h-1z M10 13h1v1h-1z M11 13h1v1h-1z M13 13h1v1h-1z M14 13h1v1h-1z M15 13h1v1h-1z M16 13h1v1h-1z M6 14h1v1h-1z M8 14h1v1h-1z M9 14h1v1h-1z M10 14h1v1h-1z M11 14h1v1h-1z M12 14h1v1h-1z M13 14h1v1h-1z M15 14h1v1h-1z M17 14h1v1h-1z M18 14h1v1h-1z M6 15h1v1h-1z M9 15h1v1h-1z M10 15h1v1h-1z M11 15h1v1h-1z M12 15h1v1h-1z M14 15h1v1h-1z M16 15h1v1h-1z M5 16h1v1h-1z M8 16h1v1h-1z M9 16h1v1h-1z M10 16h1v1h-1z M11 16h1v1h-1z M12 16h1v1h-1z M13 16h1v1h-1z M16 16h1v1h-1z M17 16h1v1h-1z M20 16h1v1h-1z M5 17h1v1h-1z M7 17h1v1h-1z M8 17h1v1h-1z M9 17h1v1h-1z M11 17h1v1h-1z M12 17h1v1h-1z M13 17h1v1h-1z M14 17h1v1h-1z M16 17h1v1h-1z M6 18h1v1h-1z M13 18h1v1h-1z M14 18h1v1h-1z M15 18h1v1h-1z M16 18h1v1h-1z M5 19h1v1h-1z M6 19h1v1h-1z M7 19h1v1h-1z" />
    <path fill="#28363d" d="M10 12h1v1h-1z M11 12h1v1h-1z M13 12h1v1h-1z M14 12h1v1h-1z M15 12h1v1h-1z M17 13h1v1h-1z M7 14h1v1h-1z M7 15h1v1h-1z M8 15h1v1h-1z M15 15h1v1h-1z M17 15h1v1h-1z M19 15h1v1h-1z M7 16h1v1h-1z M14 16h1v1h-1z M18 16h1v1h-1z M10 17h1v1h-1z M15 17h1v1h-1z M17 17h1v1h-1z M5 18h1v1h-1z M9 18h1v1h-1z M10 18h1v1h-1z M12 18h1v1h-1z M15 19h1v1h-1z M5 20h1v1h-1z M7 20h1v1h-1z M16 20h1v1h-1z M13 21h1v1h-1z M15 21h1v1h-1z" />
    <path fill="#141d21" d="M12 12h1v1h-1z M8 13h1v1h-1z M16 14h1v1h-1z M18 15h1v1h-1z M6 16h1v1h-1z M6 17h1v1h-1z M4 18h1v1h-1z M7 18h1v1h-1z M8 18h1v1h-1z M11 18h1v1h-1z M4 19h1v1h-1z M8 19h1v1h-1z M12 19h1v1h-1z M13 19h1v1h-1z M14 19h1v1h-1z M16 19h1v1h-1z M4 20h1v1h-1z M6 20h1v1h-1z M13 20h1v1h-1z M14 21h1v1h-1z M16 21h1v1h-1z" />
    <path fill="#607985" d="M12 13h1v1h-1z M14 14h1v1h-1z M13 15h1v1h-1z M15 16h1v1h-1z M14 20h1v1h-1z M15 20h1v1h-1z" />
  </g>
  <g id="frame_3_3" transform="translate(72 72)">
    <path fill="#0b0f0b" d="M11 6h1v1h-1z M12 6h1v1h-1z M13 6h1v1h-1z M14 6h1v1h-1z M9 7h1v1h-1z M10 7h1v1h-1z M15 7h1v1h-1z M8 8h1v1h-1z M16 8h1v1h-1z M7 9h1v1h-1z M16 9h1v1h-1z M7 10h1v1h-1z M16 10h1v1h-1z M8 11h1v1h-1z M16 11h1v1h-1z M7 12h1v1h-1z M8 12h1v1h-1z M17 12h1v1h-1z M6 13h1v1h-1z M18 13h1v1h-1z M19 14h1v1h-1z M5 15h1v1h-1z M20 15h1v1h-1z M4 17h1v1h-1z M21 17h1v1h-1z M17 18h1v1h-1z M20 18h1v1h-1z M21 18h1v1h-1z M10 19h1v1h-1z M17 19h1v1h-1z M19 19h1v1h-1z M20 19h1v1h-1z M8 20h1v1h-1z M12 20h1v1h-1z M17 20h1v1h-1z M5 21h1v1h-1z M6 21h1v1h-1z M7 21h1v1h-1z M16 21h1v1h-1z M14 22h1v1h-1z M15 22h1v1h-1z M5 23h1v1h-1z M6 23h1v1h-1z" />
    <path fill="#3a6639" d="M11 7h1v1h-1z M9 8h1v1h-1z M10 8h1v1h-1z M8 9h1v1h-1z M9 9h1v1h-1z M12 9h1v1h-1z M9 10h1v1h-1z M10 11h1v1h-1z M11 11h1v1h-1z M12 11h1v1h-1z M15 11h1v1h-1z M19 17h1v1h-1z" />
    <path fill="#699965" d="M12 7h1v1h-1z M13 7h1v1h-1z M11 8h1v1h-1z M12 8h1v1h-1z M15 8h1v1h-1z M11 9h1v1h-1z M11 10h1v1h-1z M12 10h1v1h-1z M15 21h1v1h-1z M7 22h1v1h-1z" />
    <path fill="#a0c49d" d="M14 7h1v1h-1z M20 17h1v1h-1z M18 18h1v1h-1z" />
    <path fill="#ff2a3a" d="M13 8h1v1h-1z M14 8h1v1h-1z M13 9h1v1h-1z M15 9h1v1h-1z" />
    <path fill="#243b23" d="M10 9h1v1h-1z M8 10h1v1h-1z M10 10h1v1h-1z M15 10h1v1h-1z M9 11h1v1h-1z M13 11h1v1h-1z M14 11h1v1h-1z M19 16h1v1h-1z M18 17h1v1h-1z M19 18h1v1h-1z M13 21h1v1h-1z M14 21h1v1h-1z M5 22h1v1h-1z M6 22h1v1h-1z M13 22h1v1h-1z M7 23h1v1h-1z" />
    <path fill="#a61120" d="M14 9h1v1h-1z" />
    <path fill="#e1d7aa" d="M13 10h1v1h-1z M14 10h1v1h-1z" />
    <path fill="#435863" d="M9 12h1v1h-1z M16 12h1v1h-1z M7 13h1v1h-1z M9 13h1v1h-1z M10 13h1v1h-1z M11 13h1v1h-1z M13 13h1v1h-1z M14 13h1v1h-1z M15 13h1v1h-1z M16 13h1v1h-1z M6 14h1v1h-1z M8 14h1v1h-1z M9 14h1v1h-1z M10 14h1v1h-1z M11 14h1v1h-1z M12 14h1v1h-1z M13 14h1v1h-1z M15 14h1v1h-1z M17 14h1v1h-1z M18 14h1v1h-1z M6 15h1v1h-1z M9 15h1v1h-1z M10 15h1v1h-1z M11 15h1v1h-1z M12 15h1v1h-1z M14 15h1v1h-1z M16 15h1v1h-1z M5 16h1v1h-1z M8 16h1v1h-1z M9 16h1v1h-1z M10 16h1v1h-1z M11 16h1v1h-1z M12 16h1v1h-1z M13 16h1v1h-1z M16 16h1v1h-1z M17 16h1v1h-1z M20 16h1v1h-1z M5 17h1v1h-1z M7 17h1v1h-1z M8 17h1v1h-1z M9 17h1v1h-1z M11 17h1v1h-1z M12 17h1v1h-1z M13 17h1v1h-1z M14 17h1v1h-1z M16 17h1v1h-1z M6 18h1v1h-1z M13 18h1v1h-1z M14 18h1v1h-1z M15 18h1v1h-1z M16 18h1v1h-1z M5 19h1v1h-1z M6 19h1v1h-1z M7 19h1v1h-1z" />
    <path fill="#28363d" d="M10 12h1v1h-1z M11 12h1v1h-1z M13 12h1v1h-1z M14 12h1v1h-1z M15 12h1v1h-1z M17 13h1v1h-1z M7 14h1v1h-1z M7 15h1v1h-1z M8 15h1v1h-1z M15 15h1v1h-1z M17 15h1v1h-1z M19 15h1v1h-1z M7 16h1v1h-1z M14 16h1v1h-1z M18 16h1v1h-1z M10 17h1v1h-1z M15 17h1v1h-1z M17 17h1v1h-1z M5 18h1v1h-1z M9 18h1v1h-1z M10 18h1v1h-1z M12 18h1v1h-1z M15 19h1v1h-1z M5 20h1v1h-1z M7 20h1v1h-1z M16 20h1v1h-1z" />
    <path fill="#141d21" d="M12 12h1v1h-1z M8 13h1v1h-1z M16 14h1v1h-1z M18 15h1v1h-1z M6 16h1v1h-1z M6 17h1v1h-1z M4 18h1v1h-1z M7 18h1v1h-1z M8 18h1v1h-1z M11 18h1v1h-1z M4 19h1v1h-1z M8 19h1v1h-1z M12 19h1v1h-1z M13 19h1v1h-1z M14 19h1v1h-1z M16 19h1v1h-1z M4 20h1v1h-1z M6 20h1v1h-1z M13 20h1v1h-1z" />
    <path fill="#607985" d="M12 13h1v1h-1z M14 14h1v1h-1z M13 15h1v1h-1z M15 16h1v1h-1z M14 20h1v1h-1z M15 20h1v1h-1z" />
  </g>
  <g id="frame_4_0" transform="translate(0 96)">
    <path fill="#0b0f0b" d="M10 6h1v1h-1z M11 6h1v1h-1z M12 6h1v1h-1z M13 6h1v1h-1z M8 7h1v1h-1z M9 7h1v1h-1z M15 7h1v1h-1z M7 8h1v1h-1z M16 8h1v1h-1z M6 9h1v1h-1z M16 9h1v1h-1z M17 9h1v1h-1z M6 10h1v1h-1z M17 10h1v1h-1z M5 11h1v1h-1z M6 11h1v1h-1z M18 11h1v1h-1z M4 12h1v1h-1z M19 12h1v1h-1z M4 13h1v1h-1z M19 13h1v1h-1z M4 14h1v1h-1z M19 14h1v1h-1z M5 15h1v1h-1z M6 15h1v1h-1z M19 15h1v1h-1z M19 16h1v1h-1z M20 17h1v1h-1z M20 18h1v1h-1z M20 19h1v1h-1z M7 20h1v1h-1z M10 20h1v1h-1z M8 21h1v1h-1z M9 21h1v1h-1z M10 21h1v1h-1z M17 21h1v1h-1z M19 21h1v1h-1z M7 23h1v1h-1z M8 23h1v1h-1z M17 23h1v1h-1z M18 23h1v1h-1z" />
    <path fill="#243b23" d="M10 7h1v1h-1z M9 8h1v1h-1z M10 8h1v1h-1z M11 8h1v1h-1z M12 8h1v1h-1z M13 8h1v1h-1z M14 8h1v1h-1z M8 9h1v1h-1z M13 9h1v1h-1z M15 9h1v1h-1z M8 10h1v1h-1z M10 10h1v1h-1z M11 10h1v1h-1z M12 10h1v1h-1z M13 10h1v1h-1z M16 10h1v1h-1z M7 22h1v1h-1z M8 22h1v1h-1z M9 23h1v1h-1z M19 23h1v1h-1z" />
    <path fill="#3a6639" d="M11 7h1v1h-1z M12 7h1v1h-1z M8 8h1v1h-1z M7 9h1v1h-1z M9 9h1v1h-1z M10 9h1v1h-1z M11 9h1v1h-1z M12 9h1v1h-1z M14 9h1v1h-1z M7 10h1v1h-1z M9 10h1v1h-1z M14 10h1v1h-1z M15 10h1v1h-1z M17 22h1v1h-1z" />
    <path fill="#699965" d="M13 7h1v1h-1z M15 8h1v1h-1z M9 22h1v1h-1z M18 22h1v1h-1z" />
    <path fill="#a0c49d" d="M14 7h1v1h-1z" />
    <path fill="#28363d" d="M7 11h1v1h-1z M8 11h1v1h-1z M9 11h1v1h-1z M10 11h1v1h-1z M11 11h1v1h-1z M12 11h1v1h-1z M13 11h1v1h-1z M14 11h1v1h-1z M17 11h1v1h-1z M10 12h1v1h-1z M11 12h1v1h-1z M17 12h1v1h-1z M8 13h1v1h-1z M17 13h1v1h-1z M5 14h1v1h-1z M15 14h1v1h-1z M17 14h1v1h-1z M15 15h1v1h-1z M18 15h1v1h-1z M7 16h1v1h-1z M17 16h1v1h-1z M8 17h1v1h-1z M15 17h1v1h-1z M19 17h1v1h-1z M10 18h1v1h-1z M19 18h1v1h-1z M8 19h1v1h-1z M9 19h1v1h-1z M12 19h1v1h-1z M13 19h1v1h-1z M14 19h1v1h-1z M19 19h1v1h-1z M9 20h1v1h-1z M11 20h1v1h-1z M12 20h1v1h-1z M18 21h1v1h-1z" />
    <path fill="#141d21" d="M15 11h1v1h-1z M6 12h1v1h-1z M9 12h1v1h-1z M14 12h1v1h-1z M16 13h1v1h-1z M6 14h1v1h-1z M16 14h1v1h-1z M9 15h1v1h-1z M13 15h1v1h-1z M12 16h1v1h-1z M16 16h1v1h-1z M18 16h1v1h-1z M7 17h1v1h-1z M7 18h1v1h-1z M9 18h1v1h-1z M16 18h1v1h-1z M11 19h1v1h-1z M18 19h1v1h-1z M8 20h1v1h-1z M13 20h1v1h-1z M14 20h1v1h-1z M15 20h1v1h-1z M18 20h1v1h-1z M19 20h1v1h-1z" />
    <path fill="#435863" d="M16 11h1v1h-1z M5 12h1v1h-1z M7 12h1v1h-1z M8 12h1v1h-1z M12 12h1v1h-1z M13 12h1v1h-1z M15 12h1v1h-1z M16 12h1v1h-1z M18 12h1v1h-1z M5 13h1v1h-1z M7 13h1v1h-1z M9 13h1v1h-1z M11 13h1v1h-1z M13 13h1v1h-1z M15 13h1v1h-1z M7 14h1v1h-1z M8 14h1v1h-1z M9 14h1v1h-1z M13 14h1v1h-1z M14 14h1v1h-1z M18 14h1v1h-1z M7 15h1v1h-1z M8 15h1v1h-1z M10 15h1v1h-1z M11 15h1v1h-1z M12 15h1v1h-1z M14 15h1v1h-1z M16 15h1v1h-1z M17 15h1v1h-1z M8 16h1v1h-1z M9 16h1v1h-1z M10 16h1v1h-1z M14 16h1v1h-1z M15 16h1v1h-1z M9 17h1v1h-1z M12 17h1v1h-1z M14 17h1v1h-1z M16 17h1v1h-1z M17 17h1v1h-1z M18 17h1v1h-1z M6 18h1v1h-1z M8 18h1v1h-1z M12 18h1v1h-1z M13 18h1v1h-1z M14 18h1v1h-1z M15 18h1v1h-1z M17 18h1v1h-1z M18 18h1v1h-1z M7 19h1v1h-1z M10 19h1v1h-1z M16 19h1v1h-1z M17 19h1v1h-1z M16 20h1v1h-1z M17 20h1v1h-1z" />
    <path fill="#607985" d="M6 13h1v1h-1z M10 13h1v1h-1z M12 13h1v1h-1z M14 13h1v1h-1z M18 13h1v1h-1z M10 14h1v1h-1z M11 14h1v1h-1z M12 14h1v1h-1z M11 16h1v1h-1z M13 16h1v1h-1z M6 17h1v1h-1z M10 17h1v1h-1z M11 17h1v1h-1z M13 17h1v1h-1z M11 18h1v1h-1z M15 19h1v1h-1z" />
  </g>
  <g id="frame_4_1" transform="translate(24 96)">
    <path fill="#0b0f0b" d="M10 6h1v1h-1z M11 6h1v1h-1z M12 6h1v1h-1z M13 6h1v1h-1z M8 7h1v1h-1z M9 7h1v1h-1z M15 7h1v1h-1z M7 8h1v1h-1z M16 8h1v1h-1z M6 9h1v1h-1z M16 9h1v1h-1z M17 9h1v1h-1z M6 10h1v1h-1z M17 10h1v1h-1z M5 11h1v1h-1z M6 11h1v1h-1z M18 11h1v1h-1z M4 12h1v1h-1z M19 12h1v1h-1z M4 13h1v1h-1z M19 13h1v1h-1z M4 14h1v1h-1z M19 14h1v1h-1z M5 15h1v1h-1z M6 15h1v1h-1z M19 15h1v1h-1z M7 16h1v1h-1z M19 16h1v1h-1z M20 17h1v1h-1z M20 18h1v1h-1z M20 19h1v1h-1z M7 20h1v1h-1z M10 20h1v1h-1z M13 20h1v1h-1z M8 21h1v1h-1z M9 21h1v1h-1z M10 21h1v1h-1z M14 21h1v1h-1z M15 21h1v1h-1z M19 21h1v1h-1z M7 23h1v1h-1z M8 23h1v1h-1z M14 23h1v1h-1z M15 23h1v1h-1z" />
    <path fill="#243b23" d="M10 7h1v1h-1z M9 8h1v1h-1z M10 8h1v1h-1z M11 8h1v1h-1z M12 8h1v1h-1z M13 8h1v1h-1z M14 8h1v1h-1z M8 9h1v1h-1z M13 9h1v1h-1z M15 9h1v1h-1z M8 10h1v1h-1z M10 10h1v1h-1z M11 10h1v1h-1z M12 10h1v1h-1z M13 10h1v1h-1z M16 10h1v1h-1z M7 22h1v1h-1z M8 22h1v1h-1z M9 23h1v1h-1z M16 23h1v1h-1z" />
    <path fill="#3a6639" d="M11 7h1v1h-1z M12 7h1v1h-1z M8 8h1v1h-1z M7 9h1v1h-1z M9 9h1v1h-1z M10 9h1v1h-1z M11 9h1v1h-1z M12 9h1v1h-1z M14 9h1v1h-1z M7 10h1v1h-1z M9 10h1v1h-1z M14 10h1v1h-1z M15 10h1v1h-1z M14 22h1v1h-1z" />
    <path fill="#699965" d="M13 7h1v1h-1z M15 8h1v1h-1z M9 22h1v1h-1z M15 22h1v1h-1z" />
    <path fill="#a0c49d" d="M14 7h1v1h-1z" />
    <path fill="#28363d" d="M7 11h1v1h-1z M8 11h1v1h-1z M9 11h1v1h-1z M10 11h1v1h-1z M11 11h1v1h-1z M12 11h1v1h-1z M13 11h1v1h-1z M14 11h1v1h-1z M17 11h1v1h-1z M10 12h1v1h-1z M11 12h1v1h-1z M17 12h1v1h-1z M8 13h1v1h-1z M17 13h1v1h-1z M5 14h1v1h-1z M15 14h1v1h-1z M17 14h1v1h-1z M15 15h1v1h-1z M18 15h1v1h-1z M17 16h1v1h-1z M7 17h1v1h-1z M15 17h1v1h-1z M19 17h1v1h-1z M10 18h1v1h-1z M19 18h1v1h-1z M8 19h1v1h-1z M10 19h1v1h-1z M12 19h1v1h-1z M13 19h1v1h-1z M14 19h1v1h-1z M19 19h1v1h-1z M9 20h1v1h-1z" />
    <path fill="#141d21" d="M15 11h1v1h-1z M6 12h1v1h-1z M9 12h1v1h-1z M14 12h1v1h-1z M16 13h1v1h-1z M6 14h1v1h-1z M16 14h1v1h-1z M9 15h1v1h-1z M13 15h1v1h-1z M12 16h1v1h-1z M16 16h1v1h-1z M18 16h1v1h-1z M7 18h1v1h-1z M9 18h1v1h-1z M16 18h1v1h-1z M7 19h1v1h-1z M9 19h1v1h-1z M11 19h1v1h-1z M18 19h1v1h-1z M8 20h1v1h-1z M14 20h1v1h-1z M15 20h1v1h-1z M18 20h1v1h-1z M19 20h1v1h-1z" />
    <path fill="#435863" d="M16 11h1v1h-1z M5 12h1v1h-1z M7 12h1v1h-1z M8 12h1v1h-1z M12 12h1v1h-1z M13 12h1v1h-1z M15 12h1v1h-1z M16 12h1v1h-1z M18 12h1v1h-1z M5 13h1v1h-1z M7 13h1v1h-1z M9 13h1v1h-1z M11 13h1v1h-1z M13 13h1v1h-1z M15 13h1v1h-1z M7 14h1v1h-1z M8 14h1v1h-1z M9 14h1v1h-1z M13 14h1v1h-1z M14 14h1v1h-1z M18 14h1v1h-1z M7 15h1v1h-1z M8 15h1v1h-1z M10 15h1v1h-1z M11 15h1v1h-1z M12 15h1v1h-1z M14 15h1v1h-1z M16 15h1v1h-1z M17 15h1v1h-1z M8 16h1v1h-1z M9 16h1v1h-1z M10 16h1v1h-1z M14 16h1v1h-1z M15 16h1v1h-1z M8 17h1v1h-1z M9 17h1v1h-1z M12 17h1v1h-1z M14 17h1v1h-1z M16 17h1v1h-1z M17 17h1v1h-1z M18 17h1v1h-1z M6 18h1v1h-1z M8 18h1v1h-1z M12 18h1v1h-1z M13 18h1v1h-1z M14 18h1v1h-1z M15 18h1v1h-1z M17 18h1v1h-1z M18 18h1v1h-1z M16 19h1v1h-1z M17 19h1v1h-1z M16 20h1v1h-1z M17 20h1v1h-1z" />
    <path fill="#607985" d="M6 13h1v1h-1z M10 13h1v1h-1z M12 13h1v1h-1z M14 13h1v1h-1z M18 13h1v1h-1z M10 14h1v1h-1z M11 14h1v1h-1z M12 14h1v1h-1z M11 16h1v1h-1z M13 16h1v1h-1z M6 17h1v1h-1z M10 17h1v1h-1z M11 17h1v1h-1z M13 17h1v1h-1z M11 18h1v1h-1z M15 19h1v1h-1z" />
  </g>
  <g id="frame_5_0" transform="translate(0 120)">
    <path fill="#0b0f0b" d="M10 6h1v1h-1z M11 6h1v1h-1z M12 6h1v1h-1z M13 6h1v1h-1z M8 7h1v1h-1z M9 7h1v1h-1z M15 7h1v1h-1z M7 8h1v1h-1z M16 8h1v1h-1z M6 9h1v1h-1z M16 9h1v1h-1z M17 9h1v1h-1z M6 10h1v1h-1z M17 10h1v1h-1z M5 11h1v1h-1z M6 11h1v1h-1z M18 11h1v1h-1z M4 12h1v1h-1z M19 12h1v1h-1z M4 13h1v1h-1z M19 13h1v1h-1z M4 14h1v1h-1z M19 14h1v1h-1z M5 15h1v1h-1z M6 15h1v1h-1z M19 15h1v1h-1z M7 16h1v1h-1z M18 16h1v1h-1z M20 17h1v1h-1z M17 18h1v1h-1z M16 19h1v1h-1z M17 19h1v1h-1z M19 19h1v1h-1z M20 19h1v1h-1z M7 20h1v1h-1z M10 20h1v1h-1z M14 20h1v1h-1z M18 20h1v1h-1z M8 21h1v1h-1z M9 21h1v1h-1z M10 21h1v1h-1z M14 21h1v1h-1z M15 21h1v1h-1z M16 21h1v1h-1z M17 21h1v1h-1z M7 23h1v1h-1z M8 23h1v1h-1z" />
    <path fill="#243b23" d="M10 7h1v1h-1z M9 8h1v1h-1z M10 8h1v1h-1z M11 8h1v1h-1z M12 8h1v1h-1z M13 8h1v1h-1z M14 8h1v1h-1z M8 9h1v1h-1z M13 9h1v1h-1z M15 9h1v1h-1z M8 10h1v1h-1z M10 10h1v1h-1z M11 10h1v1h-1z M12 10h1v1h-1z M13 10h1v1h-1z M16 10h1v1h-1z M18 18h1v1h-1z M18 19h1v1h-1z M15 20h1v1h-1z M16 20h1v1h-1z M7 22h1v1h-1z M8 22h1v1h-1z M9 23h1v1h-1z" />
    <path fill="#3a6639" d="M11 7h1v1h-1z M12 7h1v1h-1z M8 8h1v1h-1z M7 9h1v1h-1z M9 9h1v1h-1z M10 9h1v1h-1z M11 9h1v1h-1z M12 9h1v1h-1z M14 9h1v1h-1z M7 10h1v1h-1z M9 10h1v1h-1z M14 10h1v1h-1z M15 10h1v1h-1z M19 18h1v1h-1z" />
    <path fill="#699965" d="M13 7h1v1h-1z M15 8h1v1h-1z M17 20h1v1h-1z M9 22h1v1h-1z" />
    <path fill="#a0c49d" d="M14 7h1v1h-1z M20 18h1v1h-1z" />
    <path fill="#28363d" d="M7 11h1v1h-1z M8 11h1v1h-1z M9 11h1v1h-1z M10 11h1v1h-1z M11 11h1v1h-1z M12 11h1v1h-1z M13 11h1v1h-1z M14 11h1v1h-1z M17 11h1v1h-1z M10 12h1v1h-1z M11 12h1v1h-1z M17 12h1v1h-1z M8 13h1v1h-1z M17 13h1v1h-1z M5 14h1v1h-1z M15 14h1v1h-1z M17 14h1v1h-1z M15 15h1v1h-1z M18 15h1v1h-1z M7 17h1v1h-1z M17 17h1v1h-1z M10 18h1v1h-1z M8 19h1v1h-1z M10 19h1v1h-1z M12 19h1v1h-1z M14 19h1v1h-1z M9 20h1v1h-1z" />
    <path fill="#141d21" d="M15 11h1v1h-1z M6 12h1v1h-1z M9 12h1v1h-1z M14 12h1v1h-1z M16 13h1v1h-1z M6 14h1v1h-1z M16 14h1v1h-1z M9 15h1v1h-1z M13 15h1v1h-1z M12 16h1v1h-1z M16 16h1v1h-1z M17 16h1v1h-1z M16 17h1v1h-1z M7 18h1v1h-1z M9 18h1v1h-1z M15 18h1v1h-1z M16 18h1v1h-1z M7 19h1v1h-1z M9 19h1v1h-1z M11 19h1v1h-1z M13 19h1v1h-1z M8 20h1v1h-1z" />
    <path fill="#435863" d="M16 11h1v1h-1z M5 12h1v1h-1z M7 12h1v1h-1z M8 12h1v1h-1z M12 12h1v1h-1z M13 12h1v1h-1z M15 12h1v1h-1z M16 12h1v1h-1z M18 12h1v1h-1z M5 13h1v1h-1z M7 13h1v1h-1z M9 13h1v1h-1z M11 13h1v1h-1z M13 13h1v1h-1z M15 13h1v1h-1z M7 14h1v1h-1z M8 14h1v1h-1z M9 14h1v1h-1z M13 14h1v1h-1z M14 14h1v1h-1z M18 14h1v1h-1z M7 15h1v1h-1z M8 15h1v1h-1z M10 15h1v1h-1z M11 15h1v1h-1z M12 15h1v1h-1z M14 15h1v1h-1z M16 15h1v1h-1z M17 15h1v1h-1z M8 16h1v1h-1z M9 16h1v1h-1z M10 16h1v1h-1z M14 16h1v1h-1z M15 16h1v1h-1z M8 17h1v1h-1z M9 17h1v1h-1z M12 17h1v1h-1z M14 17h1v1h-1z M15 17h1v1h-1z M18 17h1v1h-1z M19 17h1v1h-1z M6 18h1v1h-1z M8 18h1v1h-1z M12 18h1v1h-1z M13 18h1v1h-1z M14 18h1v1h-1z M15 19h1v1h-1z" />
    <path fill="#607985" d="M6 13h1v1h-1z M10 13h1v1h-1z M12 13h1v1h-1z M14 13h1v1h-1z M18 13h1v1h-1z M10 14h1v1h-1z M11 14h1v1h-1z M12 14h1v1h-1z M11 16h1v1h-1z M13 16h1v1h-1z M6 17h1v1h-1z M10 17h1v1h-1z M11 17h1v1h-1z M13 17h1v1h-1z M11 18h1v1h-1z" />
  </g>
  <g id="frame_5_1" transform="translate(24 120)">
    <path fill="#0b0f0b" d="M10 6h1v1h-1z M11 6h1v1h-1z M12 6h1v1h-1z M13 6h1v1h-1z M8 7h1v1h-1z M9 7h1v1h-1z M15 7h1v1h-1z M7 8h1v1h-1z M16 8h1v1h-1z M6 9h1v1h-1z M16 9h1v1h-1z M17 9h1v1h-1z M6 10h1v1h-1z M17 10h1v1h-1z M5 11h1v1h-1z M6 11h1v1h-1z M18 11h1v1h-1z M4 12h1v1h-1z M19 12h1v1h-1z M4 13h1v1h-1z M19 13h1v1h-1z M4 14h1v1h-1z M19 14h1v1h-1z M5 15h1v1h-1z M6 15h1v1h-1z M19 15h1v1h-1z M19 16h1v1h-1z M20 17h1v1h-1z M20 18h1v1h-1z M20 19h1v1h-1z M7 20h1v1h-1z M10 20h1v1h-1z M8 21h1v1h-1z M9 21h1v1h-1z M10 21h1v1h-1z M17 21h1v1h-1z M19 21h1v1h-1z M7 23h1v1h-1z M8 23h1v1h-1z M17 23h1v1h-1z M18 23h1v1h-1z" />
    <path fill="#243b23" d="M10 7h1v1h-1z M9 8h1v1h-1z M10 8h1v1h-1z M11 8h1v1h-1z M12 8h1v1h-1z M13 8h1v1h-1z M14 8h1v1h-1z M8 9h1v1h-1z M13 9h1v1h-1z M15 9h1v1h-1z M8 10h1v1h-1z M10 10h1v1h-1z M11 10h1v1h-1z M12 10h1v1h-1z M13 10h1v1h-1z M16 10h1v1h-1z M7 22h1v1h-1z M8 22h1v1h-1z M9 23h1v1h-1z M19 23h1v1h-1z" />
    <path fill="#3a6639" d="M11 7h1v1h-1z M12 7h1v1h-1z M8 8h1v1h-1z M7 9h1v1h-1z M9 9h1v1h-1z M10 9h1v1h-1z M11 9h1v1h-1z M12 9h1v1h-1z M14 9h1v1h-1z M7 10h1v1h-1z M9 10h1v1h-1z M14 10h1v1h-1z M15 10h1v1h-1z M17 22h1v1h-1z" />
    <path fill="#699965" d="M13 7h1v1h-1z M15 8h1v1h-1z M9 22h1v1h-1z M18 22h1v1h-1z" />
    <path fill="#a0c49d" d="M14 7h1v1h-1z" />
    <path fill="#28363d" d="M7 11h1v1h-1z M8 11h1v1h-1z M9 11h1v1h-1z M10 11h1v1h-1z M11 11h1v1h-1z M12 11h1v1h-1z M13 11h1v1h-1z M14 11h1v1h-1z M17 11h1v1h-1z M10 12h1v1h-1z M11 12h1v1h-1z M17 12h1v1h-1z M8 13h1v1h-1z M17 13h1v1h-1z M5 14h1v1h-1z M15 14h1v1h-1z M17 14h1v1h-1z M15 15h1v1h-1z M18 15h1v1h-1z M7 16h1v1h-1z M17 16h1v1h-1z M8 17h1v1h-1z M15 17h1v1h-1z M19 17h1v1h-1z M10 18h1v1h-1z M19 18h1v1h-1z M8 19h1v1h-1z M9 19h1v1h-1z M12 19h1v1h-1z M13 19h1v1h-1z M14 19h1v1h-1z M19 19h1v1h-1z M9 20h1v1h-1z M11 20h1v1h-1z M12 20h1v1h-1z M18 21h1v1h-1z" />
    <path fill="#141d21" d="M15 11h1v1h-1z M6 12h1v1h-1z M9 12h1v1h-1z M14 12h1v1h-1z M16 13h1v1h-1z M6 14h1v1h-1z M16 14h1v1h-1z M9 15h1v1h-1z M13 15h1v1h-1z M12 16h1v1h-1z M16 16h1v1h-1z M18 16h1v1h-1z M7 17h1v1h-1z M7 18h1v1h-1z M9 18h1v1h-1z M16 18h1v1h-1z M11 19h1v1h-1z M18 19h1v1h-1z M8 20h1v1h-1z M13 20h1v1h-1z M14 20h1v1h-1z M15 20h1v1h-1z M18 20h1v1h-1z M19 20h1v1h-1z" />
    <path fill="#435863" d="M16 11h1v1h-1z M5 12h1v1h-1z M7 12h1v1h-1z M8 12h1v1h-1z M12 12h1v1h-1z M13 12h1v1h-1z M15 12h1v1h-1z M16 12h1v1h-1z M18 12h1v1h-1z M5 13h1v1h-1z M7 13h1v1h-1z M9 13h1v1h-1z M11 13h1v1h-1z M13 13h1v1h-1z M15 13h1v1h-1z M7 14h1v1h-1z M8 14h1v1h-1z M9 14h1v1h-1z M13 14h1v1h-1z M14 14h1v1h-1z M18 14h1v1h-1z M7 15h1v1h-1z M8 15h1v1h-1z M10 15h1v1h-1z M11 15h1v1h-1z M12 15h1v1h-1z M14 15h1v1h-1z M16 15h1v1h-1z M17 15h1v1h-1z M8 16h1v1h-1z M9 16h1v1h-1z M10 16h1v1h-1z M14 16h1v1h-1z M15 16h1v1h-1z M9 17h1v1h-1z M12 17h1v1h-1z M14 17h1v1h-1z M16 17h1v1h-1z M17 17h1v1h-1z M18 17h1v1h-1z M6 18h1v1h-1z M8 18h1v1h-1z M12 18h1v1h-1z M13 18h1v1h-1z M14 18h1v1h-1z M15 18h1v1h-1z M17 18h1v1h-1z M18 18h1v1h-1z M7 19h1v1h-1z M10 19h1v1h-1z M16 19h1v1h-1z M17 19h1v1h-1z M16 20h1v1h-1z M17 20h1v1h-1z" />
    <path fill="#607985" d="M6 13h1v1h-1z M10 13h1v1h-1z M12 13h1v1h-1z M14 13h1v1h-1z M18 13h1v1h-1z M10 14h1v1h-1z M11 14h1v1h-1z M12 14h1v1h-1z M11 16h1v1h-1z M13 16h1v1h-1z M6 17h1v1h-1z M10 17h1v1h-1z M11 17h1v1h-1z M13 17h1v1h-1z M11 18h1v1h-1z M15 19h1v1h-1z" />
  </g>
  <g id="frame_5_2" transform="translate(48 120)">
    <path fill="#0b0f0b" d="M10 6h1v1h-1z M11 6h1v1h-1z M12 6h1v1h-1z M13 6h1v1h-1z M8 7h1v1h-1z M9 7h1v1h-1z M15 7h1v1h-1z M7 8h1v1h-1z M16 8h1v1h-1z M6 9h1v1h-1z M16 9h1v1h-1z M17 9h1v1h-1z M6 10h1v1h-1z M17 10h1v1h-1z M5 11h1v1h-1z M6 11h1v1h-1z M18 11h1v1h-1z M4 12h1v1h-1z M19 12h1v1h-1z M4 13h1v1h-1z M19 13h1v1h-1z M4 14h1v1h-1z M19 14h1v1h-1z M5 15h1v1h-1z M6 15h1v1h-1z M19 15h1v1h-1z M7 16h1v1h-1z M19 16h1v1h-1z M6 17h1v1h-1z M20 17h1v1h-1z M8 18h1v1h-1z M20 18h1v1h-1z M5 19h1v1h-1z M6 19h1v1h-1z M8 19h1v1h-1z M9 19h1v1h-1z M20 19h1v1h-1z M5 20h1v1h-1z M8 20h1v1h-1z M9 20h1v1h-1z M13 20h1v1h-1z M16 20h1v1h-1z M17 20h1v1h-1z M6 21h1v1h-1z M7 21h1v1h-1z M8 21h1v1h-1z M9 21h1v1h-1z M13 21h1v1h-1z M14 21h1v1h-1z M15 21h1v1h-1z M14 23h1v1h-1z M15 23h1v1h-1z" />
    <path fill="#243b23" d="M10 7h1v1h-1z M9 8h1v1h-1z M10 8h1v1h-1z M11 8h1v1h-1z M12 8h1v1h-1z M13 8h1v1h-1z M14 8h1v1h-1z M8 9h1v1h-1z M13 9h1v1h-1z M15 9h1v1h-1z M8 10h1v1h-1z M10 10h1v1h-1z M11 10h1v1h-1z M12 10h1v1h-1z M13 10h1v1h-1z M16 10h1v1h-1z M7 18h1v1h-1z M7 19h1v1h-1z M7 20h1v1h-1z M14 22h1v1h-1z M15 22h1v1h-1z M16 23h1v1h-1z" />
    <path fill="#3a6639" d="M11 7h1v1h-1z M12 7h1v1h-1z M8 8h1v1h-1z M7 9h1v1h-1z M9 9h1v1h-1z M10 9h1v1h-1z M11 9h1v1h-1z M12 9h1v1h-1z M14 9h1v1h-1z M7 10h1v1h-1z M9 10h1v1h-1z M14 10h1v1h-1z M15 10h1v1h-1z M6 18h1v1h-1z" />
    <path fill="#699965" d="M13 7h1v1h-1z M15 8h1v1h-1z M6 20h1v1h-1z M16 22h1v1h-1z" />
    <path fill="#a0c49d" d="M14 7h1v1h-1z M5 18h1v1h-1z" />
    <path fill="#28363d" d="M7 11h1v1h-1z M8 11h1v1h-1z M9 11h1v1h-1z M10 11h1v1h-1z M11 11h1v1h-1z M12 11h1v1h-1z M13 11h1v1h-1z M14 11h1v1h-1z M17 11h1v1h-1z M10 12h1v1h-1z M11 12h1v1h-1z M17 12h1v1h-1z M8 13h1v1h-1z M17 13h1v1h-1z M5 14h1v1h-1z M15 14h1v1h-1z M17 14h1v1h-1z M15 15h1v1h-1z M18 15h1v1h-1z M17 16h1v1h-1z M10 17h1v1h-1z M15 18h1v1h-1z M17 18h1v1h-1z M11 19h1v1h-1z M13 19h1v1h-1z M15 19h1v1h-1z M17 19h1v1h-1z M19 19h1v1h-1z M15 20h1v1h-1z" />
    <path fill="#141d21" d="M15 11h1v1h-1z M6 12h1v1h-1z M9 12h1v1h-1z M14 12h1v1h-1z M16 13h1v1h-1z M6 14h1v1h-1z M16 14h1v1h-1z M9 15h1v1h-1z M13 15h1v1h-1z M8 16h1v1h-1z M9 16h1v1h-1z M13 16h1v1h-1z M16 16h1v1h-1z M18 16h1v1h-1z M9 17h1v1h-1z M17 17h1v1h-1z M9 18h1v1h-1z M10 18h1v1h-1z M14 18h1v1h-1z M19 18h1v1h-1z M12 19h1v1h-1z M14 19h1v1h-1z M16 19h1v1h-1z M18 19h1v1h-1z M14 20h1v1h-1z" />
    <path fill="#435863" d="M16 11h1v1h-1z M5 12h1v1h-1z M7 12h1v1h-1z M8 12h1v1h-1z M12 12h1v1h-1z M13 12h1v1h-1z M15 12h1v1h-1z M16 12h1v1h-1z M18 12h1v1h-1z M5 13h1v1h-1z M7 13h1v1h-1z M9 13h1v1h-1z M11 13h1v1h-1z M13 13h1v1h-1z M15 13h1v1h-1z M7 14h1v1h-1z M8 14h1v1h-1z M9 14h1v1h-1z M13 14h1v1h-1z M14 14h1v1h-1z M18 14h1v1h-1z M7 15h1v1h-1z M8 15h1v1h-1z M10 15h1v1h-1z M11 15h1v1h-1z M12 15h1v1h-1z M14 15h1v1h-1z M16 15h1v1h-1z M17 15h1v1h-1z M10 16h1v1h-1z M11 16h1v1h-1z M15 16h1v1h-1z M7 17h1v1h-1z M8 17h1v1h-1z M11 17h1v1h-1z M12 17h1v1h-1z M13 17h1v1h-1z M16 17h1v1h-1z M18 17h1v1h-1z M19 17h1v1h-1z M11 18h1v1h-1z M12 18h1v1h-1z M13 18h1v1h-1z M18 18h1v1h-1z M10 19h1v1h-1z" />
    <path fill="#607985" d="M6 13h1v1h-1z M10 13h1v1h-1z M12 13h1v1h-1z M14 13h1v1h-1z M18 13h1v1h-1z M10 14h1v1h-1z M11 14h1v1h-1z M12 14h1v1h-1z M12 16h1v1h-1z M14 16h1v1h-1z M14 17h1v1h-1z M15 17h1v1h-1z M16 18h1v1h-1z" />
  </g>
  <g id="frame_5_3" transform="translate(72 120)">
    <path fill="#0b0f0b" d="M10 6h1v1h-1z M11 6h1v1h-1z M12 6h1v1h-1z M13 6h1v1h-1z M8 7h1v1h-1z M9 7h1v1h-1z M15 7h1v1h-1z M7 8h1v1h-1z M16 8h1v1h-1z M6 9h1v1h-1z M16 9h1v1h-1z M17 9h1v1h-1z M6 10h1v1h-1z M17 10h1v1h-1z M5 11h1v1h-1z M6 11h1v1h-1z M18 11h1v1h-1z M4 12h1v1h-1z M19 12h1v1h-1z M4 13h1v1h-1z M19 13h1v1h-1z M4 14h1v1h-1z M19 14h1v1h-1z M5 15h1v1h-1z M6 15h1v1h-1z M19 15h1v1h-1z M19 16h1v1h-1z M20 17h1v1h-1z M20 18h1v1h-1z M20 19h1v1h-1z M7 20h1v1h-1z M10 20h1v1h-1z M8 21h1v1h-1z M9 21h1v1h-1z M10 21h1v1h-1z M17 21h1v1h-1z M19 21h1v1h-1z M7 23h1v1h-1z M8 23h1v1h-1z M17 23h1v1h-1z M18 23h1v1h-1z" />
    <path fill="#243b23" d="M10 7h1v1h-1z M9 8h1v1h-1z M10 8h1v1h-1z M11 8h1v1h-1z M12 8h1v1h-1z M13 8h1v1h-1z M14 8h1v1h-1z M8 9h1v1h-1z M13 9h1v1h-1z M15 9h1v1h-1z M8 10h1v1h-1z M10 10h1v1h-1z M11 10h1v1h-1z M12 10h1v1h-1z M13 10h1v1h-1z M16 10h1v1h-1z M7 22h1v1h-1z M8 22h1v1h-1z M9 23h1v1h-1z M19 23h1v1h-1z" />
    <path fill="#3a6639" d="M11 7h1v1h-1z M12 7h1v1h-1z M8 8h1v1h-1z M7 9h1v1h-1z M9 9h1v1h-1z M10 9h1v1h-1z M11 9h1v1h-1z M12 9h1v1h-1z M14 9h1v1h-1z M7 10h1v1h-1z M9 10h1v1h-1z M14 10h1v1h-1z M15 10h1v1h-1z M17 22h1v1h-1z" />
    <path fill="#699965" d="M13 7h1v1h-1z M15 8h1v1h-1z M9 22h1v1h-1z M18 22h1v1h-1z" />
    <path fill="#a0c49d" d="M14 7h1v1h-1z" />
    <path fill="#28363d" d="M7 11h1v1h-1z M8 11h1v1h-1z M9 11h1v1h-1z M10 11h1v1h-1z M11 11h1v1h-1z M12 11h1v1h-1z M13 11h1v1h-1z M14 11h1v1h-1z M17 11h1v1h-1z M10 12h1v1h-1z M11 12h1v1h-1z M17 12h1v1h-1z M8 13h1v1h-1z M17 13h1v1h-1z M5 14h1v1h-1z M15 14h1v1h-1z M17 14h1v1h-1z M15 15h1v1h-1z M18 15h1v1h-1z M7 16h1v1h-1z M17 16h1v1h-1z M8 17h1v1h-1z M15 17h1v1h-1z M19 17h1v1h-1z M10 18h1v1h-1z M19 18h1v1h-1z M8 19h1v1h-1z M9 19h1v1h-1z M12 19h1v1h-1z M13 19h1v1h-1z M14 19h1v1h-1z M19 19h1v1h-1z M9 20h1v1h-1z M11 20h1v1h-1z M12 20h1v1h-1z M18 21h1v1h-1z" />
    <path fill="#141d21" d="M15 11h1v1h-1z M6 12h1v1h-1z M9 12h1v1h-1z M14 12h1v1h-1z M16 13h1v1h-1z M6 14h1v1h-1z M16 14h1v1h-1z M9 15h1v1h-1z M13 15h1v1h-1z M12 16h1v1h-1z M16 16h1v1h-1z M18 16h1v1h-1z M7 17h1v1h-1z M7 18h1v1h-1z M9 18h1v1h-1z M16 18h1v1h-1z M11 19h1v1h-1z M18 19h1v1h-1z M8 20h1v1h-1z M13 20h1v1h-1z M14 20h1v1h-1z M15 20h1v1h-1z M18 20h1v1h-1z M19 20h1v1h-1z" />
    <path fill="#435863" d="M16 11h1v1h-1z M5 12h1v1h-1z M7 12h1v1h-1z M8 12h1v1h-1z M12 12h1v1h-1z M13 12h1v1h-1z M15 12h1v1h-1z M16 12h1v1h-1z M18 12h1v1h-1z M5 13h1v1h-1z M7 13h1v1h-1z M9 13h1v1h-1z M11 13h1v1h-1z M13 13h1v1h-1z M15 13h1v1h-1z M7 14h1v1h-1z M8 14h1v1h-1z M9 14h1v1h-1z M13 14h1v1h-1z M14 14h1v1h-1z M18 14h1v1h-1z M7 15h1v1h-1z M8 15h1v1h-1z M10 15h1v1h-1z M11 15h1v1h-1z M12 15h1v1h-1z M14 15h1v1h-1z M16 15h1v1h-1z M17 15h1v1h-1z M8 16h1v1h-1z M9 16h1v1h-1z M10 16h1v1h-1z M14 16h1v1h-1z M15 16h1v1h-1z M9 17h1v1h-1z M12 17h1v1h-1z M14 17h1v1h-1z M16 17h1v1h-1z M17 17h1v1h-1z M18 17h1v1h-1z M6 18h1v1h-1z M8 18h1v1h-1z M12 18h1v1h-1z M13 18h1v1h-1z M14 18h1v1h-1z M15 18h1v1h-1z M17 18h1v1h-1z M18 18h1v1h-1z M7 19h1v1h-1z M10 19h1v1h-1z M16 19h1v1h-1z M17 19h1v1h-1z M16 20h1v1h-1z M17 20h1v1h-1z" />
    <path fill="#607985" d="M6 13h1v1h-1z M10 13h1v1h-1z M12 13h1v1h-1z M14 13h1v1h-1z M18 13h1v1h-1z M10 14h1v1h-1z M11 14h1v1h-1z M12 14h1v1h-1z M11 16h1v1h-1z M13 16h1v1h-1z M6 17h1v1h-1z M10 17h1v1h-1z M11 17h1v1h-1z M13 17h1v1h-1z M11 18h1v1h-1z M15 19h1v1h-1z" />
  </g>
  <g id="frame_6_0" transform="translate(0 144)">
    <path fill="#0b0f0b" d="M10 9h1v1h-1z M11 9h1v1h-1z M12 9h1v1h-1z M13 9h1v1h-1z M8 10h1v1h-1z M14 10h1v1h-1z M15 11h1v1h-1z M15 12h1v1h-1z M7 13h1v1h-1z M15 13h1v1h-1z M7 14h1v1h-1z M11 14h1v1h-1z M16 14h1v1h-1z M9 15h1v1h-1z M10 15h1v1h-1z M11 15h1v1h-1z M12 15h1v1h-1z M13 15h1v1h-1z M15 15h1v1h-1z M16 15h1v1h-1z M8 16h1v1h-1z M10 16h1v1h-1z M11 16h1v1h-1z M13 16h1v1h-1z M16 16h1v1h-1z M6 17h1v1h-1z M10 17h1v1h-1z M11 17h1v1h-1z M12 17h1v1h-1z M13 17h1v1h-1z M9 18h1v1h-1z M11 18h1v1h-1z M13 18h1v1h-1z M16 18h1v1h-1z M17 18h1v1h-1z M6 19h1v1h-1z M10 19h1v1h-1z M11 19h1v1h-1z M12 19h1v1h-1z M13 19h1v1h-1z M15 19h1v1h-1z M6 20h1v1h-1z M11 20h1v1h-1z M13 20h1v1h-1z M11 21h1v1h-1z M14 21h1v1h-1z M5 23h1v1h-1z M9 23h1v1h-1z M10 23h1v1h-1z M11 23h1v1h-1z M13 23h1v1h-1z" />
    <path fill="#243b23" d="M9 10h1v1h-1z M12 10h1v1h-1z M7 11h1v1h-1z M13 11h1v1h-1z M14 11h1v1h-1z M7 12h1v1h-1z M10 12h1v1h-1z M11 12h1v1h-1z M14 12h1v1h-1z M15 14h1v1h-1z M15 17h1v1h-1z M7 18h1v1h-1z M15 18h1v1h-1z M5 19h1v1h-1z M5 20h1v1h-1z M7 22h1v1h-1z M7 23h1v1h-1z M12 23h1v1h-1z" />
    <path fill="#3a6639" d="M10 10h1v1h-1z M13 10h1v1h-1z M8 11h1v1h-1z M9 11h1v1h-1z M8 12h1v1h-1z M12 12h1v1h-1z M16 17h1v1h-1z M4 20h1v1h-1z" />
    <path fill="#a0c49d" d="M11 10h1v1h-1z M14 14h1v1h-1z M4 19h1v1h-1z" />
    <path fill="#699965" d="M10 11h1v1h-1z M11 11h1v1h-1z M17 17h1v1h-1z" />
    <path fill="#ff2a3a" d="M12 11h1v1h-1z M9 12h1v1h-1z M13 12h1v1h-1z M8 13h1v1h-1z M13 13h1v1h-1z" />
    <path fill="#a61120" d="M9 13h1v1h-1z M14 13h1v1h-1z" />
    <path fill="#435863" d="M10 13h1v1h-1z M12 13h1v1h-1z M14 15h1v1h-1z M7 16h1v1h-1z M15 16h1v1h-1z M7 17h1v1h-1z M9 17h1v1h-1z M14 17h1v1h-1z M6 18h1v1h-1z M10 18h1v1h-1z M14 18h1v1h-1z M8 20h1v1h-1z M12 20h1v1h-1z M10 21h1v1h-1z" />
    <path fill="#141d21" d="M11 13h1v1h-1z M8 14h1v1h-1z M8 15h1v1h-1z M8 19h1v1h-1z M12 21h1v1h-1z" />
    <path fill="#e1d7aa" d="M9 14h1v1h-1z M10 14h1v1h-1z M13 14h1v1h-1z M9 16h1v1h-1z M12 16h1v1h-1z M12 18h1v1h-1z M6 22h1v1h-1z M11 22h1v1h-1z M6 23h1v1h-1z" />
    <path fill="#28363d" d="M12 14h1v1h-1z M7 15h1v1h-1z M14 16h1v1h-1z M8 18h1v1h-1z M9 19h1v1h-1z M14 19h1v1h-1z M9 20h1v1h-1z M10 20h1v1h-1z M14 20h1v1h-1z M7 21h1v1h-1z M8 21h1v1h-1z M9 21h1v1h-1z M13 21h1v1h-1z M9 22h1v1h-1z" />
    <path fill="#607985" d="M8 17h1v1h-1z M5 18h1v1h-1z" />
  </g>
  <g id="frame_6_1" transform="translate(24 144)">
    <path fill="#0b0f0b" d="M8 13h1v1h-1z M9 13h1v1h-1z M10 13h1v1h-1z M11 13h1v1h-1z M6 14h1v1h-1z M7 14h1v1h-1z M12 14h1v1h-1z M7 15h1v1h-1z M9 15h1v1h-1z M13 15h1v1h-1z M6 16h1v1h-1z M14 16h1v1h-1z M6 17h1v1h-1z M7 17h1v1h-1z M8 17h1v1h-1z M9 17h1v1h-1z M4 18h1v1h-1z M9 18h1v1h-1z M15 18h1v1h-1z M6 19h1v1h-1z M7 19h1v1h-1z M9 19h1v1h-1z M10 19h1v1h-1z M11 19h1v1h-1z M12 19h1v1h-1z M13 19h1v1h-1z M3 20h1v1h-1z M7 20h1v1h-1z M9 20h1v1h-1z M10 20h1v1h-1z M11 20h1v1h-1z M3 21h1v1h-1z M7 22h1v1h-1z M2 23h1v1h-1z M3 23h1v1h-1z M5 23h1v1h-1z M6 23h1v1h-1z M11 23h1v1h-1z M12 23h1v1h-1z" />
    <path fill="#243b23" d="M8 14h1v1h-1z M9 14h1v1h-1z M10 14h1v1h-1z M8 15h1v1h-1z M10 15h1v1h-1z M11 15h1v1h-1z M8 16h1v1h-1z M13 16h1v1h-1z M11 17h1v1h-1z M13 17h1v1h-1z M14 17h1v1h-1z M15 17h1v1h-1z M11 21h1v1h-1z M2 22h1v1h-1z M3 22h1v1h-1z" />
    <path fill="#3a6639" d="M11 14h1v1h-1z M12 15h1v1h-1z M12 16h1v1h-1z M5 17h1v1h-1z M5 18h1v1h-1z M5 19h1v1h-1z M5 22h1v1h-1z M11 22h1v1h-1z M4 23h1v1h-1z" />
    <path fill="#a61120" d="M6 15h1v1h-1z M7 16h1v1h-1z" />
    <path fill="#28363d" d="M9 16h1v1h-1z M12 17h1v1h-1z M8 18h1v1h-1z M10 18h1v1h-1z M12 18h1v1h-1z M5 20h1v1h-1z M5 21h1v1h-1z M6 21h1v1h-1z M7 21h1v1h-1z M9 21h1v1h-1z" />
    <path fill="#435863" d="M10 16h1v1h-1z M11 16h1v1h-1z M10 17h1v1h-1z M7 18h1v1h-1z M11 18h1v1h-1z M13 18h1v1h-1z M14 18h1v1h-1z M6 20h1v1h-1z M8 21h1v1h-1z" />
    <path fill="#a0c49d" d="M6 18h1v1h-1z" />
    <path fill="#e1d7aa" d="M8 19h1v1h-1z M8 20h1v1h-1z M4 21h1v1h-1z M12 21h1v1h-1z" />
    <path fill="#699965" d="M2 21h1v1h-1z M4 22h1v1h-1z M6 22h1v1h-1z M10 22h1v1h-1z M12 22h1v1h-1z" />
  </g>
  <g id="frame_6_2" transform="translate(48 144)">
    <path fill="#243b23" d="M7 17h1v1h-1z M8 17h1v1h-1z M9 17h1v1h-1z M6 18h1v1h-1z M9 18h1v1h-1z M10 18h1v1h-1z M10 19h1v1h-1z M4 20h1v1h-1z M10 21h1v1h-1z M2 22h1v1h-1z M1 23h1v1h-1z" />
    <path fill="#0b0f0b" d="M10 17h1v1h-1z M7 18h1v1h-1z M8 18h1v1h-1z M12 18h1v1h-1z M5 19h1v1h-1z M6 19h1v1h-1z M7 19h1v1h-1z M8 19h1v1h-1z M9 19h1v1h-1z M13 19h1v1h-1z M5 20h1v1h-1z M6 20h1v1h-1z M7 20h1v1h-1z M8 20h1v1h-1z M9 20h1v1h-1z M10 20h1v1h-1z M11 20h1v1h-1z M12 20h1v1h-1z M13 20h1v1h-1z M14 20h1v1h-1z M3 21h1v1h-1z M4 21h1v1h-1z M5 21h1v1h-1z M7 21h1v1h-1z M8 21h1v1h-1z M11 21h1v1h-1z M12 21h1v1h-1z M2 23h1v1h-1z M5 23h1v1h-1z M10 23h1v1h-1z M11 23h1v1h-1z M12 23h1v1h-1z" />
    <path fill="#3a6639" d="M5 18h1v1h-1z M11 18h1v1h-1z M11 19h1v1h-1z M12 19h1v1h-1z M10 22h1v1h-1z M3 23h1v1h-1z" />
    <path fill="#a0c49d" d="M3 19h1v1h-1z M4 19h1v1h-1z" />
    <path fill="#435863" d="M3 20h1v1h-1z M2 21h1v1h-1z M9 21h1v1h-1z" />
    <path fill="#e1d7aa" d="M6 21h1v1h-1z M3 22h1v1h-1z" />
    <path fill="#699965" d="M1 22h1v1h-1z M7 22h1v1h-1z M11 22h1v1h-1z" />
    <path fill="#28363d" d="M4 22h1v1h-1z M5 22h1v1h-1z M6 22h1v1h-1z" />
  </g>
  <g id="frame_6_3" transform="translate(72 144)">
    <path fill="#0b0f0b" d="M6 19h1v1h-1z M8 19h1v1h-1z M9 19h1v1h-1z M11 19h1v1h-1z M3 20h1v1h-1z M5 20h1v1h-1z M6 20h1v1h-1z M7 20h1v1h-1z M8 20h1v1h-1z M9 20h1v1h-1z M10 20h1v1h-1z M11 20h1v1h-1z M12 20h1v1h-1z M14 20h1v1h-1z M2 21h1v1h-1z M3 21h1v1h-1z M4 21h1v1h-1z M5 21h1v1h-1z M6 21h1v1h-1z M7 21h1v1h-1z M8 21h1v1h-1z M9 21h1v1h-1z M10 21h1v1h-1z M11 21h1v1h-1z M12 21h1v1h-1z M13 21h1v1h-1z M4 22h1v1h-1z M2 23h1v1h-1z M10 23h1v1h-1z M11 23h1v1h-1z M12 23h1v1h-1z" />
    <path fill="#699965" d="M1 22h1v1h-1z M6 22h1v1h-1z M11 22h1v1h-1z" />
    <path fill="#28363d" d="M2 22h1v1h-1z M3 22h1v1h-1z" />
    <path fill="#243b23" d="M5 22h1v1h-1z M1 23h1v1h-1z" />
    <path fill="#3a6639" d="M10 22h1v1h-1z" />
  </g>
</svg>
