<svg xmlns="http://www.w3.org/2000/svg" width="96" height="168" viewBox="0 0 96 168" shape-rendering="crispEdges">
  <title>Bombervania zombie sheet template</title>
  <desc>Guide template for zombie-sheet.png. Remove guide layers before final PNG export.</desc>
  <defs>
    <style>
      .bg { fill: #0d1015; }
      .active { fill: #203424; }
      .frame { fill-opacity: 0.38; stroke: #5a6473; stroke-opacity: 0.55; }
      .cell { fill: none; stroke: #c7cfda; stroke-opacity: 0.35; }
      .pivot { stroke: #f2d16b; stroke-width: 1; }
      .label { fill: #f2ead6; font-family: monospace; font-size: 3px; }
      .empty { fill: #2a1a20; }
    </style>
    <g id="slot-active">
      <rect class="frame active" x="0" y="0" width="24" height="24" />
      <rect class="cell" x="4" y="4" width="16" height="16" />
      <path class="pivot" d="M12 17h1v3h-1zM11 18h3v1h-3z" />
    </g>
    <g id="slot-empty">
      <rect class="frame empty" x="0" y="0" width="24" height="24" />
      <rect class="cell" x="4" y="4" width="16" height="16" />
      <path class="pivot" d="M12 17h1v3h-1zM11 18h3v1h-3z" />
    </g>
  </defs>

  <g id="guide-bg">
    <rect class="bg" x="0" y="0" width="96" height="168" />
  </g>

  <g id="guide-slots">
    <g transform="translate(0 0)">
      <use href="#slot-active" x="0" y="0" />
      <use href="#slot-active" x="24" y="0" />
      <use href="#slot-empty" x="48" y="0" />
      <use href="#slot-empty" x="72" y="0" />
    </g>
    <g transform="translate(0 24)">
      <use href="#slot-active" x="0" y="0" />
      <use href="#slot-active" x="24" y="0" />
      <use href="#slot-active" x="48" y="0" />
      <use href="#slot-active" x="72" y="0" />
    </g>
    <g transform="translate(0 48)">
      <use href="#slot-active" x="0" y="0" />
      <use href="#slot-active" x="24" y="0" />
      <use href="#slot-empty" x="48" y="0" />
      <use href="#slot-empty" x="72" y="0" />
    </g>
    <g transform="translate(0 72)">
      <use href="#slot-active" x="0" y="0" />
      <use href="#slot-active" x="24" y="0" />
      <use href="#slot-active" x="48" y="0" />
      <use href="#slot-active" x="72" y="0" />
    </g>
    <g transform="translate(0 96)">
      <use href="#slot-active" x="0" y="0" />
      <use href="#slot-active" x="24" y="0" />
      <use href="#slot-empty" x="48" y="0" />
      <use href="#slot-empty" x="72" y="0" />
    </g>
    <g transform="translate(0 120)">
      <use href="#slot-active" x="0" y="0" />
      <use href="#slot-active" x="24" y="0" />
      <use href="#slot-active" x="48" y="0" />
      <use href="#slot-active" x="72" y="0" />
    </g>
    <g transform="translate(0 144)">
      <use href="#slot-active" x="0" y="0" />
      <use href="#slot-active" x="24" y="0" />
      <use href="#slot-active" x="48" y="0" />
      <use href="#slot-active" x="72" y="0" />
    </g>
  </g>

  <g id="artwork"></g>

  <g id="guide-labels">
    <text class="label" x="2" y="5">idle-down</text>
    <text class="label" x="2" y="29">walk-down</text>
    <text class="label" x="2" y="53">idle-side</text>
    <text class="label" x="2" y="77">walk-side</text>
    <text class="label" x="2" y="101">idle-up</text>
    <text class="label" x="2" y="125">walk-up</text>
    <text class="label" x="2" y="149">death</text>
  </g>
</svg>
